%TF.GenerationSoftware,KiCad,Pcbnew,10.0.5*%
%TF.CreationDate,2026-09-20T20:44:41+07:00*%
%TF.ProjectId,Stm32f723zet6,53746d33-3266-4373-9233-7a6574362e6b,rev?*%
%TF.SameCoordinates,Original*%
%TF.FileFunction,Legend,Bot*%
%TF.FilePolarity,Positive*%
%FSLAX46Y46*%
G04 Gerber Fmt 4.6, Leading zero omitted, Abs format (unit mm)*
G04 Created by KiCad (PCBNEW 10.0.5) date 2026-09-20 20:44:41*
%MOMM*%
%LPD*%
G01*
G04 APERTURE LIST*
%ADD10C,0.100000*%
%ADD11C,0.150000*%
%ADD12C,0.120000*%
G04 APERTURE END LIST*
D10*
X121172306Y-82760038D02*
X121267544Y-82712419D01*
X121267544Y-82712419D02*
X121410401Y-82712419D01*
X121410401Y-82712419D02*
X121553258Y-82760038D01*
X121553258Y-82760038D02*
X121648496Y-82855276D01*
X121648496Y-82855276D02*
X121696115Y-82950514D01*
X121696115Y-82950514D02*
X121743734Y-83140990D01*
X121743734Y-83140990D02*
X121743734Y-83283847D01*
X121743734Y-83283847D02*
X121696115Y-83474323D01*
X121696115Y-83474323D02*
X121648496Y-83569561D01*
X121648496Y-83569561D02*
X121553258Y-83664800D01*
X121553258Y-83664800D02*
X121410401Y-83712419D01*
X121410401Y-83712419D02*
X121315163Y-83712419D01*
X121315163Y-83712419D02*
X121172306Y-83664800D01*
X121172306Y-83664800D02*
X121124687Y-83617180D01*
X121124687Y-83617180D02*
X121124687Y-83283847D01*
X121124687Y-83283847D02*
X121315163Y-83283847D01*
X120696115Y-83712419D02*
X120696115Y-82712419D01*
X120696115Y-82712419D02*
X120124687Y-83712419D01*
X120124687Y-83712419D02*
X120124687Y-82712419D01*
X119648496Y-83712419D02*
X119648496Y-82712419D01*
X119648496Y-82712419D02*
X119410401Y-82712419D01*
X119410401Y-82712419D02*
X119267544Y-82760038D01*
X119267544Y-82760038D02*
X119172306Y-82855276D01*
X119172306Y-82855276D02*
X119124687Y-82950514D01*
X119124687Y-82950514D02*
X119077068Y-83140990D01*
X119077068Y-83140990D02*
X119077068Y-83283847D01*
X119077068Y-83283847D02*
X119124687Y-83474323D01*
X119124687Y-83474323D02*
X119172306Y-83569561D01*
X119172306Y-83569561D02*
X119267544Y-83664800D01*
X119267544Y-83664800D02*
X119410401Y-83712419D01*
X119410401Y-83712419D02*
X119648496Y-83712419D01*
X126973734Y-82687657D02*
X126926115Y-82640038D01*
X126926115Y-82640038D02*
X126830877Y-82592419D01*
X126830877Y-82592419D02*
X126592782Y-82592419D01*
X126592782Y-82592419D02*
X126497544Y-82640038D01*
X126497544Y-82640038D02*
X126449925Y-82687657D01*
X126449925Y-82687657D02*
X126402306Y-82782895D01*
X126402306Y-82782895D02*
X126402306Y-82878133D01*
X126402306Y-82878133D02*
X126449925Y-83020990D01*
X126449925Y-83020990D02*
X127021353Y-83592419D01*
X127021353Y-83592419D02*
X126402306Y-83592419D01*
X125545163Y-82925752D02*
X125545163Y-83592419D01*
X125783258Y-82544800D02*
X126021353Y-83259085D01*
X126021353Y-83259085D02*
X125402306Y-83259085D01*
X125164210Y-82592419D02*
X124830877Y-83592419D01*
X124830877Y-83592419D02*
X124497544Y-82592419D01*
X134332306Y-82190038D02*
X134427544Y-82142419D01*
X134427544Y-82142419D02*
X134570401Y-82142419D01*
X134570401Y-82142419D02*
X134713258Y-82190038D01*
X134713258Y-82190038D02*
X134808496Y-82285276D01*
X134808496Y-82285276D02*
X134856115Y-82380514D01*
X134856115Y-82380514D02*
X134903734Y-82570990D01*
X134903734Y-82570990D02*
X134903734Y-82713847D01*
X134903734Y-82713847D02*
X134856115Y-82904323D01*
X134856115Y-82904323D02*
X134808496Y-82999561D01*
X134808496Y-82999561D02*
X134713258Y-83094800D01*
X134713258Y-83094800D02*
X134570401Y-83142419D01*
X134570401Y-83142419D02*
X134475163Y-83142419D01*
X134475163Y-83142419D02*
X134332306Y-83094800D01*
X134332306Y-83094800D02*
X134284687Y-83047180D01*
X134284687Y-83047180D02*
X134284687Y-82713847D01*
X134284687Y-82713847D02*
X134475163Y-82713847D01*
X133856115Y-83142419D02*
X133856115Y-82142419D01*
X133856115Y-82142419D02*
X133284687Y-83142419D01*
X133284687Y-83142419D02*
X133284687Y-82142419D01*
X132808496Y-83142419D02*
X132808496Y-82142419D01*
X132808496Y-82142419D02*
X132570401Y-82142419D01*
X132570401Y-82142419D02*
X132427544Y-82190038D01*
X132427544Y-82190038D02*
X132332306Y-82285276D01*
X132332306Y-82285276D02*
X132284687Y-82380514D01*
X132284687Y-82380514D02*
X132237068Y-82570990D01*
X132237068Y-82570990D02*
X132237068Y-82713847D01*
X132237068Y-82713847D02*
X132284687Y-82904323D01*
X132284687Y-82904323D02*
X132332306Y-82999561D01*
X132332306Y-82999561D02*
X132427544Y-83094800D01*
X132427544Y-83094800D02*
X132570401Y-83142419D01*
X132570401Y-83142419D02*
X132808496Y-83142419D01*
X137139925Y-82112419D02*
X137616115Y-82112419D01*
X137616115Y-82112419D02*
X137663734Y-82588609D01*
X137663734Y-82588609D02*
X137616115Y-82540990D01*
X137616115Y-82540990D02*
X137520877Y-82493371D01*
X137520877Y-82493371D02*
X137282782Y-82493371D01*
X137282782Y-82493371D02*
X137187544Y-82540990D01*
X137187544Y-82540990D02*
X137139925Y-82588609D01*
X137139925Y-82588609D02*
X137092306Y-82683847D01*
X137092306Y-82683847D02*
X137092306Y-82921942D01*
X137092306Y-82921942D02*
X137139925Y-83017180D01*
X137139925Y-83017180D02*
X137187544Y-83064800D01*
X137187544Y-83064800D02*
X137282782Y-83112419D01*
X137282782Y-83112419D02*
X137520877Y-83112419D01*
X137520877Y-83112419D02*
X137616115Y-83064800D01*
X137616115Y-83064800D02*
X137663734Y-83017180D01*
X136806591Y-82112419D02*
X136473258Y-83112419D01*
X136473258Y-83112419D02*
X136139925Y-82112419D01*
D11*
X204590357Y-114199580D02*
X204637976Y-114247200D01*
X204637976Y-114247200D02*
X204780833Y-114294819D01*
X204780833Y-114294819D02*
X204876071Y-114294819D01*
X204876071Y-114294819D02*
X205018928Y-114247200D01*
X205018928Y-114247200D02*
X205114166Y-114151961D01*
X205114166Y-114151961D02*
X205161785Y-114056723D01*
X205161785Y-114056723D02*
X205209404Y-113866247D01*
X205209404Y-113866247D02*
X205209404Y-113723390D01*
X205209404Y-113723390D02*
X205161785Y-113532914D01*
X205161785Y-113532914D02*
X205114166Y-113437676D01*
X205114166Y-113437676D02*
X205018928Y-113342438D01*
X205018928Y-113342438D02*
X204876071Y-113294819D01*
X204876071Y-113294819D02*
X204780833Y-113294819D01*
X204780833Y-113294819D02*
X204637976Y-113342438D01*
X204637976Y-113342438D02*
X204590357Y-113390057D01*
X203733214Y-113628152D02*
X203733214Y-114294819D01*
X203971309Y-113247200D02*
X204209404Y-113961485D01*
X204209404Y-113961485D02*
X203590357Y-113961485D01*
X203018928Y-113294819D02*
X202923690Y-113294819D01*
X202923690Y-113294819D02*
X202828452Y-113342438D01*
X202828452Y-113342438D02*
X202780833Y-113390057D01*
X202780833Y-113390057D02*
X202733214Y-113485295D01*
X202733214Y-113485295D02*
X202685595Y-113675771D01*
X202685595Y-113675771D02*
X202685595Y-113913866D01*
X202685595Y-113913866D02*
X202733214Y-114104342D01*
X202733214Y-114104342D02*
X202780833Y-114199580D01*
X202780833Y-114199580D02*
X202828452Y-114247200D01*
X202828452Y-114247200D02*
X202923690Y-114294819D01*
X202923690Y-114294819D02*
X203018928Y-114294819D01*
X203018928Y-114294819D02*
X203114166Y-114247200D01*
X203114166Y-114247200D02*
X203161785Y-114199580D01*
X203161785Y-114199580D02*
X203209404Y-114104342D01*
X203209404Y-114104342D02*
X203257023Y-113913866D01*
X203257023Y-113913866D02*
X203257023Y-113675771D01*
X203257023Y-113675771D02*
X203209404Y-113485295D01*
X203209404Y-113485295D02*
X203161785Y-113390057D01*
X203161785Y-113390057D02*
X203114166Y-113342438D01*
X203114166Y-113342438D02*
X203018928Y-113294819D01*
X204652857Y-121609819D02*
X204986190Y-121133628D01*
X205224285Y-121609819D02*
X205224285Y-120609819D01*
X205224285Y-120609819D02*
X204843333Y-120609819D01*
X204843333Y-120609819D02*
X204748095Y-120657438D01*
X204748095Y-120657438D02*
X204700476Y-120705057D01*
X204700476Y-120705057D02*
X204652857Y-120800295D01*
X204652857Y-120800295D02*
X204652857Y-120943152D01*
X204652857Y-120943152D02*
X204700476Y-121038390D01*
X204700476Y-121038390D02*
X204748095Y-121086009D01*
X204748095Y-121086009D02*
X204843333Y-121133628D01*
X204843333Y-121133628D02*
X205224285Y-121133628D01*
X203700476Y-121609819D02*
X204271904Y-121609819D01*
X203986190Y-121609819D02*
X203986190Y-120609819D01*
X203986190Y-120609819D02*
X204081428Y-120752676D01*
X204081428Y-120752676D02*
X204176666Y-120847914D01*
X204176666Y-120847914D02*
X204271904Y-120895533D01*
X202795714Y-120609819D02*
X203271904Y-120609819D01*
X203271904Y-120609819D02*
X203319523Y-121086009D01*
X203319523Y-121086009D02*
X203271904Y-121038390D01*
X203271904Y-121038390D02*
X203176666Y-120990771D01*
X203176666Y-120990771D02*
X202938571Y-120990771D01*
X202938571Y-120990771D02*
X202843333Y-121038390D01*
X202843333Y-121038390D02*
X202795714Y-121086009D01*
X202795714Y-121086009D02*
X202748095Y-121181247D01*
X202748095Y-121181247D02*
X202748095Y-121419342D01*
X202748095Y-121419342D02*
X202795714Y-121514580D01*
X202795714Y-121514580D02*
X202843333Y-121562200D01*
X202843333Y-121562200D02*
X202938571Y-121609819D01*
X202938571Y-121609819D02*
X203176666Y-121609819D01*
X203176666Y-121609819D02*
X203271904Y-121562200D01*
X203271904Y-121562200D02*
X203319523Y-121514580D01*
X171914580Y-103614642D02*
X171962200Y-103567023D01*
X171962200Y-103567023D02*
X172009819Y-103424166D01*
X172009819Y-103424166D02*
X172009819Y-103328928D01*
X172009819Y-103328928D02*
X171962200Y-103186071D01*
X171962200Y-103186071D02*
X171866961Y-103090833D01*
X171866961Y-103090833D02*
X171771723Y-103043214D01*
X171771723Y-103043214D02*
X171581247Y-102995595D01*
X171581247Y-102995595D02*
X171438390Y-102995595D01*
X171438390Y-102995595D02*
X171247914Y-103043214D01*
X171247914Y-103043214D02*
X171152676Y-103090833D01*
X171152676Y-103090833D02*
X171057438Y-103186071D01*
X171057438Y-103186071D02*
X171009819Y-103328928D01*
X171009819Y-103328928D02*
X171009819Y-103424166D01*
X171009819Y-103424166D02*
X171057438Y-103567023D01*
X171057438Y-103567023D02*
X171105057Y-103614642D01*
X171343152Y-104471785D02*
X172009819Y-104471785D01*
X170962200Y-104233690D02*
X171676485Y-103995595D01*
X171676485Y-103995595D02*
X171676485Y-104614642D01*
X171105057Y-104947976D02*
X171057438Y-104995595D01*
X171057438Y-104995595D02*
X171009819Y-105090833D01*
X171009819Y-105090833D02*
X171009819Y-105328928D01*
X171009819Y-105328928D02*
X171057438Y-105424166D01*
X171057438Y-105424166D02*
X171105057Y-105471785D01*
X171105057Y-105471785D02*
X171200295Y-105519404D01*
X171200295Y-105519404D02*
X171295533Y-105519404D01*
X171295533Y-105519404D02*
X171438390Y-105471785D01*
X171438390Y-105471785D02*
X172009819Y-104900357D01*
X172009819Y-104900357D02*
X172009819Y-105519404D01*
X174434166Y-131114819D02*
X174767499Y-130638628D01*
X175005594Y-131114819D02*
X175005594Y-130114819D01*
X175005594Y-130114819D02*
X174624642Y-130114819D01*
X174624642Y-130114819D02*
X174529404Y-130162438D01*
X174529404Y-130162438D02*
X174481785Y-130210057D01*
X174481785Y-130210057D02*
X174434166Y-130305295D01*
X174434166Y-130305295D02*
X174434166Y-130448152D01*
X174434166Y-130448152D02*
X174481785Y-130543390D01*
X174481785Y-130543390D02*
X174529404Y-130591009D01*
X174529404Y-130591009D02*
X174624642Y-130638628D01*
X174624642Y-130638628D02*
X175005594Y-130638628D01*
X174100832Y-130114819D02*
X173434166Y-130114819D01*
X173434166Y-130114819D02*
X173862737Y-131114819D01*
X204542857Y-109129819D02*
X204876190Y-108653628D01*
X205114285Y-109129819D02*
X205114285Y-108129819D01*
X205114285Y-108129819D02*
X204733333Y-108129819D01*
X204733333Y-108129819D02*
X204638095Y-108177438D01*
X204638095Y-108177438D02*
X204590476Y-108225057D01*
X204590476Y-108225057D02*
X204542857Y-108320295D01*
X204542857Y-108320295D02*
X204542857Y-108463152D01*
X204542857Y-108463152D02*
X204590476Y-108558390D01*
X204590476Y-108558390D02*
X204638095Y-108606009D01*
X204638095Y-108606009D02*
X204733333Y-108653628D01*
X204733333Y-108653628D02*
X205114285Y-108653628D01*
X203590476Y-109129819D02*
X204161904Y-109129819D01*
X203876190Y-109129819D02*
X203876190Y-108129819D01*
X203876190Y-108129819D02*
X203971428Y-108272676D01*
X203971428Y-108272676D02*
X204066666Y-108367914D01*
X204066666Y-108367914D02*
X204161904Y-108415533D01*
X203257142Y-108129819D02*
X202638095Y-108129819D01*
X202638095Y-108129819D02*
X202971428Y-108510771D01*
X202971428Y-108510771D02*
X202828571Y-108510771D01*
X202828571Y-108510771D02*
X202733333Y-108558390D01*
X202733333Y-108558390D02*
X202685714Y-108606009D01*
X202685714Y-108606009D02*
X202638095Y-108701247D01*
X202638095Y-108701247D02*
X202638095Y-108939342D01*
X202638095Y-108939342D02*
X202685714Y-109034580D01*
X202685714Y-109034580D02*
X202733333Y-109082200D01*
X202733333Y-109082200D02*
X202828571Y-109129819D01*
X202828571Y-109129819D02*
X203114285Y-109129819D01*
X203114285Y-109129819D02*
X203209523Y-109082200D01*
X203209523Y-109082200D02*
X203257142Y-109034580D01*
X205082857Y-123979819D02*
X205416190Y-123503628D01*
X205654285Y-123979819D02*
X205654285Y-122979819D01*
X205654285Y-122979819D02*
X205273333Y-122979819D01*
X205273333Y-122979819D02*
X205178095Y-123027438D01*
X205178095Y-123027438D02*
X205130476Y-123075057D01*
X205130476Y-123075057D02*
X205082857Y-123170295D01*
X205082857Y-123170295D02*
X205082857Y-123313152D01*
X205082857Y-123313152D02*
X205130476Y-123408390D01*
X205130476Y-123408390D02*
X205178095Y-123456009D01*
X205178095Y-123456009D02*
X205273333Y-123503628D01*
X205273333Y-123503628D02*
X205654285Y-123503628D01*
X204130476Y-123979819D02*
X204701904Y-123979819D01*
X204416190Y-123979819D02*
X204416190Y-122979819D01*
X204416190Y-122979819D02*
X204511428Y-123122676D01*
X204511428Y-123122676D02*
X204606666Y-123217914D01*
X204606666Y-123217914D02*
X204701904Y-123265533D01*
X203273333Y-123313152D02*
X203273333Y-123979819D01*
X203511428Y-122932200D02*
X203749523Y-123646485D01*
X203749523Y-123646485D02*
X203130476Y-123646485D01*
X182235180Y-116954523D02*
X181520895Y-116954523D01*
X181520895Y-116954523D02*
X181378038Y-117002142D01*
X181378038Y-117002142D02*
X181282800Y-117097380D01*
X181282800Y-117097380D02*
X181235180Y-117240237D01*
X181235180Y-117240237D02*
X181235180Y-117335475D01*
X181235180Y-115954523D02*
X181235180Y-116525951D01*
X181235180Y-116240237D02*
X182235180Y-116240237D01*
X182235180Y-116240237D02*
X182092323Y-116335475D01*
X182092323Y-116335475D02*
X181997085Y-116430713D01*
X181997085Y-116430713D02*
X181949466Y-116525951D01*
X182235180Y-115335475D02*
X182235180Y-115240237D01*
X182235180Y-115240237D02*
X182187561Y-115144999D01*
X182187561Y-115144999D02*
X182139942Y-115097380D01*
X182139942Y-115097380D02*
X182044704Y-115049761D01*
X182044704Y-115049761D02*
X181854228Y-115002142D01*
X181854228Y-115002142D02*
X181616133Y-115002142D01*
X181616133Y-115002142D02*
X181425657Y-115049761D01*
X181425657Y-115049761D02*
X181330419Y-115097380D01*
X181330419Y-115097380D02*
X181282800Y-115144999D01*
X181282800Y-115144999D02*
X181235180Y-115240237D01*
X181235180Y-115240237D02*
X181235180Y-115335475D01*
X181235180Y-115335475D02*
X181282800Y-115430713D01*
X181282800Y-115430713D02*
X181330419Y-115478332D01*
X181330419Y-115478332D02*
X181425657Y-115525951D01*
X181425657Y-115525951D02*
X181616133Y-115573570D01*
X181616133Y-115573570D02*
X181854228Y-115573570D01*
X181854228Y-115573570D02*
X182044704Y-115525951D01*
X182044704Y-115525951D02*
X182139942Y-115478332D01*
X182139942Y-115478332D02*
X182187561Y-115430713D01*
X182187561Y-115430713D02*
X182235180Y-115335475D01*
X204302857Y-119149819D02*
X204636190Y-118673628D01*
X204874285Y-119149819D02*
X204874285Y-118149819D01*
X204874285Y-118149819D02*
X204493333Y-118149819D01*
X204493333Y-118149819D02*
X204398095Y-118197438D01*
X204398095Y-118197438D02*
X204350476Y-118245057D01*
X204350476Y-118245057D02*
X204302857Y-118340295D01*
X204302857Y-118340295D02*
X204302857Y-118483152D01*
X204302857Y-118483152D02*
X204350476Y-118578390D01*
X204350476Y-118578390D02*
X204398095Y-118626009D01*
X204398095Y-118626009D02*
X204493333Y-118673628D01*
X204493333Y-118673628D02*
X204874285Y-118673628D01*
X203350476Y-119149819D02*
X203921904Y-119149819D01*
X203636190Y-119149819D02*
X203636190Y-118149819D01*
X203636190Y-118149819D02*
X203731428Y-118292676D01*
X203731428Y-118292676D02*
X203826666Y-118387914D01*
X203826666Y-118387914D02*
X203921904Y-118435533D01*
X202398095Y-119149819D02*
X202969523Y-119149819D01*
X202683809Y-119149819D02*
X202683809Y-118149819D01*
X202683809Y-118149819D02*
X202779047Y-118292676D01*
X202779047Y-118292676D02*
X202874285Y-118387914D01*
X202874285Y-118387914D02*
X202969523Y-118435533D01*
X204972857Y-116754580D02*
X205020476Y-116802200D01*
X205020476Y-116802200D02*
X205163333Y-116849819D01*
X205163333Y-116849819D02*
X205258571Y-116849819D01*
X205258571Y-116849819D02*
X205401428Y-116802200D01*
X205401428Y-116802200D02*
X205496666Y-116706961D01*
X205496666Y-116706961D02*
X205544285Y-116611723D01*
X205544285Y-116611723D02*
X205591904Y-116421247D01*
X205591904Y-116421247D02*
X205591904Y-116278390D01*
X205591904Y-116278390D02*
X205544285Y-116087914D01*
X205544285Y-116087914D02*
X205496666Y-115992676D01*
X205496666Y-115992676D02*
X205401428Y-115897438D01*
X205401428Y-115897438D02*
X205258571Y-115849819D01*
X205258571Y-115849819D02*
X205163333Y-115849819D01*
X205163333Y-115849819D02*
X205020476Y-115897438D01*
X205020476Y-115897438D02*
X204972857Y-115945057D01*
X204115714Y-116183152D02*
X204115714Y-116849819D01*
X204353809Y-115802200D02*
X204591904Y-116516485D01*
X204591904Y-116516485D02*
X203972857Y-116516485D01*
X203068095Y-116849819D02*
X203639523Y-116849819D01*
X203353809Y-116849819D02*
X203353809Y-115849819D01*
X203353809Y-115849819D02*
X203449047Y-115992676D01*
X203449047Y-115992676D02*
X203544285Y-116087914D01*
X203544285Y-116087914D02*
X203639523Y-116135533D01*
X204572857Y-111429819D02*
X204906190Y-110953628D01*
X205144285Y-111429819D02*
X205144285Y-110429819D01*
X205144285Y-110429819D02*
X204763333Y-110429819D01*
X204763333Y-110429819D02*
X204668095Y-110477438D01*
X204668095Y-110477438D02*
X204620476Y-110525057D01*
X204620476Y-110525057D02*
X204572857Y-110620295D01*
X204572857Y-110620295D02*
X204572857Y-110763152D01*
X204572857Y-110763152D02*
X204620476Y-110858390D01*
X204620476Y-110858390D02*
X204668095Y-110906009D01*
X204668095Y-110906009D02*
X204763333Y-110953628D01*
X204763333Y-110953628D02*
X205144285Y-110953628D01*
X203620476Y-111429819D02*
X204191904Y-111429819D01*
X203906190Y-111429819D02*
X203906190Y-110429819D01*
X203906190Y-110429819D02*
X204001428Y-110572676D01*
X204001428Y-110572676D02*
X204096666Y-110667914D01*
X204096666Y-110667914D02*
X204191904Y-110715533D01*
X203239523Y-110525057D02*
X203191904Y-110477438D01*
X203191904Y-110477438D02*
X203096666Y-110429819D01*
X203096666Y-110429819D02*
X202858571Y-110429819D01*
X202858571Y-110429819D02*
X202763333Y-110477438D01*
X202763333Y-110477438D02*
X202715714Y-110525057D01*
X202715714Y-110525057D02*
X202668095Y-110620295D01*
X202668095Y-110620295D02*
X202668095Y-110715533D01*
X202668095Y-110715533D02*
X202715714Y-110858390D01*
X202715714Y-110858390D02*
X203287142Y-111429819D01*
X203287142Y-111429819D02*
X202668095Y-111429819D01*
X169739580Y-103509642D02*
X169787200Y-103462023D01*
X169787200Y-103462023D02*
X169834819Y-103319166D01*
X169834819Y-103319166D02*
X169834819Y-103223928D01*
X169834819Y-103223928D02*
X169787200Y-103081071D01*
X169787200Y-103081071D02*
X169691961Y-102985833D01*
X169691961Y-102985833D02*
X169596723Y-102938214D01*
X169596723Y-102938214D02*
X169406247Y-102890595D01*
X169406247Y-102890595D02*
X169263390Y-102890595D01*
X169263390Y-102890595D02*
X169072914Y-102938214D01*
X169072914Y-102938214D02*
X168977676Y-102985833D01*
X168977676Y-102985833D02*
X168882438Y-103081071D01*
X168882438Y-103081071D02*
X168834819Y-103223928D01*
X168834819Y-103223928D02*
X168834819Y-103319166D01*
X168834819Y-103319166D02*
X168882438Y-103462023D01*
X168882438Y-103462023D02*
X168930057Y-103509642D01*
X169168152Y-104366785D02*
X169834819Y-104366785D01*
X168787200Y-104128690D02*
X169501485Y-103890595D01*
X169501485Y-103890595D02*
X169501485Y-104509642D01*
X168834819Y-104795357D02*
X168834819Y-105414404D01*
X168834819Y-105414404D02*
X169215771Y-105081071D01*
X169215771Y-105081071D02*
X169215771Y-105223928D01*
X169215771Y-105223928D02*
X169263390Y-105319166D01*
X169263390Y-105319166D02*
X169311009Y-105366785D01*
X169311009Y-105366785D02*
X169406247Y-105414404D01*
X169406247Y-105414404D02*
X169644342Y-105414404D01*
X169644342Y-105414404D02*
X169739580Y-105366785D01*
X169739580Y-105366785D02*
X169787200Y-105319166D01*
X169787200Y-105319166D02*
X169834819Y-105223928D01*
X169834819Y-105223928D02*
X169834819Y-104938214D01*
X169834819Y-104938214D02*
X169787200Y-104842976D01*
X169787200Y-104842976D02*
X169739580Y-104795357D01*
X174980357Y-125469580D02*
X175027976Y-125517200D01*
X175027976Y-125517200D02*
X175170833Y-125564819D01*
X175170833Y-125564819D02*
X175266071Y-125564819D01*
X175266071Y-125564819D02*
X175408928Y-125517200D01*
X175408928Y-125517200D02*
X175504166Y-125421961D01*
X175504166Y-125421961D02*
X175551785Y-125326723D01*
X175551785Y-125326723D02*
X175599404Y-125136247D01*
X175599404Y-125136247D02*
X175599404Y-124993390D01*
X175599404Y-124993390D02*
X175551785Y-124802914D01*
X175551785Y-124802914D02*
X175504166Y-124707676D01*
X175504166Y-124707676D02*
X175408928Y-124612438D01*
X175408928Y-124612438D02*
X175266071Y-124564819D01*
X175266071Y-124564819D02*
X175170833Y-124564819D01*
X175170833Y-124564819D02*
X175027976Y-124612438D01*
X175027976Y-124612438D02*
X174980357Y-124660057D01*
X174027976Y-125564819D02*
X174599404Y-125564819D01*
X174313690Y-125564819D02*
X174313690Y-124564819D01*
X174313690Y-124564819D02*
X174408928Y-124707676D01*
X174408928Y-124707676D02*
X174504166Y-124802914D01*
X174504166Y-124802914D02*
X174599404Y-124850533D01*
X173170833Y-124564819D02*
X173361309Y-124564819D01*
X173361309Y-124564819D02*
X173456547Y-124612438D01*
X173456547Y-124612438D02*
X173504166Y-124660057D01*
X173504166Y-124660057D02*
X173599404Y-124802914D01*
X173599404Y-124802914D02*
X173647023Y-124993390D01*
X173647023Y-124993390D02*
X173647023Y-125374342D01*
X173647023Y-125374342D02*
X173599404Y-125469580D01*
X173599404Y-125469580D02*
X173551785Y-125517200D01*
X173551785Y-125517200D02*
X173456547Y-125564819D01*
X173456547Y-125564819D02*
X173266071Y-125564819D01*
X173266071Y-125564819D02*
X173170833Y-125517200D01*
X173170833Y-125517200D02*
X173123214Y-125469580D01*
X173123214Y-125469580D02*
X173075595Y-125374342D01*
X173075595Y-125374342D02*
X173075595Y-125136247D01*
X173075595Y-125136247D02*
X173123214Y-125041009D01*
X173123214Y-125041009D02*
X173170833Y-124993390D01*
X173170833Y-124993390D02*
X173266071Y-124945771D01*
X173266071Y-124945771D02*
X173456547Y-124945771D01*
X173456547Y-124945771D02*
X173551785Y-124993390D01*
X173551785Y-124993390D02*
X173599404Y-125041009D01*
X173599404Y-125041009D02*
X173647023Y-125136247D01*
%TO.C,C40*%
D12*
X200188748Y-112850000D02*
X200711252Y-112850000D01*
X200188748Y-114320000D02*
X200711252Y-114320000D01*
%TO.C,R15*%
X200677064Y-120425000D02*
X200222936Y-120425000D01*
X200677064Y-121895000D02*
X200222936Y-121895000D01*
%TO.C,C42*%
X170845000Y-107853752D02*
X170845000Y-107331248D01*
X172315000Y-107853752D02*
X172315000Y-107331248D01*
%TO.C,R7*%
X174072936Y-128195000D02*
X174527064Y-128195000D01*
X174072936Y-129665000D02*
X174527064Y-129665000D01*
%TO.C,R13*%
X200677064Y-107880000D02*
X200222936Y-107880000D01*
X200677064Y-109350000D02*
X200222936Y-109350000D01*
%TO.C,R14*%
X200677064Y-122910000D02*
X200222936Y-122910000D01*
X200677064Y-124380000D02*
X200222936Y-124380000D01*
%TO.C,J10*%
X182880000Y-122630000D02*
X182880000Y-108810000D01*
X185380000Y-108810000D02*
X182880000Y-108810000D01*
X185380000Y-122630000D02*
X182880000Y-122630000D01*
X187900000Y-122630000D02*
X193680000Y-122630000D01*
X193680000Y-108810000D02*
X187900000Y-108810000D01*
X197600000Y-108810000D02*
X196200000Y-108810000D01*
X197600000Y-122630000D02*
X196200000Y-122630000D01*
X197600000Y-122630000D02*
X197600000Y-108810000D01*
%TO.C,R11*%
X200647064Y-117910000D02*
X200192936Y-117910000D01*
X200647064Y-119380000D02*
X200192936Y-119380000D01*
%TO.C,C41*%
X200681252Y-115365000D02*
X200158748Y-115365000D01*
X200681252Y-116835000D02*
X200158748Y-116835000D01*
%TO.C,R12*%
X200677064Y-110365000D02*
X200222936Y-110365000D01*
X200677064Y-111835000D02*
X200222936Y-111835000D01*
%TO.C,C43*%
X168655000Y-107831252D02*
X168655000Y-107308748D01*
X170125000Y-107831252D02*
X170125000Y-107308748D01*
%TO.C,C16*%
X174068748Y-126125000D02*
X174591252Y-126125000D01*
X174068748Y-127595000D02*
X174591252Y-127595000D01*
%TD*%
M02*
