%TF.GenerationSoftware,KiCad,Pcbnew,10.0.5*%
%TF.CreationDate,2026-09-20T20:44:41+07:00*%
%TF.ProjectId,Stm32f723zet6,53746d33-3266-4373-9233-7a6574362e6b,rev?*%
%TF.SameCoordinates,Original*%
%TF.FileFunction,Soldermask,Bot*%
%TF.FilePolarity,Negative*%
%FSLAX46Y46*%
G04 Gerber Fmt 4.6, Leading zero omitted, Abs format (unit mm)*
G04 Created by KiCad (PCBNEW 10.0.5) date 2026-09-20 20:44:41*
%MOMM*%
%LPD*%
G01*
G04 APERTURE LIST*
G04 Aperture macros list*
%AMRoundRect*
0 Rectangle with rounded corners*
0 $1 Rounding radius*
0 $2 $3 $4 $5 $6 $7 $8 $9 X,Y pos of 4 corners*
0 Add a 4 corners polygon primitive as box body*
4,1,4,$2,$3,$4,$5,$6,$7,$8,$9,$2,$3,0*
0 Add four circle primitives for the rounded corners*
1,1,$1+$1,$2,$3*
1,1,$1+$1,$4,$5*
1,1,$1+$1,$6,$7*
1,1,$1+$1,$8,$9*
0 Add four rect primitives between the rounded corners*
20,1,$1+$1,$2,$3,$4,$5,0*
20,1,$1+$1,$4,$5,$6,$7,0*
20,1,$1+$1,$6,$7,$8,$9,0*
20,1,$1+$1,$8,$9,$2,$3,0*%
G04 Aperture macros list end*
%ADD10R,1.700000X1.700000*%
%ADD11C,1.700000*%
%ADD12C,3.200000*%
%ADD13RoundRect,0.250001X0.949999X-0.949999X0.949999X0.949999X-0.949999X0.949999X-0.949999X-0.949999X0*%
%ADD14C,2.400000*%
%ADD15RoundRect,0.250001X0.949999X0.949999X-0.949999X0.949999X-0.949999X-0.949999X0.949999X-0.949999X0*%
%ADD16RoundRect,0.250000X1.050000X1.050000X-1.050000X1.050000X-1.050000X-1.050000X1.050000X-1.050000X0*%
%ADD17C,2.600000*%
%ADD18C,0.600000*%
%ADD19O,2.100000X1.000000*%
%ADD20O,1.800000X1.000000*%
%ADD21RoundRect,0.250000X-0.337500X-0.475000X0.337500X-0.475000X0.337500X0.475000X-0.337500X0.475000X0*%
%ADD22RoundRect,0.250000X0.350000X0.450000X-0.350000X0.450000X-0.350000X-0.450000X0.350000X-0.450000X0*%
%ADD23RoundRect,0.250000X0.475000X-0.337500X0.475000X0.337500X-0.475000X0.337500X-0.475000X-0.337500X0*%
%ADD24RoundRect,0.250000X-0.350000X-0.450000X0.350000X-0.450000X0.350000X0.450000X-0.350000X0.450000X0*%
%ADD25R,1.500000X0.800000*%
%ADD26RoundRect,0.362500X0.637500X-0.362500X0.637500X0.362500X-0.637500X0.362500X-0.637500X-0.362500X0*%
%ADD27RoundRect,0.250000X0.337500X0.475000X-0.337500X0.475000X-0.337500X-0.475000X0.337500X-0.475000X0*%
G04 APERTURE END LIST*
D10*
%TO.C,J2*%
X130640000Y-144750000D03*
D11*
X133180000Y-144750000D03*
X135720000Y-144750000D03*
X138260000Y-144750000D03*
X140800000Y-144750000D03*
X143340000Y-144750000D03*
X145880000Y-144750000D03*
X148420000Y-144750000D03*
X150960000Y-144750000D03*
X153500000Y-144750000D03*
X156040000Y-144750000D03*
X158580000Y-144750000D03*
X161120000Y-144750000D03*
X163660000Y-144750000D03*
X166200000Y-144750000D03*
X168740000Y-144750000D03*
X171280000Y-144750000D03*
X173820000Y-144750000D03*
X176360000Y-144750000D03*
X178900000Y-144750000D03*
X181440000Y-144750000D03*
X183980000Y-144750000D03*
X186520000Y-144750000D03*
X189060000Y-144750000D03*
X191600000Y-144750000D03*
X194140000Y-144750000D03*
X196680000Y-144750000D03*
X199220000Y-144750000D03*
X201760000Y-144750000D03*
X204300000Y-144750000D03*
%TD*%
D12*
%TO.C,REF\u002A\u002A1*%
X211020000Y-80980000D03*
%TD*%
D10*
%TO.C,J5*%
X188850000Y-79660000D03*
D11*
X191390000Y-79660000D03*
X193930000Y-79660000D03*
X196470000Y-79660000D03*
%TD*%
D13*
%TO.C,J9*%
X211880000Y-115270000D03*
D14*
X211880000Y-111770000D03*
X211880000Y-108270000D03*
%TD*%
D10*
%TO.C,J6*%
X212700000Y-88370000D03*
D11*
X212700000Y-90910000D03*
X212700000Y-93450000D03*
X212700000Y-95990000D03*
%TD*%
D15*
%TO.C,J3*%
X136917500Y-79830000D03*
D14*
X133417500Y-79830000D03*
%TD*%
D16*
%TO.C,J1*%
X125697500Y-79930000D03*
D17*
X120617500Y-79930000D03*
%TD*%
D12*
%TO.C,REF\u002A\u002A3*%
X211070000Y-143070000D03*
%TD*%
D18*
%TO.C,J4*%
X209495000Y-131700000D03*
X209495000Y-125920000D03*
D19*
X208995000Y-133130000D03*
D20*
X213175000Y-133130000D03*
D19*
X208995000Y-124490000D03*
D20*
X213175000Y-124490000D03*
%TD*%
D12*
%TO.C,REF\u002A\u002A*%
X112950000Y-81020000D03*
%TD*%
D10*
%TO.C,J7*%
X212730000Y-101325000D03*
D11*
X212730000Y-103865000D03*
%TD*%
D12*
%TO.C,REF\u002A\u002A2*%
X113060000Y-143090000D03*
%TD*%
D10*
%TO.C,J8*%
X143840000Y-79630000D03*
D11*
X146380000Y-79630000D03*
X148920000Y-79630000D03*
X151460000Y-79630000D03*
%TD*%
D21*
%TO.C,C40*%
X199412500Y-113585000D03*
X201487500Y-113585000D03*
%TD*%
D22*
%TO.C,R15*%
X201450000Y-121160000D03*
X199450000Y-121160000D03*
%TD*%
D23*
%TO.C,C42*%
X171580000Y-108630000D03*
X171580000Y-106555000D03*
%TD*%
D24*
%TO.C,R7*%
X173300000Y-128930000D03*
X175300000Y-128930000D03*
%TD*%
D22*
%TO.C,R13*%
X201450000Y-108615000D03*
X199450000Y-108615000D03*
%TD*%
%TO.C,R14*%
X201450000Y-123645000D03*
X199450000Y-123645000D03*
%TD*%
D25*
%TO.C,J10*%
X192340000Y-118925000D03*
X192340000Y-117825000D03*
X192340000Y-116725000D03*
X192340000Y-115625000D03*
X192340000Y-114525000D03*
X192340000Y-113425000D03*
X192340000Y-112325000D03*
X192340000Y-111225000D03*
D26*
X186640000Y-122595000D03*
X194940000Y-122595000D03*
X186640000Y-108845000D03*
X194940000Y-108845000D03*
%TD*%
D22*
%TO.C,R11*%
X201420000Y-118645000D03*
X199420000Y-118645000D03*
%TD*%
D27*
%TO.C,C41*%
X201457500Y-116100000D03*
X199382500Y-116100000D03*
%TD*%
D22*
%TO.C,R12*%
X201450000Y-111100000D03*
X199450000Y-111100000D03*
%TD*%
D23*
%TO.C,C43*%
X169390000Y-108607500D03*
X169390000Y-106532500D03*
%TD*%
D21*
%TO.C,C16*%
X173292500Y-126860000D03*
X175367500Y-126860000D03*
%TD*%
M02*
