M48
; DRILL file KiCad 10.0.5 date 2026-09-20T20:44:50
; FORMAT={-:-/ absolute / metric / decimal}
; #@! TF.CreationDate,2026-09-20T20:44:50+07:00
; #@! TF.GenerationSoftware,Kicad,Pcbnew,10.0.5
; #@! TF.FileFunction,Plated,1,2,PTH
FMAT,2
METRIC
; #@! TA.AperFunction,Plated,PTH,ComponentDrill
T1C0.200
; #@! TA.AperFunction,Plated,PTH,ViaDrill
T2C0.300
; #@! TA.AperFunction,Plated,PTH,ComponentDrill
T3C0.600
; #@! TA.AperFunction,Plated,PTH,ComponentDrill
T4C1.000
; #@! TA.AperFunction,Plated,PTH,ComponentDrill
T5C1.200
; #@! TA.AperFunction,Plated,PTH,ComponentDrill
T6C1.300
%
G90
G05
T1
X172.17Y-85.66
X172.17Y-87.06
X172.87Y-84.96
X172.87Y-86.36
X172.87Y-87.76
X173.545Y-85.66
X173.545Y-87.06
X174.27Y-84.96
X174.27Y-86.36
X174.27Y-87.76
X174.97Y-85.66
X174.97Y-87.06
T2
X111.12Y-86.16
X111.12Y-87.36
X111.12Y-88.56
X111.63Y-102.33
X111.63Y-103.13
X111.63Y-103.93
X111.94Y-86.16
X111.94Y-87.36
X111.94Y-88.56
X111.96Y-109.67
X111.98Y-108.66
X112.73Y-102.33
X112.73Y-103.13
X112.73Y-103.93
X112.75Y-86.16
X112.75Y-87.36
X112.75Y-88.56
X113.83Y-102.33
X113.83Y-103.13
X113.83Y-103.93
X114.93Y-102.33
X114.93Y-103.13
X114.93Y-103.93
X115.61Y-124.12
X115.61Y-124.82
X122.93Y-123.48
X123.78Y-113.69
X125.71Y-92.02
X125.71Y-92.82
X125.71Y-93.62
X126.81Y-92.02
X126.81Y-92.82
X126.81Y-93.62
X126.85Y-106.48
X127.91Y-92.02
X127.91Y-92.82
X127.91Y-93.62
X129.01Y-92.02
X129.01Y-92.82
X129.01Y-93.62
X129.56Y-130.42
X130.58Y-110.17
X130.6Y-112.72
X130.63Y-108.89
X130.63Y-111.43
X131.91Y-104.34
X131.94Y-103.4
X132.02Y-118.33
X132.61Y-101.25
X133.72Y-115.74
X135.81Y-112.87
X138.45Y-95.77
X140.13Y-112.84
X141.8Y-101.2
X142.34Y-85.12
X143.87Y-129.56
X143.87Y-132.308
X144.79Y-105.71
X146.37Y-116.28
X146.51Y-134.36
X148.254Y-133.075
X148.94Y-116.03
X149.0Y-135.35
X149.001Y-134.501
X149.01Y-133.675
X150.56Y-130.48
X150.9Y-84.67
X151.34Y-135.8
X152.22Y-130.97
X152.27Y-105.71
X152.91Y-116.97
X154.103Y-131.058
X154.15Y-105.71
X154.6Y-121.646
X154.746Y-120.86
X154.86Y-125.56
X155.34Y-111.84
X155.642Y-131.402
X155.66Y-129.12
X155.94Y-92.22
X156.461Y-131.901
X157.08Y-133.04
X157.58Y-105.71
X158.14Y-133.24
X158.68Y-128.01
X158.78Y-120.34
X159.21Y-130.38
X160.14Y-84.67
X160.44Y-131.02
X160.555Y-134.531
X161.1Y-135.27
X162.93Y-105.71
X163.69Y-139.8
X164.49Y-101.06
X164.81Y-130.49
X165.41Y-138.45
X165.472Y-130.042
X166.18Y-112.75
X166.579Y-129.882
X166.86Y-139.7
X167.59Y-129.94
X167.7Y-105.71
X169.98Y-130.94
X170.47Y-109.78
X170.77Y-130.45
X171.29Y-112.75
X171.766Y-130.416
X172.02Y-138.4
X172.67Y-139.02
X173.44Y-130.68
X173.94Y-138.4
X174.335Y-114.5
X174.335Y-116.64
X174.835Y-117.83
X176.25Y-119.14
X176.5Y-120.4
X176.71Y-113.9
X176.757Y-112.718
X176.83Y-129.58
X176.92Y-128.39
X178.32Y-133.77
X178.35Y-105.71
X178.35Y-108.08
X180.99Y-101.5
X181.95Y-109.71
X182.56Y-110.55
X182.83Y-132.18
X183.162Y-134.73
X186.01Y-120.67
X186.06Y-118.51
X186.62Y-105.71
X190.37Y-113.4
X193.31Y-87.96
X193.47Y-125.22
X193.93Y-105.73
X195.96Y-83.5
X197.05Y-109.87
X199.27Y-102.37
X204.18Y-112.44
X204.32Y-115.875
X206.03Y-99.0
X208.42Y-125.61
X208.42Y-132.01
T4
X130.64Y-144.75
X133.18Y-144.75
X135.72Y-144.75
X138.26Y-144.75
X140.8Y-144.75
X143.34Y-144.75
X143.84Y-79.63
X145.88Y-144.75
X146.38Y-79.63
X148.42Y-144.75
X148.92Y-79.63
X150.96Y-144.75
X151.46Y-79.63
X153.5Y-144.75
X156.04Y-144.75
X158.58Y-144.75
X161.12Y-144.75
X163.66Y-144.75
X166.2Y-144.75
X168.74Y-144.75
X171.28Y-144.75
X173.82Y-144.75
X176.36Y-144.75
X178.9Y-144.75
X181.44Y-144.75
X183.98Y-144.75
X186.52Y-144.75
X188.85Y-79.66
X189.06Y-144.75
X191.39Y-79.66
X191.6Y-144.75
X193.93Y-79.66
X194.14Y-144.75
X196.47Y-79.66
X196.68Y-144.75
X199.22Y-144.75
X201.76Y-144.75
X204.3Y-144.75
X212.7Y-88.37
X212.7Y-90.91
X212.7Y-93.45
X212.7Y-95.99
X212.73Y-101.325
X212.73Y-103.865
T5
X133.417Y-79.83
X136.917Y-79.83
X211.88Y-108.27
X211.88Y-111.77
X211.88Y-115.27
T6
X120.617Y-79.93
X125.697Y-79.93
T3
G00X208.445Y-124.49
M15
G01X209.545Y-124.49
M16
G05
G00X208.445Y-133.13
M15
G01X209.545Y-133.13
M16
G05
G00X212.775Y-124.49
M15
G01X213.575Y-124.49
M16
G05
G00X212.775Y-133.13
M15
G01X213.575Y-133.13
M16
G05
M30
