%TF.GenerationSoftware,KiCad,Pcbnew,10.0.6-10.0.6~ubuntu24.04.1*%
%TF.CreationDate,2026-09-06T22:30:28+07:00*%
%TF.ProjectId,Stm32f072,53746d33-3266-4303-9732-2e6b69636164,rev?*%
%TF.SameCoordinates,Original*%
%TF.FileFunction,Copper,L1,Top*%
%TF.FilePolarity,Positive*%
%FSLAX46Y46*%
G04 Gerber Fmt 4.6, Leading zero omitted, Abs format (unit mm)*
G04 Created by KiCad (PCBNEW 10.0.6-10.0.6~ubuntu24.04.1) date 2026-09-06 22:30:28*
%MOMM*%
%LPD*%
G01*
G04 APERTURE LIST*
G04 Aperture macros list*
%AMRoundRect*
0 Rectangle with rounded corners*
0 $1 Rounding radius*
0 $2 $3 $4 $5 $6 $7 $8 $9 X,Y pos of 4 corners*
0 Add a 4 corners polygon primitive as box body*
4,1,4,$2,$3,$4,$5,$6,$7,$8,$9,$2,$3,0*
0 Add four circle primitives for the rounded corners*
1,1,$1+$1,$2,$3*
1,1,$1+$1,$4,$5*
1,1,$1+$1,$6,$7*
1,1,$1+$1,$8,$9*
0 Add four rect primitives between the rounded corners*
20,1,$1+$1,$2,$3,$4,$5,0*
20,1,$1+$1,$4,$5,$6,$7,0*
20,1,$1+$1,$6,$7,$8,$9,0*
20,1,$1+$1,$8,$9,$2,$3,0*%
G04 Aperture macros list end*
%TA.AperFunction,SMDPad,CuDef*%
%ADD10RoundRect,0.237500X-0.300000X-0.237500X0.300000X-0.237500X0.300000X0.237500X-0.300000X0.237500X0*%
%TD*%
%TA.AperFunction,SMDPad,CuDef*%
%ADD11RoundRect,0.237500X-0.250000X-0.237500X0.250000X-0.237500X0.250000X0.237500X-0.250000X0.237500X0*%
%TD*%
%TA.AperFunction,SMDPad,CuDef*%
%ADD12RoundRect,0.237500X0.300000X0.237500X-0.300000X0.237500X-0.300000X-0.237500X0.300000X-0.237500X0*%
%TD*%
%TA.AperFunction,SMDPad,CuDef*%
%ADD13RoundRect,0.237500X-0.237500X0.250000X-0.237500X-0.250000X0.237500X-0.250000X0.237500X0.250000X0*%
%TD*%
%TA.AperFunction,SMDPad,CuDef*%
%ADD14RoundRect,0.237500X0.250000X0.237500X-0.250000X0.237500X-0.250000X-0.237500X0.250000X-0.237500X0*%
%TD*%
%TA.AperFunction,SMDPad,CuDef*%
%ADD15R,1.000000X1.500000*%
%TD*%
%TA.AperFunction,SMDPad,CuDef*%
%ADD16RoundRect,0.250000X0.950000X-0.750000X0.950000X0.750000X-0.950000X0.750000X-0.950000X-0.750000X0*%
%TD*%
%TA.AperFunction,SMDPad,CuDef*%
%ADD17RoundRect,0.075000X-0.662500X-0.075000X0.662500X-0.075000X0.662500X0.075000X-0.662500X0.075000X0*%
%TD*%
%TA.AperFunction,SMDPad,CuDef*%
%ADD18RoundRect,0.075000X-0.075000X-0.662500X0.075000X-0.662500X0.075000X0.662500X-0.075000X0.662500X0*%
%TD*%
%TA.AperFunction,SMDPad,CuDef*%
%ADD19RoundRect,0.162500X0.617500X0.162500X-0.617500X0.162500X-0.617500X-0.162500X0.617500X-0.162500X0*%
%TD*%
%TA.AperFunction,SMDPad,CuDef*%
%ADD20RoundRect,0.250000X-0.325000X-0.450000X0.325000X-0.450000X0.325000X0.450000X-0.325000X0.450000X0*%
%TD*%
%TA.AperFunction,ComponentPad*%
%ADD21RoundRect,0.250000X-0.600000X-0.725000X0.600000X-0.725000X0.600000X0.725000X-0.600000X0.725000X0*%
%TD*%
%TA.AperFunction,ComponentPad*%
%ADD22O,1.700000X1.950000*%
%TD*%
%TA.AperFunction,SMDPad,CuDef*%
%ADD23RoundRect,0.250000X0.400000X1.450000X-0.400000X1.450000X-0.400000X-1.450000X0.400000X-1.450000X0*%
%TD*%
%TA.AperFunction,ComponentPad*%
%ADD24RoundRect,0.250000X0.725000X-0.600000X0.725000X0.600000X-0.725000X0.600000X-0.725000X-0.600000X0*%
%TD*%
%TA.AperFunction,ComponentPad*%
%ADD25O,1.950000X1.700000*%
%TD*%
%TA.AperFunction,ComponentPad*%
%ADD26RoundRect,0.760000X1.140000X1.140000X-1.140000X1.140000X-1.140000X-1.140000X1.140000X-1.140000X0*%
%TD*%
%TA.AperFunction,ComponentPad*%
%ADD27C,3.800000*%
%TD*%
%TA.AperFunction,ComponentPad*%
%ADD28RoundRect,0.190500X0.444500X0.444500X-0.444500X0.444500X-0.444500X-0.444500X0.444500X-0.444500X0*%
%TD*%
%TA.AperFunction,ComponentPad*%
%ADD29C,1.270000*%
%TD*%
%TA.AperFunction,SMDPad,CuDef*%
%ADD30RoundRect,0.250000X-0.450000X0.350000X-0.450000X-0.350000X0.450000X-0.350000X0.450000X0.350000X0*%
%TD*%
%TA.AperFunction,SMDPad,CuDef*%
%ADD31RoundRect,0.250000X1.000000X0.650000X-1.000000X0.650000X-1.000000X-0.650000X1.000000X-0.650000X0*%
%TD*%
%TA.AperFunction,SMDPad,CuDef*%
%ADD32RoundRect,0.150000X-0.825000X-0.150000X0.825000X-0.150000X0.825000X0.150000X-0.825000X0.150000X0*%
%TD*%
%TA.AperFunction,SMDPad,CuDef*%
%ADD33RoundRect,0.250000X1.500000X0.900000X-1.500000X0.900000X-1.500000X-0.900000X1.500000X-0.900000X0*%
%TD*%
%TA.AperFunction,SMDPad,CuDef*%
%ADD34RoundRect,0.237500X-0.237500X0.300000X-0.237500X-0.300000X0.237500X-0.300000X0.237500X0.300000X0*%
%TD*%
%TA.AperFunction,SMDPad,CuDef*%
%ADD35R,2.800000X0.850000*%
%TD*%
%TA.AperFunction,SMDPad,CuDef*%
%ADD36RoundRect,0.237500X0.237500X-0.300000X0.237500X0.300000X-0.237500X0.300000X-0.237500X-0.300000X0*%
%TD*%
%TA.AperFunction,SMDPad,CuDef*%
%ADD37RoundRect,0.250000X-0.550000X1.500000X-0.550000X-1.500000X0.550000X-1.500000X0.550000X1.500000X0*%
%TD*%
%TA.AperFunction,ComponentPad*%
%ADD38R,1.700000X1.700000*%
%TD*%
%TA.AperFunction,ComponentPad*%
%ADD39C,1.700000*%
%TD*%
%TA.AperFunction,ViaPad*%
%ADD40C,0.600000*%
%TD*%
%TA.AperFunction,Conductor*%
%ADD41C,2.000000*%
%TD*%
%TA.AperFunction,Conductor*%
%ADD42C,0.800000*%
%TD*%
G04 APERTURE END LIST*
D10*
%TO.P,C12,1*%
%TO.N,GND*%
X138162500Y-51200000D03*
%TO.P,C12,2*%
%TO.N,/OSC_OUT*%
X139887500Y-51200000D03*
%TD*%
D11*
%TO.P,R2,1*%
%TO.N,Net-(U1-FB)*%
X122470000Y-96800000D03*
%TO.P,R2,2*%
%TO.N,3V3*%
X124295000Y-96800000D03*
%TD*%
D12*
%TO.P,C6,1*%
%TO.N,24V*%
X111675000Y-96940000D03*
%TO.P,C6,2*%
%TO.N,GND*%
X109950000Y-96940000D03*
%TD*%
%TO.P,C4,1*%
%TO.N,3V3*%
X124227500Y-98390000D03*
%TO.P,C4,2*%
%TO.N,Net-(U1-FB)*%
X122502500Y-98390000D03*
%TD*%
D13*
%TO.P,R1,1*%
%TO.N,Net-(U1-FB)*%
X120667500Y-96825000D03*
%TO.P,R1,2*%
%TO.N,GND*%
X120667500Y-98650000D03*
%TD*%
D11*
%TO.P,R10,1*%
%TO.N,/NRST*%
X93682500Y-60340000D03*
%TO.P,R10,2*%
%TO.N,3V3*%
X95507500Y-60340000D03*
%TD*%
D12*
%TO.P,C5,1*%
%TO.N,Net-(U1-BST)*%
X116967500Y-100900000D03*
%TO.P,C5,2*%
%TO.N,Net-(D1-K)*%
X115242500Y-100900000D03*
%TD*%
D14*
%TO.P,R5,1*%
%TO.N,/BOOT0*%
X147875000Y-40310000D03*
%TO.P,R5,2*%
%TO.N,GND*%
X146050000Y-40310000D03*
%TD*%
D11*
%TO.P,R9,1*%
%TO.N,/EN*%
X93682500Y-57830000D03*
%TO.P,R9,2*%
%TO.N,3V3*%
X95507500Y-57830000D03*
%TD*%
D15*
%TO.P,JP2,1,A_1*%
%TO.N,3V3*%
X112515000Y-84920000D03*
%TO.P,JP2,2,C_2*%
%TO.N,/MS1*%
X113815000Y-84920000D03*
%TO.P,JP2,3,B_3*%
%TO.N,GND*%
X115115000Y-84920000D03*
%TD*%
D14*
%TO.P,R3,1*%
%TO.N,Net-(U1-EN)*%
X115080000Y-94650000D03*
%TO.P,R3,2*%
%TO.N,24V*%
X113255000Y-94650000D03*
%TD*%
D16*
%TO.P,Y1,1,1_1*%
%TO.N,/OSC_OUT*%
X139900000Y-49050000D03*
%TO.P,Y1,2,2_2*%
%TO.N,/OSC_IN*%
X139900000Y-45350000D03*
%TD*%
D17*
%TO.P,U4,1,VBAT_1*%
%TO.N,3V3*%
X143212500Y-44925000D03*
%TO.P,U4,2,PC13_2*%
%TO.N,/PC13*%
X143212500Y-45425000D03*
%TO.P,U4,3,PC14_3*%
%TO.N,unconnected-(U4-PC14-Pad3)*%
X143212500Y-45925000D03*
%TO.P,U4,4,PC15_4*%
%TO.N,unconnected-(U4-PC15-Pad4)*%
X143212500Y-46425000D03*
%TO.P,U4,5,PF0_5*%
%TO.N,/OSC_IN*%
X143212500Y-46925000D03*
%TO.P,U4,6,PF1_6*%
%TO.N,/OSC_OUT*%
X143212500Y-47425000D03*
%TO.P,U4,7,NRST_7*%
%TO.N,/NRST*%
X143212500Y-47925000D03*
%TO.P,U4,8,VSSA_8*%
%TO.N,GND*%
X143212500Y-48425000D03*
%TO.P,U4,9,VDDA_9*%
%TO.N,3V3*%
X143212500Y-48925000D03*
%TO.P,U4,10,PA0_10*%
%TO.N,unconnected-(U4-PA0-Pad10)*%
X143212500Y-49425000D03*
%TO.P,U4,11,PA1_11*%
%TO.N,unconnected-(U4-PA1-Pad11)*%
X143212500Y-49925000D03*
%TO.P,U4,12,PA2_12*%
%TO.N,unconnected-(U4-PA2-Pad12)*%
X143212500Y-50425000D03*
D18*
%TO.P,U4,13,PA3_13*%
%TO.N,unconnected-(U4-PA3-Pad13)*%
X144625000Y-51837500D03*
%TO.P,U4,14,PA4_14*%
%TO.N,/CS*%
X145125000Y-51837500D03*
%TO.P,U4,15,PA5_15*%
%TO.N,/CLK*%
X145625000Y-51837500D03*
%TO.P,U4,16,PA6_16*%
%TO.N,/MOSI*%
X146125000Y-51837500D03*
%TO.P,U4,17,PA7_17*%
%TO.N,/MISO*%
X146625000Y-51837500D03*
%TO.P,U4,18,PB0_18*%
%TO.N,unconnected-(U4-PB0-Pad18)*%
X147125000Y-51837500D03*
%TO.P,U4,19,PB1_19*%
%TO.N,unconnected-(U4-PB1-Pad19)*%
X147625000Y-51837500D03*
%TO.P,U4,20,PB2_20*%
%TO.N,unconnected-(U4-PB2-Pad20)*%
X148125000Y-51837500D03*
%TO.P,U4,21,PB10_21*%
%TO.N,unconnected-(U4-PB10-Pad21)*%
X148625000Y-51837500D03*
%TO.P,U4,22,PB11_22*%
%TO.N,unconnected-(U4-PB11-Pad22)*%
X149125000Y-51837500D03*
%TO.P,U4,23,VSS_23*%
%TO.N,GND*%
X149625000Y-51837500D03*
%TO.P,U4,24,VDD_24*%
%TO.N,3V3*%
X150125000Y-51837500D03*
D17*
%TO.P,U4,25,PB12_25*%
%TO.N,/EN*%
X151537500Y-50425000D03*
%TO.P,U4,26,PB13_26*%
%TO.N,/PB13*%
X151537500Y-49925000D03*
%TO.P,U4,27,PB14_27*%
%TO.N,/DIR*%
X151537500Y-49425000D03*
%TO.P,U4,28,PB15_28*%
%TO.N,unconnected-(U4-PB15-Pad28)*%
X151537500Y-48925000D03*
%TO.P,U4,29,PA8_29*%
%TO.N,unconnected-(U4-PA8-Pad29)*%
X151537500Y-48425000D03*
%TO.P,U4,30,PA9_30*%
%TO.N,/PA9*%
X151537500Y-47925000D03*
%TO.P,U4,31,PA10_31*%
%TO.N,unconnected-(U4-PA10-Pad31)*%
X151537500Y-47425000D03*
%TO.P,U4,32,PA11_32*%
%TO.N,/CAN_TX*%
X151537500Y-46925000D03*
%TO.P,U4,33,PA12_33*%
%TO.N,/CAN_RX*%
X151537500Y-46425000D03*
%TO.P,U4,34,PA13_34*%
%TO.N,/SWDIO*%
X151537500Y-45925000D03*
%TO.P,U4,35,VSS_35*%
%TO.N,GND*%
X151537500Y-45425000D03*
%TO.P,U4,36,VDDIO2_36*%
%TO.N,3V3*%
X151537500Y-44925000D03*
D18*
%TO.P,U4,37,PA14_37*%
%TO.N,/SWCLK*%
X150125000Y-43512500D03*
%TO.P,U4,38,PA15_38*%
%TO.N,unconnected-(U4-PA15-Pad38)*%
X149625000Y-43512500D03*
%TO.P,U4,39,PB3_39*%
%TO.N,unconnected-(U4-PB3-Pad39)*%
X149125000Y-43512500D03*
%TO.P,U4,40,PB4_40*%
%TO.N,unconnected-(U4-PB4-Pad40)*%
X148625000Y-43512500D03*
%TO.P,U4,41,PB5_41*%
%TO.N,unconnected-(U4-PB5-Pad41)*%
X148125000Y-43512500D03*
%TO.P,U4,42,PB6_42*%
%TO.N,unconnected-(U4-PB6-Pad42)*%
X147625000Y-43512500D03*
%TO.P,U4,43,PB7_43*%
%TO.N,unconnected-(U4-PB7-Pad43)*%
X147125000Y-43512500D03*
%TO.P,U4,44,BOOT0_44*%
%TO.N,/BOOT0*%
X146625000Y-43512500D03*
%TO.P,U4,45,PB8_45*%
%TO.N,unconnected-(U4-PB8-Pad45)*%
X146125000Y-43512500D03*
%TO.P,U4,46,PB9_46*%
%TO.N,unconnected-(U4-PB9-Pad46)*%
X145625000Y-43512500D03*
%TO.P,U4,47,VSS_47*%
%TO.N,GND*%
X145125000Y-43512500D03*
%TO.P,U4,48,VDD_48*%
%TO.N,3V3*%
X144625000Y-43512500D03*
%TD*%
D19*
%TO.P,U1,1,BST_1*%
%TO.N,Net-(U1-BST)*%
X118415000Y-98710000D03*
%TO.P,U1,2,GND_2*%
%TO.N,GND*%
X118415000Y-97760000D03*
%TO.P,U1,3,FB_3*%
%TO.N,Net-(U1-FB)*%
X118415000Y-96810000D03*
%TO.P,U1,4,EN_4*%
%TO.N,Net-(U1-EN)*%
X115715000Y-96810000D03*
%TO.P,U1,5,VIN_5*%
%TO.N,24V*%
X115715000Y-97760000D03*
%TO.P,U1,6,SW_6*%
%TO.N,Net-(D1-K)*%
X115715000Y-98710000D03*
%TD*%
D20*
%TO.P,D3,1,K_1*%
%TO.N,Net-(D3-K)*%
X138642500Y-40520000D03*
%TO.P,D3,2,A_2*%
%TO.N,3V3*%
X140692500Y-40520000D03*
%TD*%
D21*
%TO.P,CAN1,1,Pin_1_1*%
%TO.N,GND*%
X90125000Y-48370000D03*
D22*
%TO.P,CAN1,2,Pin_2_2*%
%TO.N,/CANL*%
X92625000Y-48370000D03*
%TO.P,CAN1,3,Pin_3_3*%
%TO.N,/CANH*%
X95125000Y-48370000D03*
%TO.P,CAN1,4,Pin_4_4*%
%TO.N,GND*%
X97625000Y-48370000D03*
%TD*%
D10*
%TO.P,C11,1*%
%TO.N,GND*%
X138212500Y-43225000D03*
%TO.P,C11,2*%
%TO.N,/OSC_IN*%
X139937500Y-43225000D03*
%TD*%
D23*
%TO.P,PTC1,1*%
%TO.N,Net-(24VIN1-Pin_1)*%
X162125000Y-72050000D03*
%TO.P,PTC1,2*%
%TO.N,24V*%
X157675000Y-72050000D03*
%TD*%
D21*
%TO.P,CAN2,1,Pin_1_1*%
%TO.N,GND*%
X104725000Y-48550000D03*
D22*
%TO.P,CAN2,2,Pin_2_2*%
%TO.N,/CANL*%
X107225000Y-48550000D03*
%TO.P,CAN2,3,Pin_3_3*%
%TO.N,/CANH*%
X109725000Y-48550000D03*
%TO.P,CAN2,4,Pin_4_4*%
%TO.N,GND*%
X112225000Y-48550000D03*
%TD*%
D15*
%TO.P,JP3,1,A_1*%
%TO.N,3V3*%
X120025000Y-84900000D03*
%TO.P,JP3,2,C_2*%
%TO.N,/MS2*%
X118725000Y-84900000D03*
%TO.P,JP3,3,B_3*%
%TO.N,GND*%
X117425000Y-84900000D03*
%TD*%
D24*
%TO.P,Debug1,1,Pin_1_1*%
%TO.N,3V3*%
X137440000Y-32200000D03*
D25*
%TO.P,Debug1,2,Pin_2_2*%
%TO.N,/SWCLK*%
X137440000Y-29700000D03*
%TO.P,Debug1,3,Pin_3_3*%
%TO.N,/SWDIO*%
X137440000Y-27200000D03*
%TO.P,Debug1,4,Pin_4_4*%
%TO.N,GND*%
X137440000Y-24700000D03*
%TD*%
D26*
%TO.P,24VIN1,1,Pin_1_1*%
%TO.N,Net-(24VIN1-Pin_1)*%
X159200000Y-77575000D03*
D27*
%TO.P,24VIN1,2,Pin_2_2*%
%TO.N,GND*%
X154200000Y-77575000D03*
%TD*%
D28*
%TO.P,U2,1,EN_1*%
%TO.N,/EN*%
X156850000Y-62955000D03*
D29*
%TO.P,U2,2,MS1_2*%
%TO.N,/MS1*%
X156850000Y-60415000D03*
%TO.P,U2,3,MS2_3*%
%TO.N,/MS2*%
X156850000Y-57875000D03*
%TO.P,U2,4,PDN_4*%
%TO.N,unconnected-(U2-PDN-Pad4)*%
X156850000Y-55335000D03*
%TO.P,U2,5,USART_5*%
%TO.N,/PA9*%
X156850000Y-52795000D03*
%TO.P,U2,6,CLK_6*%
%TO.N,unconnected-(U2-CLK-Pad6)*%
X156850000Y-50255000D03*
%TO.P,U2,7,STEP_7*%
%TO.N,/PB13*%
X156850000Y-47715000D03*
%TO.P,U2,8,DIR_8*%
%TO.N,/DIR*%
X156850000Y-45175000D03*
%TO.P,U2,9,VM_9*%
%TO.N,24V*%
X169550000Y-62955000D03*
%TO.P,U2,10,GND_10*%
%TO.N,GND*%
X169550000Y-60415000D03*
%TO.P,U2,11,M1B_11*%
%TO.N,/M1B*%
X169550000Y-57875000D03*
%TO.P,U2,12,M1A_12*%
%TO.N,/M1A*%
X169550000Y-55335000D03*
%TO.P,U2,13,M2A_13*%
%TO.N,/M2A*%
X169550000Y-52795000D03*
%TO.P,U2,14,M2B_14*%
%TO.N,/M2B*%
X169550000Y-50255000D03*
%TO.P,U2,15,VIO_15*%
%TO.N,3V3*%
X169550000Y-47715000D03*
%TO.P,U2,16,GND_16*%
%TO.N,GND*%
X169550000Y-45175000D03*
%TD*%
D30*
%TO.P,R6,1*%
%TO.N,/CANH*%
X163820000Y-31955000D03*
%TO.P,R6,2*%
%TO.N,/CANL*%
X163820000Y-33955000D03*
%TD*%
D31*
%TO.P,D1,1,K_1*%
%TO.N,Net-(D1-K)*%
X112575000Y-99750000D03*
%TO.P,D1,2,A_2*%
%TO.N,GND*%
X108575000Y-99750000D03*
%TD*%
D32*
%TO.P,U5,1,D_1*%
%TO.N,/CAN_TX*%
X152800000Y-30695000D03*
%TO.P,U5,2,GND_2*%
%TO.N,GND*%
X152800000Y-31965000D03*
%TO.P,U5,3,VCC_3*%
%TO.N,3V3*%
X152800000Y-33235000D03*
%TO.P,U5,4,R_4*%
%TO.N,/CAN_RX*%
X152800000Y-34505000D03*
%TO.P,U5,5,Vref_5*%
%TO.N,unconnected-(U5-Vref-Pad5)*%
X157750000Y-34505000D03*
%TO.P,U5,6,CANL_6*%
%TO.N,/CANL*%
X157750000Y-33235000D03*
%TO.P,U5,7,CANH_7*%
%TO.N,/CANH*%
X157750000Y-31965000D03*
%TO.P,U5,8,Rs_8*%
%TO.N,GND*%
X157750000Y-30695000D03*
%TD*%
D20*
%TO.P,D2,1,K_1*%
%TO.N,Net-(D2-K)*%
X106815000Y-103260000D03*
%TO.P,D2,2,A_2*%
%TO.N,3V3*%
X108865000Y-103260000D03*
%TD*%
D14*
%TO.P,R8,1*%
%TO.N,Net-(D3-K)*%
X136872500Y-40280000D03*
%TO.P,R8,2*%
%TO.N,/PC13*%
X135047500Y-40280000D03*
%TD*%
D11*
%TO.P,R7,1*%
%TO.N,Net-(D2-K)*%
X106800000Y-105090000D03*
%TO.P,R7,2*%
%TO.N,GND*%
X108625000Y-105090000D03*
%TD*%
D10*
%TO.P,C13,1*%
%TO.N,3V3*%
X154495000Y-29075000D03*
%TO.P,C13,2*%
%TO.N,GND*%
X156220000Y-29075000D03*
%TD*%
D33*
%TO.P,D_TVS1,1,K_1*%
%TO.N,24V*%
X161025000Y-67450000D03*
%TO.P,D_TVS1,2,A_2*%
%TO.N,GND*%
X155625000Y-67450000D03*
%TD*%
D34*
%TO.P,C8,1*%
%TO.N,GND*%
X111135000Y-102480000D03*
%TO.P,C8,2*%
%TO.N,3V3*%
X111135000Y-104205000D03*
%TD*%
D35*
%TO.P,L1,1*%
%TO.N,Net-(D1-K)*%
X113735000Y-102380000D03*
%TO.P,L1,2*%
%TO.N,3V3*%
X113735000Y-104730000D03*
%TD*%
D15*
%TO.P,JP1,1,A_1*%
%TO.N,/BOOT0*%
X144045000Y-40830000D03*
%TO.P,JP1,2,B_2*%
%TO.N,3V3*%
X142745000Y-40830000D03*
%TD*%
D36*
%TO.P,C15,1*%
%TO.N,3V3*%
X151925000Y-43087500D03*
%TO.P,C15,2*%
%TO.N,GND*%
X151925000Y-41362500D03*
%TD*%
D34*
%TO.P,C14,1*%
%TO.N,3V3*%
X151925000Y-52262500D03*
%TO.P,C14,2*%
%TO.N,GND*%
X151925000Y-53987500D03*
%TD*%
D37*
%TO.P,C3,1*%
%TO.N,24V*%
X167200000Y-66250000D03*
%TO.P,C3,2*%
%TO.N,GND*%
X167200000Y-71650000D03*
%TD*%
D38*
%TO.P,J1,1,Pin_1_1*%
%TO.N,/M1B*%
X161900000Y-41025000D03*
D39*
%TO.P,J1,2,Pin_2_2*%
%TO.N,/M1A*%
X159360000Y-41025000D03*
%TO.P,J1,3,Pin_3_3*%
%TO.N,/M2A*%
X156820000Y-41025000D03*
%TO.P,J1,4,Pin_4_4*%
%TO.N,/M2B*%
X154280000Y-41025000D03*
%TD*%
D40*
%TO.N,GND*%
X167075000Y-69150000D03*
X167600000Y-69725000D03*
X166525000Y-71975000D03*
X166525000Y-71450000D03*
X166525000Y-69125000D03*
X167075000Y-70900000D03*
X167075000Y-72000000D03*
X167600000Y-71475000D03*
X166525000Y-70275000D03*
X166525000Y-70875000D03*
X167075000Y-70300000D03*
X167600000Y-72000000D03*
X167600000Y-70900000D03*
X167075000Y-69725000D03*
X166525000Y-69700000D03*
X167600000Y-69150000D03*
X167600000Y-70300000D03*
X167075000Y-71475000D03*
%TD*%
%TO.N,Net-(24VIN1-Pin_1)*%
D41*
X162125000Y-70925000D02*
X162100000Y-70900000D01*
X162150000Y-74525000D02*
X162125000Y-74500000D01*
X162125000Y-72050000D02*
X162125000Y-70925000D01*
X159200000Y-77575000D02*
X159200000Y-77475000D01*
X162125000Y-74500000D02*
X162125000Y-72050000D01*
X159200000Y-77475000D02*
X162150000Y-74525000D01*
%TO.N,/M2B*%
D42*
X168225000Y-48930000D02*
X168225000Y-42425000D01*
X169550000Y-50255000D02*
X168225000Y-48930000D01*
%TD*%
%TA.AperFunction,Conductor*%
%TO.N,24V*%
G36*
X168676838Y-59469685D02*
G01*
X168722593Y-59522489D01*
X168732537Y-59591647D01*
X168703512Y-59655203D01*
X168697480Y-59661681D01*
X168683891Y-59675269D01*
X168683890Y-59675270D01*
X168578833Y-59819867D01*
X168497691Y-59979118D01*
X168497689Y-59979121D01*
X168442460Y-60149098D01*
X168442460Y-60149101D01*
X168414500Y-60325634D01*
X168414500Y-60504365D01*
X168442460Y-60680898D01*
X168442460Y-60680901D01*
X168497689Y-60850878D01*
X168497691Y-60850881D01*
X168578833Y-61010132D01*
X168683889Y-61154728D01*
X168810272Y-61281111D01*
X168954868Y-61386167D01*
X169114119Y-61467309D01*
X169114121Y-61467310D01*
X169272670Y-61518825D01*
X169284103Y-61522540D01*
X169460634Y-61550500D01*
X169460635Y-61550500D01*
X169639365Y-61550500D01*
X169639366Y-61550500D01*
X169815897Y-61522540D01*
X169815900Y-61522539D01*
X169815901Y-61522539D01*
X169985878Y-61467310D01*
X169985878Y-61467309D01*
X169985881Y-61467309D01*
X170145132Y-61386167D01*
X170289728Y-61281111D01*
X170413319Y-61157520D01*
X170474642Y-61124035D01*
X170544334Y-61129019D01*
X170600267Y-61170891D01*
X170624684Y-61236355D01*
X170625000Y-61245201D01*
X170625000Y-78900792D01*
X170605315Y-78967831D01*
X170591258Y-78985818D01*
X169036715Y-80636026D01*
X168976419Y-80671326D01*
X168946457Y-80675000D01*
X156099000Y-80675000D01*
X156031961Y-80655315D01*
X155986206Y-80602511D01*
X155975000Y-80551000D01*
X155975000Y-79242712D01*
X155994685Y-79175673D01*
X156002053Y-79165399D01*
X156160838Y-78966289D01*
X156304284Y-78737997D01*
X156421267Y-78495079D01*
X156510316Y-78240591D01*
X156554609Y-78046529D01*
X156588718Y-77985552D01*
X156650379Y-77952694D01*
X156720016Y-77958389D01*
X156775520Y-78000829D01*
X156799268Y-78066539D01*
X156799500Y-78074123D01*
X156799500Y-78779736D01*
X156809987Y-78912983D01*
X156819921Y-78952406D01*
X156865426Y-79133002D01*
X156959258Y-79339579D01*
X156959263Y-79339589D01*
X157088473Y-79526090D01*
X157248909Y-79686526D01*
X157435410Y-79815736D01*
X157435420Y-79815741D01*
X157641997Y-79909573D01*
X157641998Y-79909573D01*
X157642000Y-79909574D01*
X157862017Y-79965013D01*
X157995264Y-79975500D01*
X157995270Y-79975500D01*
X160404730Y-79975500D01*
X160404736Y-79975500D01*
X160537983Y-79965013D01*
X160758000Y-79909574D01*
X160964582Y-79815740D01*
X160964584Y-79815738D01*
X160964589Y-79815736D01*
X161151090Y-79686526D01*
X161311526Y-79526090D01*
X161440736Y-79339589D01*
X161440741Y-79339579D01*
X161485126Y-79241864D01*
X161534574Y-79133000D01*
X161590013Y-78912983D01*
X161600500Y-78779736D01*
X161600500Y-77247889D01*
X161620185Y-77180850D01*
X161636819Y-77160208D01*
X162426767Y-76370260D01*
X163294517Y-75502510D01*
X163433343Y-75311434D01*
X163477138Y-75225480D01*
X163525112Y-75174685D01*
X163592933Y-75157889D01*
X163659068Y-75180426D01*
X163702520Y-75235141D01*
X163710562Y-75297960D01*
X163699501Y-75381978D01*
X163699500Y-75381995D01*
X163699500Y-75618004D01*
X163699501Y-75618020D01*
X163730306Y-75852010D01*
X163791394Y-76079993D01*
X163881714Y-76298045D01*
X163881719Y-76298056D01*
X163947567Y-76412107D01*
X163999727Y-76502450D01*
X163999729Y-76502453D01*
X163999730Y-76502454D01*
X164143406Y-76689697D01*
X164143412Y-76689704D01*
X164310295Y-76856587D01*
X164310302Y-76856593D01*
X164420306Y-76941001D01*
X164497550Y-77000273D01*
X164628498Y-77075876D01*
X164701943Y-77118280D01*
X164701948Y-77118282D01*
X164701951Y-77118284D01*
X164920007Y-77208606D01*
X165147986Y-77269693D01*
X165381989Y-77300500D01*
X165381996Y-77300500D01*
X165618004Y-77300500D01*
X165618011Y-77300500D01*
X165852014Y-77269693D01*
X166079993Y-77208606D01*
X166298049Y-77118284D01*
X166502450Y-77000273D01*
X166689699Y-76856592D01*
X166856592Y-76689699D01*
X167000273Y-76502450D01*
X167118284Y-76298049D01*
X167208606Y-76079993D01*
X167269693Y-75852014D01*
X167300500Y-75618011D01*
X167300500Y-75381989D01*
X167269693Y-75147986D01*
X167208606Y-74920007D01*
X167118284Y-74701951D01*
X167118282Y-74701948D01*
X167118280Y-74701943D01*
X167076118Y-74628918D01*
X167000273Y-74497550D01*
X166856592Y-74310301D01*
X166856587Y-74310295D01*
X166689704Y-74143412D01*
X166689694Y-74143404D01*
X166662940Y-74122874D01*
X166621738Y-74066446D01*
X166617583Y-73996700D01*
X166651796Y-73935780D01*
X166713513Y-73903028D01*
X166738418Y-73900499D01*
X167800008Y-73900499D01*
X167902797Y-73889999D01*
X168069334Y-73834814D01*
X168218656Y-73742712D01*
X168342712Y-73618656D01*
X168434814Y-73469334D01*
X168489999Y-73302797D01*
X168500500Y-73200009D01*
X168500499Y-70099992D01*
X168494524Y-70041505D01*
X168489999Y-69997203D01*
X168489998Y-69997200D01*
X168486784Y-69987500D01*
X168434814Y-69830666D01*
X168431820Y-69825812D01*
X168418960Y-69804961D01*
X168400500Y-69739867D01*
X168400500Y-69646155D01*
X168400499Y-69646153D01*
X168394632Y-69616657D01*
X168369737Y-69491503D01*
X168367024Y-69484954D01*
X168359553Y-69415489D01*
X168367022Y-69390049D01*
X168369737Y-69383497D01*
X168400500Y-69228842D01*
X168400500Y-69071158D01*
X168400500Y-69071155D01*
X168400499Y-69071153D01*
X168369738Y-68916510D01*
X168369737Y-68916503D01*
X168359380Y-68891498D01*
X168309397Y-68770827D01*
X168309390Y-68770814D01*
X168221789Y-68639711D01*
X168221786Y-68639707D01*
X168110292Y-68528213D01*
X168110288Y-68528210D01*
X167979185Y-68440609D01*
X167979172Y-68440602D01*
X167833501Y-68380264D01*
X167833489Y-68380261D01*
X167678845Y-68349500D01*
X167678842Y-68349500D01*
X167521158Y-68349500D01*
X167521153Y-68349500D01*
X167361691Y-68381219D01*
X167313309Y-68381219D01*
X167153846Y-68349500D01*
X167153842Y-68349500D01*
X166996158Y-68349500D01*
X166996153Y-68349500D01*
X166863093Y-68375967D01*
X166793501Y-68369740D01*
X166791451Y-68368912D01*
X166758498Y-68355263D01*
X166758494Y-68355261D01*
X166603845Y-68324500D01*
X166603842Y-68324500D01*
X166446158Y-68324500D01*
X166446155Y-68324500D01*
X166291510Y-68355261D01*
X166291498Y-68355264D01*
X166145827Y-68415602D01*
X166145814Y-68415609D01*
X166014711Y-68503210D01*
X166014707Y-68503213D01*
X165903213Y-68614707D01*
X165903210Y-68614711D01*
X165815609Y-68745814D01*
X165815602Y-68745827D01*
X165755264Y-68891498D01*
X165755261Y-68891510D01*
X165724500Y-69046153D01*
X165724500Y-69203846D01*
X165755261Y-69358494D01*
X165755265Y-69358505D01*
X165757977Y-69365053D01*
X165765443Y-69434523D01*
X165757977Y-69459947D01*
X165755265Y-69466494D01*
X165755261Y-69466505D01*
X165724500Y-69621153D01*
X165724500Y-69778846D01*
X165755261Y-69933494D01*
X165755265Y-69933505D01*
X165757977Y-69940053D01*
X165765443Y-70009523D01*
X165757977Y-70034947D01*
X165755265Y-70041494D01*
X165755261Y-70041505D01*
X165724500Y-70196153D01*
X165724500Y-70353846D01*
X165755260Y-70508488D01*
X165755262Y-70508493D01*
X165755263Y-70508497D01*
X165763155Y-70527550D01*
X165770623Y-70597018D01*
X165763156Y-70622446D01*
X165755263Y-70641503D01*
X165755262Y-70641506D01*
X165755260Y-70641511D01*
X165724500Y-70796153D01*
X165724500Y-70953846D01*
X165755261Y-71108494D01*
X165755265Y-71108505D01*
X165757977Y-71115053D01*
X165765443Y-71184523D01*
X165757977Y-71209947D01*
X165755265Y-71216494D01*
X165755261Y-71216505D01*
X165724500Y-71371153D01*
X165724500Y-71528846D01*
X165756219Y-71688309D01*
X165756219Y-71736691D01*
X165724500Y-71896153D01*
X165724500Y-72053846D01*
X165755261Y-72208489D01*
X165755264Y-72208501D01*
X165815602Y-72354171D01*
X165815609Y-72354184D01*
X165878602Y-72448459D01*
X165899480Y-72515137D01*
X165899500Y-72517350D01*
X165899500Y-73200001D01*
X165899501Y-73200019D01*
X165910000Y-73302796D01*
X165910001Y-73302799D01*
X165965185Y-73469331D01*
X165965189Y-73469340D01*
X166016576Y-73552652D01*
X166035016Y-73620044D01*
X166014093Y-73686708D01*
X165960451Y-73731477D01*
X165891120Y-73740138D01*
X165878944Y-73737523D01*
X165852012Y-73730306D01*
X165618020Y-73699501D01*
X165618017Y-73699500D01*
X165618011Y-73699500D01*
X165381989Y-73699500D01*
X165381983Y-73699500D01*
X165381979Y-73699501D01*
X165147989Y-73730306D01*
X164920006Y-73791394D01*
X164701954Y-73881714D01*
X164701943Y-73881719D01*
X164497545Y-73999730D01*
X164310302Y-74143406D01*
X164310295Y-74143412D01*
X164143412Y-74310295D01*
X164143406Y-74310302D01*
X163999732Y-74497542D01*
X163881887Y-74701654D01*
X163831319Y-74749869D01*
X163762712Y-74763091D01*
X163697848Y-74737123D01*
X163657320Y-74680209D01*
X163650500Y-74639653D01*
X163650500Y-74406902D01*
X163627027Y-74258702D01*
X163625500Y-74239304D01*
X163625500Y-70806902D01*
X163588553Y-70573631D01*
X163567386Y-70508488D01*
X163515568Y-70349008D01*
X163464866Y-70249499D01*
X163408343Y-70138566D01*
X163269517Y-69947490D01*
X163077510Y-69755483D01*
X162886434Y-69616657D01*
X162675996Y-69509433D01*
X162451368Y-69436446D01*
X162218097Y-69399500D01*
X162218092Y-69399500D01*
X161981908Y-69399500D01*
X161981903Y-69399500D01*
X161748631Y-69436446D01*
X161524003Y-69509433D01*
X161313565Y-69616657D01*
X161122488Y-69755484D01*
X160955484Y-69922488D01*
X160816657Y-70113565D01*
X160709433Y-70324003D01*
X160636446Y-70548631D01*
X160599500Y-70781902D01*
X160599500Y-71018097D01*
X160622973Y-71166296D01*
X160624500Y-71185694D01*
X160624500Y-73877111D01*
X160604815Y-73944150D01*
X160588181Y-73964792D01*
X159414792Y-75138181D01*
X159353469Y-75171666D01*
X159327111Y-75174500D01*
X157995260Y-75174500D01*
X157862017Y-75184987D01*
X157641997Y-75240426D01*
X157435420Y-75334258D01*
X157435410Y-75334263D01*
X157248909Y-75463473D01*
X157088473Y-75623909D01*
X156959263Y-75810410D01*
X156959258Y-75810420D01*
X156865426Y-76016997D01*
X156809987Y-76237017D01*
X156799500Y-76370260D01*
X156799500Y-77075876D01*
X156779815Y-77142915D01*
X156727011Y-77188670D01*
X156657853Y-77198614D01*
X156594297Y-77169589D01*
X156556523Y-77110811D01*
X156554609Y-77103469D01*
X156510315Y-76909405D01*
X156510312Y-76909397D01*
X156488145Y-76846049D01*
X156421267Y-76654921D01*
X156304284Y-76412003D01*
X156160838Y-76183711D01*
X156160836Y-76183708D01*
X156160835Y-76183706D01*
X156002053Y-75984599D01*
X155975644Y-75919913D01*
X155975000Y-75907287D01*
X155975000Y-69224499D01*
X155994685Y-69157460D01*
X156047489Y-69111705D01*
X156098998Y-69100499D01*
X157175008Y-69100499D01*
X157277797Y-69089999D01*
X157444334Y-69034814D01*
X157593656Y-68942712D01*
X157717712Y-68818656D01*
X157809814Y-68669334D01*
X157864999Y-68502797D01*
X157875500Y-68400009D01*
X157875499Y-66499992D01*
X157864999Y-66397203D01*
X157809814Y-66230666D01*
X157717712Y-66081344D01*
X157593656Y-65957288D01*
X157444334Y-65865186D01*
X157277797Y-65810001D01*
X157277795Y-65810000D01*
X157175016Y-65799500D01*
X156099000Y-65799500D01*
X156031961Y-65779815D01*
X155986206Y-65727011D01*
X155975000Y-65675500D01*
X155975000Y-65322655D01*
X155994685Y-65255616D01*
X156038381Y-65214482D01*
X163057418Y-61281109D01*
X166296757Y-59465827D01*
X166357376Y-59450000D01*
X168609799Y-59450000D01*
X168676838Y-59469685D01*
G37*
%TD.AperFunction*%
%TD*%
%TA.AperFunction,Conductor*%
%TO.N,GND*%
G36*
X134213545Y-39305521D02*
G01*
X134224398Y-39308707D01*
X134283179Y-39346477D01*
X134312208Y-39410031D01*
X134302269Y-39479190D01*
X134302268Y-39479191D01*
X134299084Y-39486164D01*
X134273968Y-39522340D01*
X134214663Y-39581644D01*
X134181010Y-39636204D01*
X134125104Y-39726843D01*
X134124092Y-39728483D01*
X134124086Y-39728499D01*
X134101556Y-39796493D01*
X134101556Y-39796494D01*
X134080125Y-39861167D01*
X134071677Y-39874113D01*
X134070190Y-39888673D01*
X134069367Y-39894919D01*
X134069184Y-39898521D01*
X134059500Y-39993305D01*
X134059500Y-39993315D01*
X134059500Y-40566669D01*
X134059501Y-40566687D01*
X134059503Y-40566711D01*
X134059504Y-40566718D01*
X134069824Y-40667748D01*
X134069824Y-40667750D01*
X134069825Y-40667752D01*
X134102704Y-40766973D01*
X134124094Y-40831520D01*
X134142595Y-40861516D01*
X134214657Y-40978346D01*
X134214660Y-40978350D01*
X134336650Y-41100340D01*
X134483484Y-41190908D01*
X134647247Y-41245174D01*
X134748323Y-41255500D01*
X135346676Y-41255499D01*
X135346726Y-41255499D01*
X135346893Y-41255489D01*
X135348000Y-41255363D01*
X135392342Y-41250833D01*
X135402031Y-41249844D01*
X135402031Y-41249843D01*
X135447753Y-41245174D01*
X135611516Y-41190908D01*
X135758350Y-41100340D01*
X135859717Y-40998972D01*
X135887964Y-40977827D01*
X135901688Y-40970333D01*
X135969946Y-40955482D01*
X135971756Y-40955611D01*
X136029953Y-40974977D01*
X136036471Y-40979166D01*
X136057106Y-40995796D01*
X136161650Y-41100340D01*
X136308484Y-41190908D01*
X136472247Y-41245174D01*
X136573323Y-41255500D01*
X137171676Y-41255499D01*
X137171726Y-41255499D01*
X137171893Y-41255489D01*
X137173000Y-41255363D01*
X137217342Y-41250833D01*
X137227031Y-41249844D01*
X137227031Y-41249843D01*
X137272753Y-41245174D01*
X137436516Y-41190908D01*
X137436518Y-41190906D01*
X137443382Y-41188632D01*
X137443469Y-41188894D01*
X137450792Y-41186205D01*
X137457787Y-41184290D01*
X137469415Y-41181108D01*
X137539273Y-41182397D01*
X137597344Y-41221249D01*
X137597350Y-41221256D01*
X137603445Y-41228559D01*
X137625948Y-41269003D01*
X137632684Y-41289328D01*
X137632686Y-41289334D01*
X137724788Y-41438656D01*
X137848844Y-41562712D01*
X137998166Y-41654814D01*
X138164703Y-41709999D01*
X138267491Y-41720500D01*
X139017508Y-41720499D01*
X139017558Y-41720499D01*
X139017725Y-41720489D01*
X139018831Y-41720363D01*
X139063959Y-41715753D01*
X139073803Y-41714748D01*
X139073803Y-41714747D01*
X139120297Y-41709999D01*
X139286834Y-41654814D01*
X139436156Y-41562712D01*
X139560212Y-41438656D01*
X139560212Y-41438655D01*
X139565324Y-41433544D01*
X139565457Y-41433677D01*
X139571484Y-41427253D01*
X139585537Y-41414612D01*
X139648543Y-41384418D01*
X139717869Y-41393078D01*
X139721116Y-41394489D01*
X139765365Y-41426964D01*
X139766431Y-41428193D01*
X139770083Y-41433166D01*
X139770307Y-41432990D01*
X139774783Y-41438651D01*
X139774787Y-41438655D01*
X139774788Y-41438656D01*
X139898844Y-41562712D01*
X140048166Y-41654814D01*
X140214703Y-41709999D01*
X140317491Y-41720500D01*
X141067508Y-41720499D01*
X141067558Y-41720499D01*
X141067725Y-41720489D01*
X141068831Y-41720363D01*
X141113959Y-41715753D01*
X141123803Y-41714748D01*
X141123803Y-41714747D01*
X141170297Y-41709999D01*
X141336834Y-41654814D01*
X141486156Y-41562712D01*
X141520218Y-41528649D01*
X141548466Y-41507503D01*
X141558397Y-41502080D01*
X141626669Y-41487231D01*
X141692133Y-41511651D01*
X141733997Y-41567571D01*
X141736678Y-41574760D01*
X141744500Y-41618101D01*
X141744500Y-41627867D01*
X141744501Y-41627876D01*
X141744549Y-41628319D01*
X141750907Y-41687481D01*
X141763701Y-41721784D01*
X141801202Y-41822328D01*
X141801206Y-41822335D01*
X141822639Y-41850965D01*
X141887450Y-41937542D01*
X141887456Y-41937548D01*
X141916419Y-41959229D01*
X142002664Y-42023793D01*
X142002671Y-42023797D01*
X142052155Y-42042253D01*
X142087513Y-42068721D01*
X142144444Y-42074835D01*
X142144443Y-42074839D01*
X142144458Y-42074836D01*
X142197127Y-42080500D01*
X143292872Y-42080499D01*
X143343371Y-42075070D01*
X143347726Y-42074681D01*
X143360376Y-42073774D01*
X143360377Y-42073775D01*
X143399207Y-42070993D01*
X143426389Y-42073912D01*
X143426498Y-42072906D01*
X143437515Y-42074090D01*
X143437517Y-42074091D01*
X143497127Y-42080500D01*
X144262668Y-42080499D01*
X144297587Y-42085517D01*
X144306223Y-42088053D01*
X144365002Y-42125819D01*
X144394034Y-42189372D01*
X144384098Y-42258531D01*
X144343819Y-42307614D01*
X144339661Y-42310612D01*
X144314593Y-42324591D01*
X144263842Y-42345613D01*
X144255604Y-42348688D01*
X144254311Y-42349118D01*
X144245312Y-42358392D01*
X144185017Y-42404658D01*
X144185018Y-42404659D01*
X144185016Y-42404661D01*
X144139549Y-42439549D01*
X144047303Y-42559767D01*
X144047298Y-42559773D01*
X143989313Y-42699761D01*
X143988518Y-42703760D01*
X143988252Y-42707822D01*
X143974500Y-42812271D01*
X143974500Y-44132670D01*
X143969475Y-44167614D01*
X143965070Y-44182612D01*
X143927327Y-44241355D01*
X143925958Y-44242542D01*
X143871097Y-44270018D01*
X143863539Y-44271663D01*
X143837168Y-44274500D01*
X142512272Y-44274500D01*
X142407822Y-44288252D01*
X142403760Y-44288518D01*
X142399764Y-44289313D01*
X142399763Y-44289313D01*
X142399762Y-44289313D01*
X142399759Y-44289314D01*
X142263836Y-44345615D01*
X142255598Y-44348690D01*
X142254311Y-44349118D01*
X142245312Y-44358392D01*
X142139551Y-44439546D01*
X142133678Y-44447200D01*
X142054804Y-44549991D01*
X142052533Y-44552951D01*
X142047299Y-44559771D01*
X142047297Y-44559774D01*
X141989313Y-44699761D01*
X141988518Y-44703760D01*
X141988252Y-44707822D01*
X141974500Y-44812271D01*
X141974500Y-45037733D01*
X141986338Y-45127638D01*
X141987399Y-45143825D01*
X141987399Y-45206174D01*
X141986338Y-45222361D01*
X141974500Y-45312265D01*
X141974500Y-45537733D01*
X141986338Y-45627638D01*
X141987399Y-45643825D01*
X141987399Y-45706174D01*
X141986338Y-45722361D01*
X141974500Y-45812265D01*
X141974500Y-45812269D01*
X141974500Y-45812272D01*
X141974500Y-46037727D01*
X141974946Y-46041111D01*
X141985106Y-46118285D01*
X141986338Y-46127638D01*
X141987399Y-46143824D01*
X141987399Y-46206174D01*
X141986338Y-46222361D01*
X141974500Y-46312265D01*
X141974500Y-46537733D01*
X141986338Y-46627638D01*
X141987399Y-46643825D01*
X141987399Y-46706174D01*
X141986338Y-46722361D01*
X141974500Y-46812265D01*
X141974500Y-47037733D01*
X141986338Y-47127638D01*
X141987399Y-47143825D01*
X141987399Y-47206174D01*
X141986338Y-47222361D01*
X141974500Y-47312265D01*
X141974500Y-47537733D01*
X141986338Y-47627638D01*
X141987399Y-47643825D01*
X141987399Y-47706168D01*
X141986337Y-47722355D01*
X141985938Y-47725393D01*
X141974501Y-47812269D01*
X141974500Y-47812278D01*
X141974500Y-48037726D01*
X141988252Y-48142175D01*
X141988013Y-48143702D01*
X141989313Y-48150237D01*
X142006329Y-48191316D01*
X142047300Y-48290230D01*
X142047301Y-48290232D01*
X142047302Y-48290233D01*
X142050566Y-48294762D01*
X142052244Y-48296675D01*
X142081936Y-48335370D01*
X142099219Y-48366145D01*
X142104855Y-48380724D01*
X142110668Y-48450351D01*
X142108887Y-48459034D01*
X142085793Y-48509604D01*
X142066852Y-48534289D01*
X142066850Y-48534291D01*
X142047300Y-48559767D01*
X142047300Y-48559768D01*
X141989313Y-48699761D01*
X141988518Y-48703760D01*
X141988252Y-48707822D01*
X141974500Y-48812270D01*
X141974500Y-49037732D01*
X141983361Y-49105024D01*
X141983361Y-49105026D01*
X141986338Y-49127641D01*
X141987399Y-49143825D01*
X141987399Y-49206173D01*
X141986338Y-49222359D01*
X141974500Y-49312263D01*
X141974500Y-49537728D01*
X141986338Y-49627638D01*
X141987399Y-49643825D01*
X141987399Y-49706174D01*
X141986338Y-49722361D01*
X141974500Y-49812265D01*
X141974500Y-50037729D01*
X141986338Y-50127638D01*
X141987399Y-50143825D01*
X141987399Y-50206174D01*
X141986338Y-50222361D01*
X141974500Y-50312265D01*
X141974500Y-50312269D01*
X141974500Y-50312272D01*
X141974500Y-50537727D01*
X141985717Y-50622926D01*
X141988252Y-50642175D01*
X141988518Y-50646239D01*
X141989314Y-50650239D01*
X142044510Y-50783497D01*
X142047297Y-50790224D01*
X142047300Y-50790229D01*
X142047302Y-50790233D01*
X142139549Y-50910451D01*
X142259767Y-51002698D01*
X142399764Y-51060687D01*
X142512280Y-51075500D01*
X142512287Y-51075500D01*
X143832670Y-51075500D01*
X143867606Y-51080523D01*
X143882604Y-51084927D01*
X143941355Y-51122672D01*
X143942542Y-51124041D01*
X143970018Y-51178902D01*
X143971663Y-51186460D01*
X143974500Y-51212831D01*
X143974500Y-52537727D01*
X143984317Y-52612293D01*
X143988252Y-52642175D01*
X143988518Y-52646239D01*
X143989314Y-52650239D01*
X144015207Y-52712752D01*
X144037900Y-52767535D01*
X144047302Y-52790233D01*
X144139549Y-52910451D01*
X144259767Y-53002698D01*
X144399764Y-53060687D01*
X144506577Y-53074748D01*
X144506578Y-53074749D01*
X144512157Y-53075484D01*
X144512171Y-53075485D01*
X144512264Y-53075498D01*
X144512280Y-53075500D01*
X144512287Y-53075500D01*
X144737713Y-53075500D01*
X144737720Y-53075500D01*
X144826971Y-53063749D01*
X144843155Y-53062689D01*
X144906843Y-53062689D01*
X144923028Y-53063750D01*
X144949987Y-53067299D01*
X145012280Y-53075500D01*
X145012287Y-53075500D01*
X145237713Y-53075500D01*
X145237720Y-53075500D01*
X145326971Y-53063749D01*
X145343155Y-53062689D01*
X145406843Y-53062689D01*
X145423028Y-53063750D01*
X145449987Y-53067299D01*
X145512280Y-53075500D01*
X145512287Y-53075500D01*
X145737713Y-53075500D01*
X145737720Y-53075500D01*
X145826971Y-53063749D01*
X145843155Y-53062689D01*
X145906843Y-53062689D01*
X145923028Y-53063750D01*
X145949987Y-53067299D01*
X146012280Y-53075500D01*
X146012287Y-53075500D01*
X146237713Y-53075500D01*
X146237720Y-53075500D01*
X146326971Y-53063749D01*
X146343155Y-53062689D01*
X146406843Y-53062689D01*
X146423028Y-53063750D01*
X146449987Y-53067299D01*
X146512280Y-53075500D01*
X146512287Y-53075500D01*
X146737713Y-53075500D01*
X146737720Y-53075500D01*
X146826971Y-53063749D01*
X146843155Y-53062689D01*
X146906843Y-53062689D01*
X146923028Y-53063750D01*
X146949987Y-53067299D01*
X147012280Y-53075500D01*
X147012287Y-53075500D01*
X147237713Y-53075500D01*
X147237720Y-53075500D01*
X147326971Y-53063749D01*
X147343155Y-53062689D01*
X147406843Y-53062689D01*
X147423028Y-53063750D01*
X147449987Y-53067299D01*
X147512280Y-53075500D01*
X147512287Y-53075500D01*
X147737713Y-53075500D01*
X147737720Y-53075500D01*
X147826971Y-53063749D01*
X147843155Y-53062689D01*
X147906843Y-53062689D01*
X147923028Y-53063750D01*
X147949987Y-53067299D01*
X148012280Y-53075500D01*
X148012287Y-53075500D01*
X148237713Y-53075500D01*
X148237720Y-53075500D01*
X148326971Y-53063749D01*
X148343155Y-53062689D01*
X148406843Y-53062689D01*
X148423028Y-53063750D01*
X148449987Y-53067299D01*
X148512280Y-53075500D01*
X148512287Y-53075500D01*
X148737713Y-53075500D01*
X148737720Y-53075500D01*
X148826971Y-53063749D01*
X148843155Y-53062689D01*
X148906843Y-53062689D01*
X148923028Y-53063750D01*
X148949987Y-53067299D01*
X149012280Y-53075500D01*
X149012287Y-53075500D01*
X149237713Y-53075500D01*
X149237720Y-53075500D01*
X149350236Y-53060687D01*
X149490233Y-53002698D01*
X149535372Y-52968060D01*
X149566147Y-52950778D01*
X149571238Y-52948810D01*
X149580730Y-52945142D01*
X149650344Y-52939330D01*
X149659038Y-52941113D01*
X149709605Y-52964206D01*
X149759767Y-53002698D01*
X149899764Y-53060687D01*
X150006577Y-53074748D01*
X150006578Y-53074749D01*
X150012157Y-53075484D01*
X150012171Y-53075485D01*
X150012264Y-53075498D01*
X150012280Y-53075500D01*
X150012287Y-53075500D01*
X150237713Y-53075500D01*
X150237720Y-53075500D01*
X150350236Y-53060687D01*
X150490233Y-53002698D01*
X150610451Y-52910451D01*
X150702698Y-52790233D01*
X150725508Y-52735163D01*
X150743513Y-52704818D01*
X150750610Y-52696010D01*
X150808000Y-52656162D01*
X150877825Y-52653667D01*
X150937915Y-52689318D01*
X150937921Y-52689324D01*
X150941440Y-52693104D01*
X150968387Y-52738591D01*
X150985500Y-52790233D01*
X151014092Y-52876516D01*
X151104660Y-53023350D01*
X151226650Y-53145340D01*
X151373484Y-53235908D01*
X151537247Y-53290174D01*
X151638323Y-53300500D01*
X152211676Y-53300499D01*
X152211726Y-53300499D01*
X152211893Y-53300489D01*
X152213000Y-53300363D01*
X152257342Y-53295833D01*
X152267031Y-53294844D01*
X152267031Y-53294843D01*
X152312753Y-53290174D01*
X152476516Y-53235908D01*
X152623350Y-53145340D01*
X152745340Y-53023350D01*
X152835908Y-52876516D01*
X152890174Y-52712753D01*
X152890902Y-52705629D01*
X155714500Y-52705629D01*
X155714500Y-52705634D01*
X155714500Y-52884366D01*
X155722047Y-52932016D01*
X155727756Y-52968064D01*
X155740933Y-53051256D01*
X155740934Y-53051264D01*
X155742460Y-53060904D01*
X155797689Y-53230879D01*
X155800035Y-53235723D01*
X155800980Y-53237337D01*
X155833158Y-53300489D01*
X155878833Y-53390132D01*
X155983889Y-53534728D01*
X156110272Y-53661111D01*
X156254868Y-53766167D01*
X156414119Y-53847309D01*
X156414121Y-53847310D01*
X156572670Y-53898825D01*
X156584103Y-53902540D01*
X156760634Y-53930500D01*
X156760635Y-53930500D01*
X156939365Y-53930500D01*
X156939366Y-53930500D01*
X157115897Y-53902540D01*
X157115900Y-53902539D01*
X157115901Y-53902539D01*
X157115905Y-53902537D01*
X157115909Y-53902537D01*
X157116174Y-53902450D01*
X157281249Y-53848813D01*
X157284471Y-53848721D01*
X157290337Y-53846291D01*
X157290625Y-53846170D01*
X157290641Y-53846166D01*
X157295165Y-53844292D01*
X157303150Y-53841697D01*
X157312399Y-53833797D01*
X157445132Y-53766167D01*
X157589728Y-53661111D01*
X157716111Y-53534728D01*
X157821167Y-53390132D01*
X157902309Y-53230881D01*
X157952796Y-53075498D01*
X157957539Y-53060901D01*
X157957539Y-53060900D01*
X157957540Y-53060897D01*
X157985500Y-52884366D01*
X157985500Y-52705634D01*
X157957540Y-52529103D01*
X157957539Y-52529099D01*
X157957539Y-52529098D01*
X157902310Y-52359121D01*
X157902309Y-52359119D01*
X157899964Y-52354277D01*
X157899018Y-52352661D01*
X157821165Y-52199865D01*
X157811402Y-52186428D01*
X157803462Y-52175500D01*
X157716111Y-52055272D01*
X157589728Y-51928889D01*
X157445132Y-51823833D01*
X157422391Y-51812246D01*
X157292337Y-51745980D01*
X157291982Y-51745645D01*
X157285879Y-51742689D01*
X157115899Y-51687459D01*
X156998212Y-51668820D01*
X156998209Y-51668820D01*
X156939366Y-51659500D01*
X156939365Y-51659500D01*
X156760635Y-51659500D01*
X156760634Y-51659500D01*
X156701790Y-51668820D01*
X156593742Y-51685933D01*
X156593734Y-51685932D01*
X156593735Y-51685934D01*
X156584094Y-51687460D01*
X156414119Y-51742689D01*
X156409275Y-51745035D01*
X156407661Y-51745980D01*
X156254866Y-51823833D01*
X156110268Y-51928891D01*
X155983891Y-52055268D01*
X155878833Y-52199866D01*
X155800980Y-52352661D01*
X155800035Y-52354275D01*
X155797689Y-52359119D01*
X155742460Y-52529094D01*
X155740934Y-52538735D01*
X155740933Y-52538734D01*
X155740933Y-52538741D01*
X155729381Y-52611677D01*
X155729283Y-52612294D01*
X155714500Y-52705629D01*
X152890902Y-52705629D01*
X152895125Y-52664296D01*
X152900470Y-52611963D01*
X152900497Y-52611713D01*
X152900499Y-52611686D01*
X152900500Y-52611677D01*
X152900499Y-51913324D01*
X152898969Y-51898350D01*
X152890174Y-51812247D01*
X152870050Y-51751518D01*
X152835908Y-51648484D01*
X152745340Y-51501650D01*
X152623350Y-51379660D01*
X152623346Y-51379657D01*
X152506052Y-51307309D01*
X152506052Y-51307308D01*
X152506049Y-51307308D01*
X152488850Y-51296699D01*
X152482214Y-51291452D01*
X152463743Y-51283801D01*
X152457521Y-51282797D01*
X152433151Y-51274721D01*
X152401573Y-51258966D01*
X152392277Y-51252530D01*
X152348363Y-51198185D01*
X152340802Y-51128726D01*
X152371985Y-51066215D01*
X152375506Y-51062423D01*
X152418921Y-51032235D01*
X152467442Y-51012137D01*
X152484102Y-51008824D01*
X152484473Y-51008454D01*
X152496663Y-50997763D01*
X152610451Y-50910451D01*
X152702698Y-50790233D01*
X152760687Y-50650236D01*
X152775500Y-50537720D01*
X152775500Y-50312280D01*
X152761348Y-50204790D01*
X152760289Y-50188243D01*
X152760298Y-50184916D01*
X152760755Y-50176873D01*
X152760341Y-50170378D01*
X152760355Y-50165634D01*
X155714500Y-50165634D01*
X155714500Y-50170193D01*
X155714500Y-50344365D01*
X155728480Y-50432631D01*
X155740933Y-50511256D01*
X155740934Y-50511264D01*
X155742460Y-50520904D01*
X155797689Y-50690879D01*
X155800035Y-50695723D01*
X155800980Y-50697337D01*
X155848313Y-50790233D01*
X155878833Y-50850132D01*
X155983889Y-50994728D01*
X156110272Y-51121111D01*
X156254868Y-51226167D01*
X156414119Y-51307309D01*
X156414121Y-51307310D01*
X156572670Y-51358825D01*
X156572672Y-51358825D01*
X156584103Y-51362540D01*
X156760634Y-51390500D01*
X156760635Y-51390500D01*
X156939365Y-51390500D01*
X156939366Y-51390500D01*
X157115897Y-51362540D01*
X157115900Y-51362539D01*
X157115901Y-51362539D01*
X157115905Y-51362537D01*
X157115909Y-51362537D01*
X157116174Y-51362450D01*
X157281250Y-51308813D01*
X157290625Y-51306170D01*
X157290641Y-51306166D01*
X157295165Y-51304292D01*
X157303150Y-51301697D01*
X157312399Y-51293797D01*
X157445132Y-51226167D01*
X157589728Y-51121111D01*
X157716111Y-50994728D01*
X157821167Y-50850132D01*
X157902309Y-50690881D01*
X157926843Y-50615374D01*
X157957413Y-50521289D01*
X157957537Y-50520912D01*
X157957539Y-50520900D01*
X157957540Y-50520897D01*
X157985500Y-50344366D01*
X157985500Y-50165634D01*
X157957540Y-49989103D01*
X157957539Y-49989099D01*
X157957539Y-49989098D01*
X157902310Y-49819121D01*
X157902309Y-49819119D01*
X157899963Y-49814275D01*
X157899016Y-49812657D01*
X157841495Y-49699764D01*
X157821168Y-49659869D01*
X157742542Y-49551651D01*
X157716111Y-49515272D01*
X157589728Y-49388889D01*
X157445132Y-49283833D01*
X157292337Y-49205980D01*
X157291982Y-49205645D01*
X157285879Y-49202689D01*
X157115900Y-49147460D01*
X156997149Y-49128652D01*
X156986523Y-49126969D01*
X156939366Y-49119500D01*
X156939365Y-49119500D01*
X156760635Y-49119500D01*
X156760634Y-49119500D01*
X156713477Y-49126969D01*
X156702851Y-49128652D01*
X156593742Y-49145933D01*
X156593734Y-49145933D01*
X156593735Y-49145934D01*
X156584094Y-49147460D01*
X156414119Y-49202689D01*
X156409275Y-49205035D01*
X156407661Y-49205980D01*
X156254866Y-49283833D01*
X156110268Y-49388891D01*
X155983891Y-49515268D01*
X155878833Y-49659866D01*
X155800980Y-49812661D01*
X155800035Y-49814275D01*
X155797689Y-49819119D01*
X155742460Y-49989094D01*
X155740934Y-49998735D01*
X155740933Y-49998734D01*
X155740933Y-49998741D01*
X155734758Y-50037729D01*
X155714500Y-50165634D01*
X152760355Y-50165634D01*
X152760371Y-50160397D01*
X152760745Y-50159136D01*
X152761167Y-50146584D01*
X152775500Y-50037720D01*
X152775500Y-49812280D01*
X152763750Y-49723027D01*
X152762689Y-49706842D01*
X152762689Y-49643152D01*
X152763750Y-49626966D01*
X152775499Y-49537731D01*
X152775500Y-49537720D01*
X152775500Y-49312280D01*
X152763750Y-49223027D01*
X152762689Y-49206842D01*
X152762689Y-49143155D01*
X152763750Y-49126969D01*
X152764734Y-49119500D01*
X152775500Y-49037720D01*
X152775500Y-48812280D01*
X152763750Y-48723027D01*
X152762689Y-48706842D01*
X152762689Y-48643153D01*
X152763750Y-48626968D01*
X152769787Y-48581113D01*
X152769787Y-48581111D01*
X152775499Y-48537726D01*
X152775500Y-48537720D01*
X152775500Y-48312280D01*
X152767300Y-48249992D01*
X152763750Y-48223027D01*
X152762689Y-48206842D01*
X152762689Y-48143158D01*
X152763750Y-48126973D01*
X152775500Y-48037720D01*
X152775500Y-47812286D01*
X152775500Y-47812280D01*
X152761400Y-47705177D01*
X152760924Y-47687388D01*
X152760526Y-47682194D01*
X152760764Y-47677852D01*
X152760764Y-47677849D01*
X152760329Y-47671209D01*
X152761124Y-47646913D01*
X152761620Y-47643151D01*
X152763926Y-47625634D01*
X155714500Y-47625634D01*
X155714500Y-47630002D01*
X155714500Y-47804365D01*
X155718773Y-47831344D01*
X155740933Y-47971256D01*
X155740934Y-47971264D01*
X155742460Y-47980904D01*
X155797689Y-48150879D01*
X155800035Y-48155723D01*
X155800980Y-48157337D01*
X155834451Y-48223027D01*
X155878833Y-48310132D01*
X155983889Y-48454728D01*
X156110272Y-48581111D01*
X156254868Y-48686167D01*
X156414119Y-48767309D01*
X156414121Y-48767310D01*
X156552495Y-48812270D01*
X156584103Y-48822540D01*
X156760634Y-48850500D01*
X156760635Y-48850500D01*
X156939365Y-48850500D01*
X156939366Y-48850500D01*
X157115897Y-48822540D01*
X157115900Y-48822539D01*
X157115901Y-48822539D01*
X157115905Y-48822537D01*
X157115909Y-48822537D01*
X157116174Y-48822450D01*
X157281250Y-48768813D01*
X157290625Y-48766170D01*
X157290641Y-48766166D01*
X157295165Y-48764292D01*
X157303150Y-48761697D01*
X157312399Y-48753797D01*
X157445132Y-48686167D01*
X157589728Y-48581111D01*
X157716111Y-48454728D01*
X157821167Y-48310132D01*
X157902309Y-48150881D01*
X157910077Y-48126973D01*
X157939077Y-48037721D01*
X157957411Y-47981295D01*
X157957537Y-47980912D01*
X157957539Y-47980900D01*
X157957540Y-47980897D01*
X157985500Y-47804366D01*
X157985500Y-47625634D01*
X157957540Y-47449103D01*
X157957539Y-47449099D01*
X157957539Y-47449098D01*
X157902310Y-47279121D01*
X157902309Y-47279119D01*
X157899963Y-47274275D01*
X157899016Y-47272657D01*
X157861876Y-47199764D01*
X157821168Y-47119869D01*
X157761489Y-47037729D01*
X157716111Y-46975272D01*
X157589728Y-46848889D01*
X157445132Y-46743833D01*
X157371222Y-46706174D01*
X157292337Y-46665980D01*
X157291982Y-46665645D01*
X157285879Y-46662689D01*
X157115899Y-46607459D01*
X156998212Y-46588820D01*
X156998209Y-46588820D01*
X156939366Y-46579500D01*
X156939365Y-46579500D01*
X156760635Y-46579500D01*
X156760634Y-46579500D01*
X156701790Y-46588820D01*
X156593742Y-46605933D01*
X156593734Y-46605932D01*
X156593735Y-46605934D01*
X156584094Y-46607460D01*
X156414119Y-46662689D01*
X156409275Y-46665035D01*
X156407661Y-46665980D01*
X156254866Y-46743833D01*
X156110268Y-46848891D01*
X155983891Y-46975268D01*
X155878833Y-47119866D01*
X155800980Y-47272661D01*
X155800035Y-47274275D01*
X155797689Y-47279119D01*
X155742460Y-47449094D01*
X155740934Y-47458735D01*
X155740933Y-47458734D01*
X155740933Y-47458741D01*
X155726558Y-47549501D01*
X155714500Y-47625634D01*
X152763926Y-47625634D01*
X152775500Y-47537720D01*
X152775500Y-47312280D01*
X152763750Y-47223027D01*
X152762689Y-47206842D01*
X152762689Y-47143152D01*
X152763750Y-47126966D01*
X152764685Y-47119869D01*
X152766454Y-47106428D01*
X152775500Y-47037720D01*
X152775500Y-46812280D01*
X152763750Y-46723027D01*
X152762689Y-46706842D01*
X152762689Y-46643155D01*
X152763750Y-46626969D01*
X152766169Y-46608599D01*
X152775500Y-46537720D01*
X152775500Y-46312280D01*
X152764314Y-46227311D01*
X152763750Y-46223027D01*
X152762689Y-46206842D01*
X152762689Y-46143151D01*
X152763749Y-46126973D01*
X152764893Y-46118285D01*
X152775500Y-46037720D01*
X152775500Y-45812280D01*
X152760687Y-45699764D01*
X152702698Y-45559767D01*
X152685775Y-45537713D01*
X152668061Y-45514627D01*
X152650779Y-45483854D01*
X152645142Y-45469273D01*
X152639329Y-45399660D01*
X152641111Y-45390968D01*
X152664207Y-45340393D01*
X152702698Y-45290233D01*
X152760687Y-45150236D01*
X152769192Y-45085634D01*
X155714500Y-45085634D01*
X155714500Y-45090259D01*
X155714500Y-45264369D01*
X155719834Y-45298044D01*
X155719834Y-45298045D01*
X155740933Y-45431257D01*
X155740934Y-45431264D01*
X155742460Y-45440904D01*
X155797689Y-45610879D01*
X155800035Y-45615723D01*
X155800980Y-45617337D01*
X155854832Y-45723027D01*
X155878833Y-45770132D01*
X155983889Y-45914728D01*
X156110272Y-46041111D01*
X156254868Y-46146167D01*
X156414119Y-46227309D01*
X156414121Y-46227310D01*
X156492557Y-46252795D01*
X156538330Y-46267667D01*
X156584102Y-46282540D01*
X156672368Y-46296520D01*
X156760634Y-46310500D01*
X156760635Y-46310500D01*
X156939365Y-46310500D01*
X156939366Y-46310500D01*
X157115897Y-46282540D01*
X157115900Y-46282539D01*
X157115901Y-46282539D01*
X157115905Y-46282537D01*
X157115909Y-46282537D01*
X157116174Y-46282450D01*
X157281250Y-46228813D01*
X157290625Y-46226170D01*
X157290641Y-46226166D01*
X157295165Y-46224292D01*
X157303150Y-46221697D01*
X157312399Y-46213797D01*
X157445132Y-46146167D01*
X157589728Y-46041111D01*
X157716111Y-45914728D01*
X157821167Y-45770132D01*
X157902309Y-45610881D01*
X157918917Y-45559767D01*
X157957434Y-45441221D01*
X157957537Y-45440911D01*
X157957539Y-45440900D01*
X157957540Y-45440897D01*
X157985500Y-45264366D01*
X157985500Y-45085634D01*
X157957540Y-44909103D01*
X157957539Y-44909099D01*
X157957539Y-44909098D01*
X157902310Y-44739121D01*
X157902309Y-44739119D01*
X157899962Y-44734273D01*
X157899023Y-44732670D01*
X157847836Y-44632209D01*
X157821168Y-44579869D01*
X157786148Y-44531669D01*
X157716111Y-44435272D01*
X157589728Y-44308889D01*
X157445132Y-44203833D01*
X157403483Y-44182612D01*
X157292337Y-44125980D01*
X157290723Y-44125035D01*
X157285879Y-44122689D01*
X157115900Y-44067460D01*
X156948653Y-44040971D01*
X156948651Y-44040970D01*
X156939367Y-44039500D01*
X156939366Y-44039500D01*
X156760634Y-44039500D01*
X156760633Y-44039500D01*
X156751345Y-44040970D01*
X156751346Y-44040971D01*
X156593742Y-44065933D01*
X156593734Y-44065933D01*
X156593735Y-44065934D01*
X156584094Y-44067460D01*
X156414119Y-44122689D01*
X156409275Y-44125035D01*
X156407661Y-44125980D01*
X156254866Y-44203833D01*
X156110267Y-44308892D01*
X155983891Y-44435268D01*
X155878833Y-44579866D01*
X155800980Y-44732661D01*
X155800035Y-44734275D01*
X155797689Y-44739119D01*
X155742460Y-44909094D01*
X155740954Y-44918604D01*
X155740911Y-44918879D01*
X155714500Y-45085634D01*
X152769192Y-45085634D01*
X152775500Y-45037720D01*
X152775500Y-44812280D01*
X152760687Y-44699764D01*
X152702698Y-44559767D01*
X152610451Y-44439549D01*
X152490233Y-44347302D01*
X152490229Y-44347300D01*
X152424251Y-44319971D01*
X152393901Y-44301962D01*
X152385091Y-44294862D01*
X152345245Y-44237470D01*
X152342754Y-44167645D01*
X152378405Y-44107561D01*
X152382193Y-44104034D01*
X152427679Y-44077089D01*
X152476516Y-44060908D01*
X152623350Y-43970340D01*
X152745340Y-43848350D01*
X152835908Y-43701516D01*
X152890174Y-43537753D01*
X152900500Y-43436677D01*
X152900499Y-42738324D01*
X152896558Y-42699747D01*
X152890174Y-42637247D01*
X152879797Y-42605932D01*
X152835908Y-42473484D01*
X152745340Y-42326650D01*
X152623350Y-42204660D01*
X152623347Y-42204658D01*
X152623346Y-42204657D01*
X152481774Y-42117334D01*
X152481774Y-42117333D01*
X152481771Y-42117333D01*
X152476520Y-42114094D01*
X152476521Y-42114094D01*
X152476518Y-42114093D01*
X152476513Y-42114091D01*
X152475069Y-42113612D01*
X152475053Y-42113606D01*
X152321221Y-42062632D01*
X152318401Y-42061466D01*
X152312748Y-42059824D01*
X152211687Y-42049500D01*
X152211678Y-42049500D01*
X151638330Y-42049500D01*
X151638312Y-42049501D01*
X151638290Y-42049503D01*
X151638280Y-42049504D01*
X151537250Y-42059824D01*
X151373477Y-42114094D01*
X151226651Y-42204658D01*
X151226647Y-42204661D01*
X151104661Y-42326647D01*
X151104658Y-42326651D01*
X151014094Y-42473477D01*
X151014092Y-42473481D01*
X151014052Y-42473604D01*
X151014051Y-42473603D01*
X150985500Y-42559768D01*
X150985499Y-42559771D01*
X150970202Y-42605932D01*
X150954444Y-42637515D01*
X150948006Y-42646813D01*
X150893659Y-42690724D01*
X150824199Y-42698282D01*
X150761683Y-42667089D01*
X150757883Y-42663561D01*
X150727715Y-42620163D01*
X150704383Y-42563835D01*
X150703257Y-42560820D01*
X150702697Y-42559765D01*
X150636582Y-42473604D01*
X150610451Y-42439549D01*
X150490233Y-42347302D01*
X150490229Y-42347300D01*
X150374998Y-42299570D01*
X150374995Y-42299568D01*
X150350240Y-42289314D01*
X150350236Y-42289313D01*
X150335698Y-42287399D01*
X150237727Y-42274500D01*
X150012265Y-42274500D01*
X149927192Y-42285702D01*
X149927191Y-42285701D01*
X149922368Y-42286337D01*
X149906176Y-42287399D01*
X149843830Y-42287399D01*
X149827643Y-42286338D01*
X149821271Y-42285499D01*
X149821271Y-42285498D01*
X149737734Y-42274500D01*
X149737727Y-42274500D01*
X149737720Y-42274500D01*
X149512280Y-42274500D01*
X149512272Y-42274500D01*
X149512265Y-42274500D01*
X149427192Y-42285702D01*
X149427191Y-42285701D01*
X149422368Y-42286337D01*
X149406176Y-42287399D01*
X149343830Y-42287399D01*
X149327643Y-42286338D01*
X149321271Y-42285499D01*
X149321271Y-42285498D01*
X149237734Y-42274500D01*
X149237727Y-42274500D01*
X149237720Y-42274500D01*
X149012280Y-42274500D01*
X149012272Y-42274500D01*
X149012265Y-42274500D01*
X148927192Y-42285702D01*
X148927191Y-42285701D01*
X148922368Y-42286337D01*
X148906176Y-42287399D01*
X148843830Y-42287399D01*
X148827643Y-42286338D01*
X148821271Y-42285499D01*
X148821271Y-42285498D01*
X148737734Y-42274500D01*
X148737727Y-42274500D01*
X148737720Y-42274500D01*
X148512280Y-42274500D01*
X148512272Y-42274500D01*
X148512265Y-42274500D01*
X148427192Y-42285702D01*
X148427191Y-42285701D01*
X148422368Y-42286337D01*
X148406176Y-42287399D01*
X148343830Y-42287399D01*
X148327643Y-42286338D01*
X148321271Y-42285499D01*
X148321271Y-42285498D01*
X148237734Y-42274500D01*
X148237727Y-42274500D01*
X148237720Y-42274500D01*
X148012280Y-42274500D01*
X148012272Y-42274500D01*
X148012265Y-42274500D01*
X147927192Y-42285702D01*
X147927191Y-42285701D01*
X147922368Y-42286337D01*
X147906176Y-42287399D01*
X147843830Y-42287399D01*
X147827643Y-42286338D01*
X147821271Y-42285499D01*
X147821271Y-42285498D01*
X147737734Y-42274500D01*
X147737727Y-42274500D01*
X147737720Y-42274500D01*
X147512280Y-42274500D01*
X147512272Y-42274500D01*
X147512265Y-42274500D01*
X147427192Y-42285702D01*
X147427191Y-42285701D01*
X147422368Y-42286337D01*
X147406176Y-42287399D01*
X147343830Y-42287399D01*
X147327643Y-42286338D01*
X147321271Y-42285499D01*
X147321271Y-42285498D01*
X147237734Y-42274500D01*
X147237727Y-42274500D01*
X147237720Y-42274500D01*
X147012280Y-42274500D01*
X147012272Y-42274500D01*
X147012265Y-42274500D01*
X146927192Y-42285702D01*
X146927191Y-42285701D01*
X146922368Y-42286337D01*
X146906176Y-42287399D01*
X146843830Y-42287399D01*
X146827643Y-42286338D01*
X146821271Y-42285499D01*
X146821271Y-42285498D01*
X146737734Y-42274500D01*
X146737727Y-42274500D01*
X146737720Y-42274500D01*
X146512280Y-42274500D01*
X146512272Y-42274500D01*
X146512265Y-42274500D01*
X146427192Y-42285702D01*
X146427191Y-42285701D01*
X146422368Y-42286337D01*
X146406176Y-42287399D01*
X146343830Y-42287399D01*
X146327643Y-42286338D01*
X146321271Y-42285499D01*
X146321271Y-42285498D01*
X146237734Y-42274500D01*
X146237727Y-42274500D01*
X146237720Y-42274500D01*
X146012280Y-42274500D01*
X146012272Y-42274500D01*
X146012265Y-42274500D01*
X145927192Y-42285702D01*
X145927191Y-42285701D01*
X145922368Y-42286337D01*
X145906176Y-42287399D01*
X145843830Y-42287399D01*
X145827643Y-42286338D01*
X145821271Y-42285499D01*
X145821271Y-42285498D01*
X145737734Y-42274500D01*
X145737727Y-42274500D01*
X145737720Y-42274500D01*
X145512280Y-42274500D01*
X145512272Y-42274500D01*
X145407822Y-42288252D01*
X145403760Y-42288518D01*
X145399761Y-42289313D01*
X145259768Y-42347300D01*
X145234289Y-42366851D01*
X145214628Y-42381937D01*
X145183859Y-42399217D01*
X145169279Y-42404854D01*
X145099652Y-42410669D01*
X145090964Y-42408887D01*
X145040392Y-42385791D01*
X145011630Y-42363721D01*
X144990233Y-42347302D01*
X144990232Y-42347301D01*
X144990230Y-42347300D01*
X144989469Y-42346984D01*
X144989468Y-42346984D01*
X144874998Y-42299570D01*
X144852803Y-42290376D01*
X144852800Y-42290374D01*
X144852800Y-42290375D01*
X144850241Y-42289314D01*
X144850236Y-42289313D01*
X144850234Y-42289312D01*
X144850230Y-42289312D01*
X144820955Y-42285457D01*
X144802606Y-42283042D01*
X144802605Y-42283041D01*
X144789177Y-42281274D01*
X144755188Y-42271731D01*
X144745126Y-42267279D01*
X144691784Y-42222152D01*
X144671308Y-42155351D01*
X144690197Y-42088083D01*
X144731405Y-42047612D01*
X144734539Y-42045728D01*
X144755090Y-42035821D01*
X144778048Y-42027258D01*
X144782257Y-42026060D01*
X144783753Y-42025393D01*
X144790995Y-42022428D01*
X144794305Y-42021193D01*
X144803405Y-42011762D01*
X144902546Y-41937546D01*
X144988796Y-41822331D01*
X145039091Y-41687483D01*
X145045500Y-41627873D01*
X145045499Y-40032128D01*
X145039091Y-39972517D01*
X145039091Y-39972516D01*
X145039089Y-39972510D01*
X145024245Y-39932713D01*
X145024240Y-39932700D01*
X145024229Y-39932671D01*
X144988797Y-39837671D01*
X144988793Y-39837664D01*
X144914424Y-39738321D01*
X144902548Y-39722456D01*
X144902542Y-39722450D01*
X144838489Y-39674500D01*
X144787335Y-39636206D01*
X144787332Y-39636204D01*
X144787330Y-39636203D01*
X144787328Y-39636202D01*
X144737844Y-39617746D01*
X144702497Y-39591284D01*
X144600583Y-39580328D01*
X144595742Y-39579500D01*
X144592881Y-39579500D01*
X144592873Y-39579500D01*
X144592864Y-39579500D01*
X143497129Y-39579500D01*
X143497123Y-39579500D01*
X143495194Y-39579659D01*
X143493546Y-39579885D01*
X143446411Y-39584952D01*
X143441985Y-39585347D01*
X143390327Y-39589034D01*
X143356334Y-39586302D01*
X143356290Y-39586560D01*
X143353415Y-39586067D01*
X143353031Y-39586037D01*
X143352491Y-39585909D01*
X143352471Y-39585906D01*
X143300582Y-39580327D01*
X143295746Y-39579500D01*
X143292881Y-39579500D01*
X143292873Y-39579500D01*
X143292864Y-39579500D01*
X142197129Y-39579500D01*
X142197123Y-39579500D01*
X142195192Y-39579659D01*
X142193545Y-39579885D01*
X142142735Y-39585347D01*
X142137516Y-39585908D01*
X142052152Y-39617747D01*
X142002666Y-39636204D01*
X142002665Y-39636205D01*
X141887456Y-39722450D01*
X141884105Y-39725355D01*
X141883980Y-39725211D01*
X141875955Y-39732163D01*
X141860188Y-39743964D01*
X141794722Y-39768376D01*
X141726451Y-39753519D01*
X141721553Y-39750844D01*
X141675449Y-39707112D01*
X141610213Y-39601345D01*
X141533656Y-39524788D01*
X141512507Y-39496538D01*
X141507085Y-39486608D01*
X141492232Y-39418338D01*
X141516646Y-39352873D01*
X141572576Y-39311001D01*
X141576455Y-39309554D01*
X141579791Y-39308311D01*
X141623105Y-39300500D01*
X147036118Y-39300500D01*
X147071045Y-39305521D01*
X147081898Y-39308707D01*
X147140679Y-39346477D01*
X147169708Y-39410031D01*
X147159769Y-39479190D01*
X147159762Y-39479205D01*
X147156577Y-39486178D01*
X147131468Y-39522340D01*
X147042162Y-39611646D01*
X147042161Y-39611648D01*
X146960548Y-39743964D01*
X146951591Y-39758485D01*
X146951584Y-39758503D01*
X146935287Y-39807688D01*
X146935286Y-39807691D01*
X146907623Y-39891168D01*
X146899177Y-39904111D01*
X146897690Y-39918673D01*
X146896867Y-39924919D01*
X146896684Y-39928521D01*
X146887000Y-40023305D01*
X146887000Y-40023315D01*
X146887000Y-40596669D01*
X146887001Y-40596687D01*
X146887003Y-40596711D01*
X146887004Y-40596718D01*
X146897324Y-40697752D01*
X146933608Y-40807248D01*
X146951590Y-40861513D01*
X146951592Y-40861516D01*
X147042160Y-41008350D01*
X147164150Y-41130340D01*
X147310984Y-41220908D01*
X147474747Y-41275174D01*
X147575823Y-41285500D01*
X148174176Y-41285499D01*
X148174226Y-41285499D01*
X148174393Y-41285489D01*
X148175500Y-41285363D01*
X148219842Y-41280833D01*
X148229531Y-41279844D01*
X148229531Y-41279843D01*
X148275253Y-41275174D01*
X148439016Y-41220908D01*
X148585850Y-41130340D01*
X148707840Y-41008350D01*
X148763132Y-40918707D01*
X152929500Y-40918707D01*
X152929500Y-41131291D01*
X152938943Y-41190908D01*
X152954532Y-41289336D01*
X152962754Y-41341243D01*
X152979597Y-41393079D01*
X153019551Y-41516047D01*
X153028442Y-41543410D01*
X153028443Y-41543412D01*
X153123100Y-41729189D01*
X153124951Y-41732820D01*
X153249890Y-41904786D01*
X153249892Y-41904788D01*
X153400216Y-42055112D01*
X153572183Y-42180052D01*
X153572471Y-42180197D01*
X153761588Y-42276557D01*
X153963757Y-42342246D01*
X154173713Y-42375500D01*
X154173714Y-42375500D01*
X154386286Y-42375500D01*
X154386287Y-42375500D01*
X154596243Y-42342246D01*
X154798412Y-42276557D01*
X154987816Y-42180051D01*
X155074138Y-42117335D01*
X155159786Y-42055109D01*
X155159788Y-42055106D01*
X155159792Y-42055104D01*
X155159796Y-42055099D01*
X155159849Y-42055061D01*
X155160605Y-42054290D01*
X155309290Y-41905605D01*
X155310062Y-41904848D01*
X155310100Y-41904795D01*
X155310104Y-41904792D01*
X155310106Y-41904788D01*
X155310109Y-41904786D01*
X155429318Y-41740705D01*
X155429324Y-41740700D01*
X155437907Y-41728885D01*
X155437908Y-41728883D01*
X155443065Y-41721784D01*
X155453238Y-41709522D01*
X155460651Y-41701673D01*
X155520994Y-41666455D01*
X155590799Y-41669450D01*
X155644506Y-41705614D01*
X155650711Y-41712776D01*
X155662726Y-41729189D01*
X155664946Y-41732813D01*
X155664950Y-41732819D01*
X155664951Y-41732820D01*
X155789890Y-41904786D01*
X155789892Y-41904788D01*
X155940216Y-42055112D01*
X156112183Y-42180052D01*
X156112471Y-42180197D01*
X156301588Y-42276557D01*
X156503757Y-42342246D01*
X156713713Y-42375500D01*
X156713714Y-42375500D01*
X156926286Y-42375500D01*
X156926287Y-42375500D01*
X157136243Y-42342246D01*
X157338412Y-42276557D01*
X157527816Y-42180051D01*
X157614138Y-42117335D01*
X157699786Y-42055109D01*
X157699788Y-42055106D01*
X157699792Y-42055104D01*
X157699796Y-42055099D01*
X157699849Y-42055061D01*
X157700605Y-42054290D01*
X157849290Y-41905605D01*
X157850062Y-41904848D01*
X157850100Y-41904795D01*
X157850104Y-41904792D01*
X157850106Y-41904788D01*
X157850109Y-41904786D01*
X157969318Y-41740705D01*
X157969324Y-41740700D01*
X157977907Y-41728885D01*
X157977908Y-41728883D01*
X157983065Y-41721784D01*
X157993238Y-41709522D01*
X158000651Y-41701673D01*
X158060994Y-41666455D01*
X158130799Y-41669450D01*
X158184506Y-41705614D01*
X158190711Y-41712776D01*
X158202726Y-41729189D01*
X158204946Y-41732813D01*
X158204950Y-41732819D01*
X158204951Y-41732820D01*
X158329890Y-41904786D01*
X158329892Y-41904788D01*
X158480216Y-42055112D01*
X158652183Y-42180052D01*
X158652471Y-42180197D01*
X158841588Y-42276557D01*
X159043757Y-42342246D01*
X159253713Y-42375500D01*
X159253714Y-42375500D01*
X159466286Y-42375500D01*
X159466287Y-42375500D01*
X159676243Y-42342246D01*
X159878412Y-42276557D01*
X160067816Y-42180051D01*
X160204840Y-42080498D01*
X160236312Y-42057632D01*
X160238535Y-42056132D01*
X160241977Y-42053516D01*
X160247827Y-42049265D01*
X160253664Y-42041231D01*
X160340725Y-41954169D01*
X160368973Y-41933023D01*
X160381156Y-41926371D01*
X160449427Y-41911521D01*
X160514891Y-41935939D01*
X160514898Y-41935943D01*
X160518571Y-41938693D01*
X160560435Y-41994621D01*
X160572161Y-42026060D01*
X160606202Y-42117328D01*
X160606206Y-42117335D01*
X160639891Y-42162332D01*
X160692450Y-42232542D01*
X160692452Y-42232544D01*
X160692455Y-42232547D01*
X160807664Y-42318793D01*
X160807671Y-42318797D01*
X160857155Y-42337253D01*
X160892513Y-42363721D01*
X160949444Y-42369835D01*
X160949443Y-42369839D01*
X160949458Y-42369836D01*
X161002127Y-42375500D01*
X162797872Y-42375499D01*
X162857483Y-42369091D01*
X162992331Y-42318796D01*
X163107546Y-42232546D01*
X163193796Y-42117331D01*
X163244091Y-41982483D01*
X163250500Y-41922873D01*
X163250499Y-40127128D01*
X163244091Y-40067517D01*
X163242810Y-40064083D01*
X163193797Y-39932671D01*
X163193793Y-39932664D01*
X163107547Y-39817455D01*
X163107544Y-39817452D01*
X163107542Y-39817450D01*
X163022141Y-39753519D01*
X162992335Y-39731206D01*
X162992332Y-39731204D01*
X162992330Y-39731203D01*
X162992328Y-39731202D01*
X162942844Y-39712746D01*
X162907497Y-39686284D01*
X162805583Y-39675328D01*
X162800742Y-39674500D01*
X162797881Y-39674500D01*
X162797873Y-39674500D01*
X162797864Y-39674500D01*
X161002129Y-39674500D01*
X161002123Y-39674500D01*
X161000192Y-39674659D01*
X160998545Y-39674885D01*
X160942516Y-39680908D01*
X160814313Y-39728725D01*
X160807666Y-39731204D01*
X160807665Y-39731205D01*
X160692456Y-39817450D01*
X160692450Y-39817456D01*
X160606208Y-39932661D01*
X160606206Y-39932664D01*
X160606202Y-39932671D01*
X160563419Y-40047377D01*
X160546503Y-40078355D01*
X160538186Y-40089465D01*
X160482252Y-40131336D01*
X160412568Y-40136321D01*
X160408085Y-40135346D01*
X160346760Y-40101864D01*
X160239788Y-39994892D01*
X160239787Y-39994891D01*
X160239786Y-39994890D01*
X160067820Y-39869951D01*
X159923652Y-39796494D01*
X159895911Y-39782359D01*
X159890571Y-39778479D01*
X159866254Y-39768406D01*
X159859734Y-39767374D01*
X159798726Y-39747551D01*
X159685074Y-39710623D01*
X159680552Y-39708770D01*
X159671362Y-39706600D01*
X159666599Y-39706226D01*
X159514957Y-39682208D01*
X159495489Y-39679124D01*
X159466290Y-39674500D01*
X159466287Y-39674500D01*
X159253713Y-39674500D01*
X159253709Y-39674500D01*
X159214776Y-39680666D01*
X159205042Y-39682208D01*
X159179308Y-39686284D01*
X159043763Y-39707752D01*
X159043762Y-39707752D01*
X158968634Y-39732163D01*
X158949682Y-39738321D01*
X158861935Y-39766832D01*
X158857183Y-39768376D01*
X158841583Y-39773444D01*
X158652182Y-39869949D01*
X158652179Y-39869950D01*
X158652179Y-39869951D01*
X158618863Y-39894156D01*
X158480210Y-39994892D01*
X158329892Y-40145210D01*
X158329890Y-40145213D01*
X158204952Y-40317179D01*
X158204945Y-40317188D01*
X158204634Y-40317696D01*
X158203499Y-40319177D01*
X158202085Y-40321125D01*
X158202036Y-40321089D01*
X158189060Y-40338041D01*
X158179353Y-40348319D01*
X158119011Y-40383542D01*
X158049205Y-40380550D01*
X157995488Y-40344378D01*
X157989285Y-40337219D01*
X157977274Y-40320811D01*
X157975053Y-40317187D01*
X157975051Y-40317184D01*
X157975050Y-40317182D01*
X157850109Y-40145213D01*
X157699786Y-39994890D01*
X157527820Y-39869951D01*
X157383652Y-39796494D01*
X157355911Y-39782359D01*
X157350571Y-39778479D01*
X157326254Y-39768406D01*
X157319734Y-39767374D01*
X157258726Y-39747551D01*
X157145074Y-39710623D01*
X157140552Y-39708770D01*
X157131362Y-39706600D01*
X157126599Y-39706226D01*
X156974957Y-39682208D01*
X156955489Y-39679124D01*
X156926290Y-39674500D01*
X156926287Y-39674500D01*
X156713713Y-39674500D01*
X156713709Y-39674500D01*
X156674776Y-39680666D01*
X156665042Y-39682208D01*
X156639308Y-39686284D01*
X156503763Y-39707752D01*
X156503762Y-39707752D01*
X156428634Y-39732163D01*
X156409682Y-39738321D01*
X156321935Y-39766832D01*
X156317183Y-39768376D01*
X156301583Y-39773444D01*
X156112182Y-39869949D01*
X156112179Y-39869950D01*
X156112179Y-39869951D01*
X156078863Y-39894156D01*
X155940210Y-39994892D01*
X155789892Y-40145210D01*
X155789890Y-40145213D01*
X155664952Y-40317179D01*
X155664945Y-40317188D01*
X155664634Y-40317696D01*
X155663499Y-40319177D01*
X155662085Y-40321125D01*
X155662036Y-40321089D01*
X155649060Y-40338041D01*
X155639353Y-40348319D01*
X155579011Y-40383542D01*
X155509205Y-40380550D01*
X155455488Y-40344378D01*
X155449285Y-40337219D01*
X155437274Y-40320811D01*
X155435053Y-40317187D01*
X155435051Y-40317184D01*
X155435050Y-40317182D01*
X155310109Y-40145213D01*
X155159786Y-39994890D01*
X154987820Y-39869951D01*
X154843652Y-39796494D01*
X154815911Y-39782359D01*
X154810571Y-39778479D01*
X154786254Y-39768406D01*
X154779734Y-39767374D01*
X154718726Y-39747551D01*
X154605074Y-39710623D01*
X154600552Y-39708770D01*
X154591362Y-39706600D01*
X154586599Y-39706226D01*
X154434957Y-39682208D01*
X154415489Y-39679124D01*
X154386290Y-39674500D01*
X154386287Y-39674500D01*
X154173713Y-39674500D01*
X154173709Y-39674500D01*
X154134776Y-39680666D01*
X154125042Y-39682208D01*
X154099308Y-39686284D01*
X153963763Y-39707752D01*
X153963762Y-39707752D01*
X153888634Y-39732163D01*
X153869682Y-39738321D01*
X153781935Y-39766832D01*
X153777183Y-39768376D01*
X153761583Y-39773444D01*
X153572182Y-39869949D01*
X153572179Y-39869950D01*
X153572179Y-39869951D01*
X153538863Y-39894156D01*
X153400210Y-39994892D01*
X153249892Y-40145210D01*
X153249890Y-40145213D01*
X153138694Y-40298264D01*
X153124949Y-40317182D01*
X153028445Y-40506580D01*
X152962752Y-40708759D01*
X152929500Y-40918707D01*
X148763132Y-40918707D01*
X148798408Y-40861516D01*
X148852674Y-40697753D01*
X148863000Y-40596677D01*
X148862999Y-40023324D01*
X148860094Y-39994890D01*
X148852674Y-39922247D01*
X148838937Y-39880792D01*
X148798408Y-39758484D01*
X148707840Y-39611650D01*
X148620978Y-39524788D01*
X148599829Y-39496538D01*
X148594407Y-39486608D01*
X148579554Y-39418338D01*
X148603968Y-39352873D01*
X148659898Y-39311001D01*
X148663777Y-39309554D01*
X148667113Y-39308311D01*
X148710427Y-39300500D01*
X168993357Y-39300500D01*
X168997779Y-39300579D01*
X169001764Y-39300721D01*
X169002208Y-39300737D01*
X169006619Y-39300973D01*
X169228625Y-39316850D01*
X169237385Y-39317792D01*
X169246168Y-39319055D01*
X169254849Y-39320622D01*
X169465822Y-39366516D01*
X169474373Y-39368698D01*
X169482858Y-39371189D01*
X169491238Y-39373977D01*
X169693562Y-39449441D01*
X169701725Y-39452823D01*
X169709745Y-39456486D01*
X169709754Y-39456490D01*
X169717662Y-39460449D01*
X169907141Y-39563912D01*
X169914758Y-39568431D01*
X169922206Y-39573218D01*
X169929472Y-39578264D01*
X170102284Y-39707629D01*
X170109176Y-39713183D01*
X170115865Y-39718979D01*
X170122344Y-39725011D01*
X170274987Y-39877654D01*
X170281019Y-39884133D01*
X170286815Y-39890822D01*
X170292369Y-39897714D01*
X170421734Y-40070526D01*
X170426780Y-40077792D01*
X170431567Y-40085240D01*
X170436086Y-40092857D01*
X170539544Y-40282325D01*
X170543508Y-40290244D01*
X170547179Y-40298283D01*
X170550565Y-40306457D01*
X170626015Y-40508745D01*
X170628813Y-40517154D01*
X170631299Y-40525623D01*
X170633485Y-40534190D01*
X170679373Y-40745134D01*
X170680945Y-40753844D01*
X170682204Y-40762600D01*
X170683150Y-40771402D01*
X170699025Y-40993370D01*
X170699261Y-40997764D01*
X170699420Y-41002190D01*
X170699500Y-41006642D01*
X170699500Y-46965860D01*
X170694476Y-47000798D01*
X170691289Y-47011651D01*
X170653514Y-47070428D01*
X170589957Y-47099451D01*
X170520799Y-47089506D01*
X170517981Y-47088219D01*
X170469176Y-47048310D01*
X170461489Y-47037729D01*
X170416111Y-46975272D01*
X170289728Y-46848889D01*
X170145132Y-46743833D01*
X170071222Y-46706174D01*
X169992337Y-46665980D01*
X169990723Y-46665035D01*
X169985879Y-46662689D01*
X169815899Y-46607459D01*
X169698210Y-46588820D01*
X169698209Y-46588820D01*
X169639366Y-46579500D01*
X169639365Y-46579500D01*
X169460635Y-46579500D01*
X169460634Y-46579500D01*
X169401790Y-46588820D01*
X169345912Y-46597670D01*
X169300406Y-46604877D01*
X169284520Y-46606353D01*
X169256093Y-46607158D01*
X169188523Y-46589379D01*
X169141294Y-46537894D01*
X169138199Y-46531596D01*
X169125500Y-46476931D01*
X169125500Y-42336125D01*
X169125074Y-42334169D01*
X169090896Y-42162341D01*
X169090893Y-42162332D01*
X169088001Y-42155351D01*
X169054651Y-42074835D01*
X169023016Y-41998459D01*
X169023009Y-41998446D01*
X168924464Y-41850965D01*
X168924461Y-41850961D01*
X168924456Y-41850955D01*
X168799043Y-41725542D01*
X168799037Y-41725537D01*
X168799036Y-41725536D01*
X168651559Y-41626994D01*
X168651558Y-41626993D01*
X168651553Y-41626990D01*
X168651540Y-41626983D01*
X168630097Y-41618101D01*
X168487676Y-41559109D01*
X168487653Y-41559101D01*
X168487646Y-41559099D01*
X168313698Y-41524500D01*
X168313694Y-41524500D01*
X168313691Y-41524500D01*
X168136309Y-41524500D01*
X168136306Y-41524500D01*
X168136301Y-41524500D01*
X167962352Y-41559100D01*
X167962345Y-41559101D01*
X167962322Y-41559109D01*
X167798472Y-41626977D01*
X167798454Y-41626985D01*
X167798439Y-41626994D01*
X167650962Y-41725536D01*
X167650961Y-41725537D01*
X167650955Y-41725542D01*
X167525542Y-41850955D01*
X167525537Y-41850961D01*
X167525536Y-41850962D01*
X167426994Y-41998439D01*
X167426985Y-41998454D01*
X167426977Y-41998472D01*
X167359109Y-42162322D01*
X167359101Y-42162345D01*
X167359099Y-42162352D01*
X167324500Y-42336299D01*
X167324500Y-43578522D01*
X167319476Y-43613460D01*
X167316289Y-43624313D01*
X167278514Y-43683090D01*
X167214957Y-43712113D01*
X167145849Y-43702191D01*
X167145288Y-43701934D01*
X167101130Y-43668063D01*
X167099698Y-43666328D01*
X167087938Y-43649390D01*
X167066787Y-43612756D01*
X167066786Y-43612755D01*
X167066785Y-43612753D01*
X167000273Y-43497550D01*
X167000267Y-43497542D01*
X166953564Y-43436677D01*
X166856599Y-43310309D01*
X166856595Y-43310305D01*
X166856593Y-43310302D01*
X166856587Y-43310295D01*
X166689704Y-43143412D01*
X166689697Y-43143406D01*
X166689694Y-43143403D01*
X166689689Y-43143399D01*
X166504040Y-43000947D01*
X166502776Y-42999944D01*
X166502447Y-42999725D01*
X166502445Y-42999723D01*
X166420957Y-42952677D01*
X166420955Y-42952675D01*
X166298065Y-42881724D01*
X166298048Y-42881715D01*
X166079997Y-42791395D01*
X165881956Y-42738330D01*
X165852010Y-42730306D01*
X165852009Y-42730305D01*
X165852006Y-42730305D01*
X165619889Y-42699747D01*
X165618208Y-42699500D01*
X165618017Y-42699500D01*
X165618011Y-42699500D01*
X165381989Y-42699500D01*
X165381983Y-42699500D01*
X165381981Y-42699500D01*
X165375861Y-42700253D01*
X165374955Y-42700425D01*
X165147992Y-42730305D01*
X164920001Y-42791395D01*
X164701950Y-42881715D01*
X164701942Y-42881719D01*
X164497545Y-42999730D01*
X164497536Y-42999736D01*
X164310309Y-43143399D01*
X164310294Y-43143413D01*
X164310286Y-43143420D01*
X164143420Y-43310286D01*
X164143413Y-43310294D01*
X164143399Y-43310309D01*
X163999736Y-43497536D01*
X163999730Y-43497545D01*
X163881723Y-43701936D01*
X163881715Y-43701950D01*
X163791395Y-43920001D01*
X163730305Y-44147992D01*
X163699503Y-44381963D01*
X163699500Y-44381987D01*
X163699500Y-44618011D01*
X163699503Y-44618036D01*
X163726485Y-44822988D01*
X163730307Y-44852014D01*
X163745603Y-44909103D01*
X163745604Y-44909103D01*
X163791395Y-45079997D01*
X163867763Y-45264365D01*
X163881714Y-45298045D01*
X163881719Y-45298056D01*
X163881722Y-45298062D01*
X163881724Y-45298065D01*
X163942681Y-45403644D01*
X163942683Y-45403647D01*
X163999723Y-45502444D01*
X163999725Y-45502447D01*
X163999944Y-45502776D01*
X164000947Y-45504040D01*
X164143399Y-45689689D01*
X164143403Y-45689694D01*
X164143406Y-45689697D01*
X164143412Y-45689704D01*
X164143420Y-45689712D01*
X164310281Y-45856574D01*
X164310297Y-45856589D01*
X164310305Y-45856595D01*
X164497548Y-46000272D01*
X164497550Y-46000273D01*
X164628918Y-46076118D01*
X164698516Y-46116301D01*
X164700255Y-46117382D01*
X164701708Y-46118189D01*
X164702447Y-46118489D01*
X164920007Y-46208606D01*
X165147986Y-46269693D01*
X165381989Y-46300500D01*
X165381996Y-46300500D01*
X165618004Y-46300500D01*
X165618011Y-46300500D01*
X165852014Y-46269693D01*
X166079993Y-46208606D01*
X166298049Y-46118284D01*
X166502450Y-46000273D01*
X166689699Y-45856592D01*
X166856592Y-45689699D01*
X167000273Y-45502450D01*
X167084200Y-45357083D01*
X167106009Y-45329349D01*
X167114199Y-45321540D01*
X167176298Y-45289524D01*
X167245852Y-45296163D01*
X167300775Y-45339351D01*
X167300822Y-45339418D01*
X167301179Y-45339920D01*
X167322405Y-45391193D01*
X167322778Y-45393408D01*
X167324500Y-45413999D01*
X167324500Y-49018696D01*
X167333774Y-49065320D01*
X167359102Y-49192658D01*
X167359104Y-49192663D01*
X167359105Y-49192666D01*
X167362045Y-49199763D01*
X167362417Y-49200661D01*
X167362416Y-49200661D01*
X167362418Y-49200664D01*
X167426981Y-49356536D01*
X167426987Y-49356547D01*
X167466381Y-49415505D01*
X167466389Y-49415516D01*
X167509797Y-49480481D01*
X167509798Y-49480483D01*
X167509799Y-49480483D01*
X167525536Y-49504037D01*
X167525538Y-49504039D01*
X168382554Y-50361054D01*
X168403705Y-50389307D01*
X168418651Y-50416678D01*
X168432292Y-50456707D01*
X168442459Y-50520897D01*
X168497688Y-50690877D01*
X168500035Y-50695723D01*
X168500980Y-50697337D01*
X168548313Y-50790233D01*
X168578833Y-50850132D01*
X168683889Y-50994728D01*
X168810272Y-51121111D01*
X168954868Y-51226167D01*
X169114119Y-51307309D01*
X169114121Y-51307310D01*
X169272670Y-51358825D01*
X169284103Y-51362540D01*
X169460634Y-51390500D01*
X169460635Y-51390500D01*
X169639365Y-51390500D01*
X169639366Y-51390500D01*
X169815897Y-51362540D01*
X169815900Y-51362539D01*
X169815901Y-51362539D01*
X169815905Y-51362537D01*
X169815909Y-51362537D01*
X169816174Y-51362450D01*
X169981249Y-51308813D01*
X169984471Y-51308721D01*
X169990337Y-51306291D01*
X169990625Y-51306170D01*
X169990641Y-51306166D01*
X169995165Y-51304292D01*
X170003150Y-51301697D01*
X170012399Y-51293797D01*
X170145132Y-51226167D01*
X170289728Y-51121111D01*
X170416111Y-50994728D01*
X170464703Y-50927845D01*
X170489297Y-50902538D01*
X170498257Y-50895629D01*
X170563366Y-50870281D01*
X170631844Y-50884157D01*
X170681933Y-50932823D01*
X170683457Y-50935522D01*
X170699500Y-50996523D01*
X170699500Y-52045860D01*
X170694476Y-52080798D01*
X170691289Y-52091651D01*
X170653514Y-52150428D01*
X170589957Y-52179451D01*
X170520819Y-52169515D01*
X170517996Y-52168226D01*
X170469177Y-52128311D01*
X170456534Y-52110909D01*
X170456532Y-52110907D01*
X170456531Y-52110906D01*
X170416111Y-52055272D01*
X170289728Y-51928889D01*
X170145132Y-51823833D01*
X170122391Y-51812246D01*
X169992337Y-51745980D01*
X169990723Y-51745035D01*
X169985879Y-51742689D01*
X169815899Y-51687459D01*
X169698210Y-51668820D01*
X169698209Y-51668820D01*
X169639366Y-51659500D01*
X169639365Y-51659500D01*
X169460635Y-51659500D01*
X169460634Y-51659500D01*
X169401790Y-51668820D01*
X169293742Y-51685933D01*
X169293734Y-51685933D01*
X169293735Y-51685934D01*
X169284094Y-51687460D01*
X169114119Y-51742689D01*
X169109275Y-51745035D01*
X169107661Y-51745980D01*
X168954866Y-51823833D01*
X168810268Y-51928891D01*
X168683891Y-52055268D01*
X168578833Y-52199866D01*
X168500980Y-52352661D01*
X168500035Y-52354275D01*
X168497689Y-52359119D01*
X168442460Y-52529094D01*
X168440934Y-52538735D01*
X168440933Y-52538734D01*
X168440933Y-52538741D01*
X168429381Y-52611677D01*
X168429283Y-52612294D01*
X168414500Y-52705629D01*
X168414500Y-52705634D01*
X168414500Y-52884366D01*
X168422047Y-52932016D01*
X168427756Y-52968064D01*
X168440933Y-53051256D01*
X168440934Y-53051264D01*
X168442460Y-53060904D01*
X168497689Y-53230879D01*
X168500035Y-53235723D01*
X168500980Y-53237337D01*
X168533158Y-53300489D01*
X168578833Y-53390132D01*
X168683889Y-53534728D01*
X168810272Y-53661111D01*
X168954868Y-53766167D01*
X169114119Y-53847309D01*
X169114121Y-53847310D01*
X169272670Y-53898825D01*
X169284103Y-53902540D01*
X169460634Y-53930500D01*
X169460635Y-53930500D01*
X169639365Y-53930500D01*
X169639366Y-53930500D01*
X169815897Y-53902540D01*
X169815900Y-53902539D01*
X169815901Y-53902539D01*
X169815905Y-53902537D01*
X169815909Y-53902537D01*
X169816174Y-53902450D01*
X169981249Y-53848813D01*
X169984471Y-53848721D01*
X169990337Y-53846291D01*
X169990625Y-53846170D01*
X169990641Y-53846166D01*
X169995165Y-53844292D01*
X170003150Y-53841697D01*
X170012399Y-53833797D01*
X170145132Y-53766167D01*
X170289728Y-53661111D01*
X170416111Y-53534728D01*
X170464703Y-53467845D01*
X170489297Y-53442538D01*
X170498257Y-53435629D01*
X170563366Y-53410281D01*
X170631844Y-53424157D01*
X170681933Y-53472823D01*
X170683457Y-53475522D01*
X170699500Y-53536523D01*
X170699500Y-54585860D01*
X170694476Y-54620798D01*
X170691289Y-54631651D01*
X170653514Y-54690428D01*
X170589957Y-54719451D01*
X170520819Y-54709515D01*
X170517996Y-54708226D01*
X170469178Y-54668312D01*
X170422227Y-54603689D01*
X170422227Y-54603688D01*
X170422221Y-54603682D01*
X170416114Y-54595275D01*
X170289729Y-54468890D01*
X170145132Y-54363833D01*
X169992337Y-54285980D01*
X169990723Y-54285035D01*
X169985879Y-54282689D01*
X169815899Y-54227459D01*
X169698210Y-54208820D01*
X169698209Y-54208820D01*
X169639366Y-54199500D01*
X169639365Y-54199500D01*
X169460635Y-54199500D01*
X169460634Y-54199500D01*
X169401790Y-54208820D01*
X169293742Y-54225933D01*
X169293734Y-54225933D01*
X169293735Y-54225934D01*
X169284094Y-54227460D01*
X169114119Y-54282689D01*
X169109275Y-54285035D01*
X169107661Y-54285980D01*
X168954866Y-54363833D01*
X168810268Y-54468891D01*
X168683891Y-54595268D01*
X168578833Y-54739866D01*
X168500980Y-54892661D01*
X168500035Y-54894275D01*
X168497689Y-54899119D01*
X168442460Y-55069094D01*
X168440934Y-55078735D01*
X168440933Y-55078734D01*
X168440933Y-55078741D01*
X168414500Y-55245628D01*
X168414500Y-55424370D01*
X168440933Y-55591257D01*
X168440934Y-55591264D01*
X168442460Y-55600904D01*
X168497689Y-55770879D01*
X168500035Y-55775723D01*
X168500980Y-55777337D01*
X168578833Y-55930132D01*
X168683889Y-56074728D01*
X168810272Y-56201111D01*
X168954868Y-56306167D01*
X169114119Y-56387309D01*
X169114121Y-56387310D01*
X169272670Y-56438825D01*
X169284103Y-56442540D01*
X169460634Y-56470500D01*
X169460635Y-56470500D01*
X169639365Y-56470500D01*
X169639366Y-56470500D01*
X169815897Y-56442540D01*
X169815900Y-56442539D01*
X169815901Y-56442539D01*
X169815905Y-56442537D01*
X169815909Y-56442537D01*
X169816174Y-56442450D01*
X169981249Y-56388813D01*
X169984471Y-56388721D01*
X169990337Y-56386291D01*
X169990625Y-56386170D01*
X169990641Y-56386166D01*
X169995165Y-56384292D01*
X170003150Y-56381697D01*
X170012399Y-56373797D01*
X170145132Y-56306167D01*
X170289728Y-56201111D01*
X170416111Y-56074728D01*
X170464703Y-56007845D01*
X170489297Y-55982538D01*
X170498257Y-55975629D01*
X170563366Y-55950281D01*
X170631844Y-55964157D01*
X170681933Y-56012823D01*
X170683457Y-56015522D01*
X170699500Y-56076523D01*
X170699500Y-57125860D01*
X170694476Y-57160798D01*
X170691289Y-57171651D01*
X170653514Y-57230428D01*
X170589957Y-57259451D01*
X170520819Y-57249515D01*
X170517996Y-57248226D01*
X170469178Y-57208312D01*
X170422227Y-57143689D01*
X170422227Y-57143688D01*
X170422221Y-57143682D01*
X170416114Y-57135275D01*
X170289729Y-57008890D01*
X170145132Y-56903833D01*
X169992337Y-56825980D01*
X169990723Y-56825035D01*
X169985879Y-56822689D01*
X169815899Y-56767459D01*
X169698210Y-56748820D01*
X169698209Y-56748820D01*
X169639366Y-56739500D01*
X169639365Y-56739500D01*
X169460635Y-56739500D01*
X169460634Y-56739500D01*
X169401790Y-56748820D01*
X169293742Y-56765933D01*
X169293734Y-56765933D01*
X169293735Y-56765934D01*
X169284094Y-56767460D01*
X169114119Y-56822689D01*
X169109275Y-56825035D01*
X169107661Y-56825980D01*
X168954866Y-56903833D01*
X168810268Y-57008891D01*
X168683891Y-57135268D01*
X168578833Y-57279866D01*
X168500980Y-57432661D01*
X168500035Y-57434275D01*
X168497689Y-57439119D01*
X168442460Y-57609094D01*
X168440934Y-57618735D01*
X168440933Y-57618734D01*
X168440933Y-57618741D01*
X168414500Y-57785628D01*
X168414500Y-57964370D01*
X168440933Y-58131257D01*
X168440934Y-58131264D01*
X168442460Y-58140904D01*
X168497689Y-58310879D01*
X168500035Y-58315723D01*
X168500980Y-58317337D01*
X168578833Y-58470132D01*
X168683889Y-58614728D01*
X168810272Y-58741111D01*
X168810277Y-58741115D01*
X168811775Y-58742394D01*
X168812188Y-58743027D01*
X168813717Y-58744556D01*
X168813395Y-58744877D01*
X168849968Y-58800901D01*
X168850468Y-58870769D01*
X168813114Y-58929815D01*
X168749768Y-58959294D01*
X168713598Y-58959423D01*
X168609800Y-58944500D01*
X168609799Y-58944500D01*
X166357376Y-58944500D01*
X166357364Y-58944500D01*
X166229677Y-58960895D01*
X166169069Y-58976719D01*
X166169057Y-58976722D01*
X166049640Y-59024847D01*
X166049638Y-59024848D01*
X163728408Y-60325634D01*
X162810299Y-60840130D01*
X158170118Y-63440423D01*
X158102012Y-63456024D01*
X158036283Y-63432327D01*
X157993800Y-63376857D01*
X157985499Y-63332254D01*
X157985499Y-62454654D01*
X157985499Y-62454653D01*
X157985499Y-62454645D01*
X157985499Y-62454637D01*
X157979174Y-62385035D01*
X157979174Y-62385033D01*
X157979171Y-62385022D01*
X157929252Y-62224824D01*
X157929250Y-62224820D01*
X157842443Y-62081222D01*
X157842439Y-62081217D01*
X157842437Y-62081215D01*
X157842431Y-62081208D01*
X157723790Y-61962567D01*
X157723783Y-61962561D01*
X157723779Y-61962558D01*
X157723777Y-61962556D01*
X157593060Y-61883536D01*
X157586421Y-61878335D01*
X157580179Y-61875749D01*
X157580178Y-61875749D01*
X157569216Y-61871208D01*
X157562159Y-61870134D01*
X157517790Y-61856308D01*
X157429558Y-61828814D01*
X157427872Y-61827691D01*
X157418634Y-61825510D01*
X157414367Y-61825317D01*
X157401622Y-61824158D01*
X157371221Y-61821396D01*
X157371219Y-61821395D01*
X157350353Y-61819500D01*
X157350347Y-61819500D01*
X157350344Y-61819500D01*
X156349645Y-61819500D01*
X156349638Y-61819500D01*
X156280035Y-61825824D01*
X156280032Y-61825825D01*
X156280029Y-61825826D01*
X156280022Y-61825828D01*
X156267574Y-61829706D01*
X156119826Y-61875745D01*
X156119823Y-61875747D01*
X155976218Y-61962558D01*
X155976215Y-61962561D01*
X155976208Y-61962567D01*
X155857567Y-62081208D01*
X155857555Y-62081222D01*
X155857549Y-62081231D01*
X155770751Y-62224815D01*
X155770749Y-62224819D01*
X155720826Y-62385028D01*
X155720824Y-62385035D01*
X155714500Y-62454646D01*
X155714500Y-63455361D01*
X155720824Y-63524963D01*
X155720825Y-63524966D01*
X155720826Y-63524971D01*
X155770745Y-63685172D01*
X155770747Y-63685175D01*
X155857558Y-63828780D01*
X155857561Y-63828783D01*
X155857567Y-63828790D01*
X155976208Y-63947431D01*
X155976222Y-63947443D01*
X155976226Y-63947446D01*
X156035185Y-63983086D01*
X156075254Y-64007309D01*
X156119822Y-64034251D01*
X156280029Y-64084173D01*
X156349653Y-64090500D01*
X156535142Y-64090499D01*
X156602180Y-64110183D01*
X156647935Y-64162987D01*
X156657879Y-64232145D01*
X156628854Y-64295701D01*
X156595760Y-64322672D01*
X155791261Y-64773503D01*
X155691890Y-64846413D01*
X155648193Y-64887548D01*
X155648186Y-64887556D01*
X155569437Y-64982313D01*
X155569433Y-64982318D01*
X155509663Y-65113192D01*
X155509662Y-65113196D01*
X155489977Y-65180235D01*
X155489976Y-65180239D01*
X155469500Y-65322655D01*
X155469500Y-65675500D01*
X155469501Y-65675509D01*
X155481052Y-65782950D01*
X155481054Y-65782962D01*
X155492260Y-65834472D01*
X155526383Y-65936997D01*
X155526386Y-65937003D01*
X155604171Y-66058037D01*
X155604179Y-66058048D01*
X155649923Y-66110840D01*
X155649926Y-66110843D01*
X155649930Y-66110847D01*
X155758664Y-66205067D01*
X155889541Y-66264838D01*
X155956580Y-66284523D01*
X155956584Y-66284524D01*
X156099000Y-66305000D01*
X157142941Y-66305000D01*
X157155501Y-66305637D01*
X157157799Y-66305872D01*
X157184227Y-66311525D01*
X157215494Y-66321886D01*
X157241583Y-66334052D01*
X157265659Y-66348902D01*
X157288244Y-66366760D01*
X157308238Y-66386754D01*
X157326096Y-66409339D01*
X157340946Y-66433415D01*
X157353112Y-66459506D01*
X157363469Y-66490760D01*
X157369121Y-66517150D01*
X157369356Y-66519448D01*
X157369999Y-66532063D01*
X157369999Y-68367933D01*
X157369356Y-68380542D01*
X157369121Y-68382841D01*
X157363470Y-68409236D01*
X157353113Y-68440491D01*
X157340946Y-68466583D01*
X157326096Y-68490659D01*
X157308238Y-68513244D01*
X157288244Y-68533238D01*
X157265659Y-68551096D01*
X157241583Y-68565946D01*
X157215491Y-68578113D01*
X157184236Y-68588470D01*
X157157858Y-68594120D01*
X157156878Y-68594220D01*
X157155557Y-68594355D01*
X157142936Y-68594999D01*
X156098990Y-68594999D01*
X155991541Y-68606552D01*
X155991534Y-68606553D01*
X155940026Y-68617759D01*
X155837493Y-68651887D01*
X155716462Y-68729669D01*
X155716451Y-68729678D01*
X155663659Y-68775422D01*
X155569433Y-68884163D01*
X155569430Y-68884167D01*
X155509664Y-69015033D01*
X155489976Y-69082081D01*
X155469500Y-69224500D01*
X155469500Y-75907281D01*
X155470155Y-75933029D01*
X155470801Y-75945684D01*
X155472771Y-75971383D01*
X155472772Y-75971390D01*
X155507645Y-76110981D01*
X155534054Y-76175667D01*
X155534055Y-76175670D01*
X155534057Y-76175673D01*
X155605831Y-76298056D01*
X155606837Y-76299772D01*
X155743571Y-76471231D01*
X155751618Y-76482572D01*
X155857457Y-76651014D01*
X155864183Y-76663184D01*
X155950488Y-76842398D01*
X155955809Y-76855245D01*
X156009585Y-77008927D01*
X156009587Y-77008935D01*
X156021506Y-77042997D01*
X156025356Y-77056359D01*
X156061786Y-77215970D01*
X156065455Y-77230981D01*
X156065457Y-77230987D01*
X156067371Y-77238329D01*
X156071499Y-77253225D01*
X156131268Y-77384103D01*
X156157693Y-77425221D01*
X156169039Y-77442877D01*
X156171392Y-77445796D01*
X156171942Y-77446228D01*
X156211692Y-77492102D01*
X156240716Y-77555657D01*
X156230772Y-77624815D01*
X156216482Y-77648623D01*
X156147544Y-77738780D01*
X156113689Y-77799303D01*
X156113453Y-77799719D01*
X156113436Y-77799755D01*
X156061783Y-77934044D01*
X156061782Y-77934048D01*
X156025356Y-78093637D01*
X156021507Y-78106998D01*
X155955808Y-78294757D01*
X155950486Y-78307605D01*
X155864185Y-78486811D01*
X155857459Y-78498981D01*
X155751625Y-78667415D01*
X155743578Y-78678756D01*
X155606836Y-78850224D01*
X155591273Y-78870796D01*
X155583883Y-78881101D01*
X155569438Y-78902367D01*
X155569431Y-78902378D01*
X155509663Y-79033249D01*
X155509662Y-79033253D01*
X155489977Y-79100292D01*
X155489976Y-79100296D01*
X155469500Y-79242712D01*
X155469500Y-80551000D01*
X155469501Y-80551009D01*
X155470709Y-80562245D01*
X155458304Y-80631004D01*
X155410694Y-80682142D01*
X155347420Y-80699500D01*
X131006643Y-80699500D01*
X131002191Y-80699420D01*
X130997765Y-80699261D01*
X130993371Y-80699025D01*
X130771402Y-80683150D01*
X130762600Y-80682204D01*
X130753844Y-80680945D01*
X130745134Y-80679373D01*
X130534190Y-80633485D01*
X130525623Y-80631299D01*
X130517154Y-80628813D01*
X130508745Y-80626015D01*
X130306457Y-80550565D01*
X130298283Y-80547179D01*
X130290244Y-80543508D01*
X130282325Y-80539544D01*
X130092857Y-80436086D01*
X130085240Y-80431567D01*
X130077792Y-80426780D01*
X130070526Y-80421734D01*
X129897714Y-80292369D01*
X129890822Y-80286815D01*
X129884133Y-80281019D01*
X129877654Y-80274987D01*
X129725011Y-80122344D01*
X129718979Y-80115865D01*
X129713183Y-80109176D01*
X129707629Y-80102284D01*
X129578264Y-79929472D01*
X129573218Y-79922206D01*
X129568431Y-79914758D01*
X129563912Y-79907141D01*
X129514004Y-79815741D01*
X129460449Y-79717662D01*
X129456490Y-79709754D01*
X129452823Y-79701725D01*
X129449438Y-79693554D01*
X129373980Y-79491245D01*
X129371189Y-79482858D01*
X129368698Y-79474373D01*
X129366515Y-79465818D01*
X129320624Y-79254857D01*
X129319053Y-79246151D01*
X129318559Y-79242713D01*
X129317793Y-79237390D01*
X129316850Y-79228617D01*
X129300974Y-79006627D01*
X129300737Y-79002206D01*
X129300579Y-78997780D01*
X129300500Y-78993356D01*
X129300500Y-75381987D01*
X132699500Y-75381987D01*
X132699500Y-75618011D01*
X132699503Y-75618035D01*
X132730305Y-75852006D01*
X132791395Y-76079997D01*
X132881715Y-76298048D01*
X132881719Y-76298056D01*
X132923407Y-76370260D01*
X132999723Y-76502444D01*
X132999725Y-76502447D01*
X132999944Y-76502776D01*
X133000947Y-76504040D01*
X133143399Y-76689689D01*
X133143403Y-76689694D01*
X133143406Y-76689697D01*
X133143412Y-76689704D01*
X133143420Y-76689712D01*
X133310281Y-76856574D01*
X133310297Y-76856589D01*
X133310305Y-76856595D01*
X133497548Y-77000272D01*
X133497550Y-77000273D01*
X133628918Y-77076118D01*
X133698516Y-77116301D01*
X133700255Y-77117382D01*
X133701708Y-77118189D01*
X133702447Y-77118489D01*
X133920007Y-77208606D01*
X134147986Y-77269693D01*
X134381989Y-77300500D01*
X134381996Y-77300500D01*
X134618004Y-77300500D01*
X134618011Y-77300500D01*
X134852014Y-77269693D01*
X135079993Y-77208606D01*
X135298049Y-77118284D01*
X135502450Y-77000273D01*
X135689699Y-76856592D01*
X135856592Y-76689699D01*
X136000273Y-76502450D01*
X136118284Y-76298049D01*
X136208606Y-76079993D01*
X136269693Y-75852014D01*
X136300500Y-75618011D01*
X136300500Y-75381989D01*
X136269693Y-75147986D01*
X136208606Y-74920007D01*
X136118489Y-74702447D01*
X136118189Y-74701708D01*
X136117382Y-74700255D01*
X136116297Y-74698509D01*
X136076118Y-74628918D01*
X136000273Y-74497550D01*
X136000272Y-74497548D01*
X135856595Y-74310305D01*
X135856589Y-74310297D01*
X135856574Y-74310281D01*
X135689712Y-74143420D01*
X135689704Y-74143412D01*
X135689697Y-74143406D01*
X135689694Y-74143403D01*
X135689689Y-74143399D01*
X135504040Y-74000947D01*
X135502776Y-73999944D01*
X135502447Y-73999725D01*
X135502444Y-73999723D01*
X135406188Y-73944150D01*
X135406186Y-73944148D01*
X135298065Y-73881724D01*
X135298048Y-73881715D01*
X135079997Y-73791395D01*
X134852006Y-73730305D01*
X134619889Y-73699747D01*
X134618208Y-73699500D01*
X134618017Y-73699500D01*
X134618011Y-73699500D01*
X134381989Y-73699500D01*
X134381983Y-73699500D01*
X134381981Y-73699500D01*
X134375861Y-73700253D01*
X134374955Y-73700425D01*
X134147992Y-73730305D01*
X133920001Y-73791395D01*
X133701950Y-73881715D01*
X133701942Y-73881719D01*
X133497545Y-73999730D01*
X133497536Y-73999736D01*
X133310309Y-74143399D01*
X133310294Y-74143413D01*
X133310286Y-74143420D01*
X133143420Y-74310286D01*
X133143413Y-74310294D01*
X133143399Y-74310309D01*
X132999736Y-74497536D01*
X132999730Y-74497545D01*
X132881719Y-74701942D01*
X132881715Y-74701950D01*
X132791395Y-74920001D01*
X132730305Y-75147992D01*
X132699503Y-75381963D01*
X132699500Y-75381987D01*
X129300500Y-75381987D01*
X129300500Y-60325634D01*
X155714500Y-60325634D01*
X155714500Y-60330259D01*
X155714500Y-60504370D01*
X155740933Y-60671257D01*
X155740934Y-60671264D01*
X155742460Y-60680904D01*
X155797689Y-60850879D01*
X155800035Y-60855723D01*
X155800980Y-60857337D01*
X155847221Y-60948090D01*
X155878833Y-61010132D01*
X155983889Y-61154728D01*
X156110272Y-61281111D01*
X156254868Y-61386167D01*
X156414119Y-61467309D01*
X156414121Y-61467310D01*
X156572670Y-61518825D01*
X156572672Y-61518825D01*
X156584103Y-61522540D01*
X156760634Y-61550500D01*
X156760635Y-61550500D01*
X156939365Y-61550500D01*
X156939366Y-61550500D01*
X157115897Y-61522540D01*
X157115900Y-61522539D01*
X157115901Y-61522539D01*
X157115905Y-61522537D01*
X157115909Y-61522537D01*
X157116174Y-61522450D01*
X157281250Y-61468813D01*
X157290625Y-61466170D01*
X157290641Y-61466166D01*
X157295165Y-61464292D01*
X157303150Y-61461697D01*
X157312399Y-61453797D01*
X157445132Y-61386167D01*
X157589728Y-61281111D01*
X157716111Y-61154728D01*
X157821167Y-61010132D01*
X157902309Y-60850881D01*
X157934085Y-60753084D01*
X157957539Y-60680901D01*
X157957539Y-60680900D01*
X157957540Y-60680897D01*
X157985500Y-60504366D01*
X157985500Y-60325634D01*
X157957540Y-60149103D01*
X157957539Y-60149099D01*
X157957539Y-60149098D01*
X157902310Y-59979121D01*
X157902309Y-59979119D01*
X157899963Y-59974275D01*
X157899016Y-59972657D01*
X157851882Y-59880149D01*
X157821167Y-59819868D01*
X157716111Y-59675272D01*
X157589728Y-59548889D01*
X157445132Y-59443833D01*
X157292337Y-59365980D01*
X157291982Y-59365645D01*
X157285879Y-59362689D01*
X157115899Y-59307459D01*
X156998212Y-59288820D01*
X156998209Y-59288820D01*
X156939366Y-59279500D01*
X156939365Y-59279500D01*
X156760635Y-59279500D01*
X156760634Y-59279500D01*
X156701790Y-59288820D01*
X156593742Y-59305933D01*
X156593734Y-59305932D01*
X156593735Y-59305934D01*
X156584094Y-59307460D01*
X156414119Y-59362689D01*
X156409275Y-59365035D01*
X156407661Y-59365980D01*
X156254866Y-59443833D01*
X156110268Y-59548891D01*
X155983891Y-59675268D01*
X155878833Y-59819866D01*
X155800980Y-59972661D01*
X155800035Y-59974275D01*
X155797689Y-59979119D01*
X155742460Y-60149094D01*
X155740954Y-60158604D01*
X155740922Y-60158809D01*
X155714500Y-60325634D01*
X129300500Y-60325634D01*
X129300500Y-59959122D01*
X149689500Y-59959122D01*
X149689500Y-60040877D01*
X149710660Y-60119849D01*
X149751531Y-60190641D01*
X149751535Y-60190647D01*
X149751537Y-60190650D01*
X149751538Y-60190651D01*
X149809349Y-60248462D01*
X149809350Y-60248463D01*
X149809352Y-60248464D01*
X149842270Y-60267469D01*
X149880152Y-60289340D01*
X149959122Y-60310500D01*
X149959124Y-60310500D01*
X150040875Y-60310500D01*
X150040878Y-60310500D01*
X150119848Y-60289340D01*
X150190651Y-60248462D01*
X150248462Y-60190651D01*
X150289340Y-60119848D01*
X150310500Y-60040878D01*
X150310500Y-59959122D01*
X150289340Y-59880152D01*
X150248462Y-59809349D01*
X150190651Y-59751538D01*
X150190650Y-59751537D01*
X150190647Y-59751535D01*
X150190648Y-59751535D01*
X150190643Y-59751532D01*
X150133985Y-59718821D01*
X150127456Y-59713811D01*
X150112242Y-59707509D01*
X150104081Y-59706435D01*
X150074573Y-59698528D01*
X150040878Y-59689500D01*
X150040877Y-59689500D01*
X149959122Y-59689500D01*
X149880149Y-59710660D01*
X149809352Y-59751534D01*
X149809348Y-59751538D01*
X149809338Y-59751546D01*
X149751546Y-59809338D01*
X149751540Y-59809345D01*
X149751535Y-59809351D01*
X149751534Y-59809352D01*
X149710660Y-59880149D01*
X149689500Y-59959122D01*
X129300500Y-59959122D01*
X129300500Y-57785634D01*
X155714500Y-57785634D01*
X155714500Y-57790259D01*
X155714500Y-57964370D01*
X155740933Y-58131257D01*
X155740934Y-58131264D01*
X155742460Y-58140904D01*
X155797689Y-58310879D01*
X155800035Y-58315723D01*
X155800980Y-58317337D01*
X155878833Y-58470132D01*
X155983889Y-58614728D01*
X156110272Y-58741111D01*
X156254868Y-58846167D01*
X156414119Y-58927309D01*
X156414121Y-58927310D01*
X156572670Y-58978825D01*
X156572672Y-58978825D01*
X156584103Y-58982540D01*
X156760634Y-59010500D01*
X156760635Y-59010500D01*
X156939365Y-59010500D01*
X156939366Y-59010500D01*
X157115897Y-58982540D01*
X157115900Y-58982539D01*
X157115901Y-58982539D01*
X157115905Y-58982537D01*
X157115909Y-58982537D01*
X157116174Y-58982450D01*
X157281250Y-58928813D01*
X157290625Y-58926170D01*
X157290641Y-58926166D01*
X157295165Y-58924292D01*
X157303150Y-58921697D01*
X157312399Y-58913797D01*
X157445132Y-58846167D01*
X157589728Y-58741111D01*
X157716111Y-58614728D01*
X157821167Y-58470132D01*
X157902309Y-58310881D01*
X157957540Y-58140897D01*
X157985500Y-57964366D01*
X157985500Y-57785634D01*
X157957540Y-57609103D01*
X157957539Y-57609099D01*
X157957539Y-57609098D01*
X157902310Y-57439121D01*
X157902309Y-57439119D01*
X157899964Y-57434277D01*
X157899018Y-57432661D01*
X157821165Y-57279866D01*
X157798179Y-57248229D01*
X157722227Y-57143690D01*
X157722228Y-57143688D01*
X157722221Y-57143682D01*
X157716114Y-57135275D01*
X157589729Y-57008890D01*
X157445132Y-56903833D01*
X157292337Y-56825980D01*
X157291982Y-56825645D01*
X157285879Y-56822689D01*
X157115899Y-56767459D01*
X156998212Y-56748820D01*
X156998209Y-56748820D01*
X156939366Y-56739500D01*
X156939365Y-56739500D01*
X156760635Y-56739500D01*
X156760634Y-56739500D01*
X156701790Y-56748820D01*
X156593742Y-56765933D01*
X156593734Y-56765932D01*
X156593735Y-56765934D01*
X156584094Y-56767460D01*
X156414119Y-56822689D01*
X156409275Y-56825035D01*
X156407661Y-56825980D01*
X156254866Y-56903833D01*
X156110268Y-57008891D01*
X155983891Y-57135268D01*
X155878833Y-57279866D01*
X155800980Y-57432661D01*
X155800035Y-57434275D01*
X155797689Y-57439119D01*
X155742460Y-57609094D01*
X155740954Y-57618604D01*
X155740934Y-57618734D01*
X155714500Y-57785634D01*
X129300500Y-57785634D01*
X129300500Y-55245634D01*
X155714500Y-55245634D01*
X155714500Y-55250259D01*
X155714500Y-55424370D01*
X155740933Y-55591257D01*
X155740934Y-55591264D01*
X155742460Y-55600904D01*
X155797689Y-55770879D01*
X155800035Y-55775723D01*
X155800980Y-55777337D01*
X155878833Y-55930132D01*
X155983889Y-56074728D01*
X156110272Y-56201111D01*
X156254868Y-56306167D01*
X156414119Y-56387309D01*
X156414121Y-56387310D01*
X156572670Y-56438825D01*
X156572672Y-56438825D01*
X156584103Y-56442540D01*
X156760634Y-56470500D01*
X156760635Y-56470500D01*
X156939365Y-56470500D01*
X156939366Y-56470500D01*
X157115897Y-56442540D01*
X157115900Y-56442539D01*
X157115901Y-56442539D01*
X157115905Y-56442537D01*
X157115909Y-56442537D01*
X157116174Y-56442450D01*
X157281250Y-56388813D01*
X157290625Y-56386170D01*
X157290641Y-56386166D01*
X157295165Y-56384292D01*
X157303150Y-56381697D01*
X157312399Y-56373797D01*
X157445132Y-56306167D01*
X157589728Y-56201111D01*
X157716111Y-56074728D01*
X157821167Y-55930132D01*
X157902309Y-55770881D01*
X157957540Y-55600897D01*
X157985500Y-55424366D01*
X157985500Y-55245634D01*
X157957540Y-55069103D01*
X157957539Y-55069099D01*
X157957539Y-55069098D01*
X157902310Y-54899121D01*
X157902309Y-54899119D01*
X157899964Y-54894277D01*
X157899018Y-54892661D01*
X157821165Y-54739866D01*
X157798179Y-54708229D01*
X157722227Y-54603690D01*
X157722228Y-54603688D01*
X157722221Y-54603682D01*
X157716114Y-54595275D01*
X157589729Y-54468890D01*
X157445132Y-54363833D01*
X157292337Y-54285980D01*
X157290723Y-54285035D01*
X157285879Y-54282689D01*
X157115899Y-54227459D01*
X156998210Y-54208820D01*
X156998209Y-54208820D01*
X156939366Y-54199500D01*
X156939365Y-54199500D01*
X156760635Y-54199500D01*
X156760634Y-54199500D01*
X156701790Y-54208820D01*
X156593742Y-54225933D01*
X156593734Y-54225933D01*
X156593735Y-54225934D01*
X156584094Y-54227460D01*
X156414119Y-54282689D01*
X156409275Y-54285035D01*
X156407661Y-54285980D01*
X156254866Y-54363833D01*
X156110268Y-54468891D01*
X155983891Y-54595268D01*
X155878833Y-54739866D01*
X155800980Y-54892661D01*
X155800035Y-54894275D01*
X155797689Y-54899119D01*
X155742460Y-55069094D01*
X155740954Y-55078604D01*
X155740934Y-55078734D01*
X155714500Y-55245634D01*
X129300500Y-55245634D01*
X129300500Y-48249983D01*
X138199500Y-48249983D01*
X138199500Y-49850001D01*
X138199501Y-49850018D01*
X138210000Y-49952796D01*
X138210001Y-49952799D01*
X138265185Y-50119331D01*
X138265187Y-50119336D01*
X138289466Y-50158698D01*
X138357288Y-50268656D01*
X138481344Y-50392712D01*
X138630666Y-50484814D01*
X138769543Y-50530833D01*
X138777309Y-50533699D01*
X138803218Y-50544257D01*
X138803218Y-50544258D01*
X138820643Y-50551359D01*
X138875296Y-50594888D01*
X138897740Y-50661055D01*
X138897740Y-50661061D01*
X138898156Y-50671112D01*
X138891968Y-50715243D01*
X138859828Y-50812239D01*
X138859826Y-50812243D01*
X138859824Y-50812250D01*
X138849500Y-50913305D01*
X138849500Y-50913315D01*
X138849500Y-51486669D01*
X138849501Y-51486687D01*
X138849503Y-51486711D01*
X138849504Y-51486718D01*
X138859824Y-51587748D01*
X138859824Y-51587749D01*
X138859825Y-51587752D01*
X138881520Y-51653221D01*
X138914092Y-51751516D01*
X139004660Y-51898350D01*
X139126650Y-52020340D01*
X139273484Y-52110908D01*
X139437247Y-52165174D01*
X139538323Y-52175500D01*
X140236676Y-52175499D01*
X140236726Y-52175499D01*
X140236893Y-52175489D01*
X140238000Y-52175363D01*
X140282342Y-52170833D01*
X140292031Y-52169844D01*
X140292031Y-52169843D01*
X140337753Y-52165174D01*
X140501516Y-52110908D01*
X140648350Y-52020340D01*
X140770340Y-51898350D01*
X140860908Y-51751516D01*
X140915174Y-51587753D01*
X140925500Y-51486677D01*
X140925499Y-50913324D01*
X140925205Y-50910450D01*
X140915174Y-50812247D01*
X140915173Y-50812244D01*
X140884988Y-50721154D01*
X140878769Y-50686421D01*
X140878291Y-50672549D01*
X140895655Y-50604872D01*
X140946847Y-50557329D01*
X140955881Y-50552822D01*
X140998632Y-50540424D01*
X141002797Y-50539999D01*
X141169334Y-50484814D01*
X141318656Y-50392712D01*
X141442712Y-50268656D01*
X141534814Y-50119334D01*
X141589999Y-49952797D01*
X141600500Y-49850009D01*
X141600499Y-48249992D01*
X141592838Y-48175000D01*
X141591173Y-48158698D01*
X141590000Y-48147208D01*
X141589999Y-48147206D01*
X141589999Y-48147203D01*
X141589998Y-48147200D01*
X141534814Y-47980666D01*
X141442712Y-47831344D01*
X141318656Y-47707288D01*
X141220772Y-47646913D01*
X141169336Y-47615187D01*
X141169331Y-47615185D01*
X141011265Y-47562807D01*
X141008445Y-47561641D01*
X141002792Y-47559999D01*
X140900019Y-47549500D01*
X140900010Y-47549500D01*
X138899998Y-47549500D01*
X138899981Y-47549501D01*
X138885959Y-47550933D01*
X138797198Y-47560000D01*
X138797193Y-47560001D01*
X138797032Y-47560056D01*
X138630671Y-47615184D01*
X138630667Y-47615185D01*
X138630665Y-47615186D01*
X138630663Y-47615187D01*
X138539827Y-47671215D01*
X138481340Y-47707290D01*
X138357290Y-47831340D01*
X138265187Y-47980662D01*
X138265187Y-47980663D01*
X138265186Y-47980666D01*
X138264978Y-47981295D01*
X138220300Y-48116123D01*
X138211852Y-48129069D01*
X138210365Y-48143630D01*
X138209542Y-48149881D01*
X138209387Y-48152913D01*
X138209396Y-48153104D01*
X138209355Y-48153514D01*
X138199500Y-48249983D01*
X129300500Y-48249983D01*
X129300500Y-44381987D01*
X132699500Y-44381987D01*
X132699500Y-44618011D01*
X132699503Y-44618036D01*
X132726485Y-44822988D01*
X132730307Y-44852014D01*
X132745603Y-44909103D01*
X132745604Y-44909103D01*
X132791395Y-45079997D01*
X132867763Y-45264365D01*
X132881714Y-45298045D01*
X132881719Y-45298056D01*
X132881722Y-45298062D01*
X132881724Y-45298065D01*
X132942681Y-45403644D01*
X132942683Y-45403647D01*
X132999723Y-45502444D01*
X132999725Y-45502447D01*
X132999944Y-45502776D01*
X133000947Y-45504040D01*
X133143399Y-45689689D01*
X133143403Y-45689694D01*
X133143406Y-45689697D01*
X133143412Y-45689704D01*
X133143420Y-45689712D01*
X133310281Y-45856574D01*
X133310297Y-45856589D01*
X133310305Y-45856595D01*
X133497548Y-46000272D01*
X133497550Y-46000273D01*
X133628918Y-46076118D01*
X133698516Y-46116301D01*
X133700255Y-46117382D01*
X133701708Y-46118189D01*
X133702447Y-46118489D01*
X133920007Y-46208606D01*
X134147986Y-46269693D01*
X134381989Y-46300500D01*
X134381996Y-46300500D01*
X134618004Y-46300500D01*
X134618011Y-46300500D01*
X134852014Y-46269693D01*
X135079993Y-46208606D01*
X135298049Y-46118284D01*
X135502450Y-46000273D01*
X135689699Y-45856592D01*
X135856592Y-45689699D01*
X136000273Y-45502450D01*
X136118284Y-45298049D01*
X136208606Y-45079993D01*
X136269693Y-44852014D01*
X136300500Y-44618011D01*
X136300500Y-44549983D01*
X138199500Y-44549983D01*
X138199500Y-46150001D01*
X138199501Y-46150018D01*
X138210000Y-46252796D01*
X138210001Y-46252799D01*
X138265185Y-46419331D01*
X138265186Y-46419334D01*
X138357288Y-46568656D01*
X138481344Y-46692712D01*
X138630666Y-46784814D01*
X138797203Y-46839999D01*
X138899991Y-46850500D01*
X140900008Y-46850499D01*
X141002797Y-46839999D01*
X141169334Y-46784814D01*
X141318656Y-46692712D01*
X141442712Y-46568656D01*
X141534814Y-46419334D01*
X141589999Y-46252797D01*
X141600500Y-46150009D01*
X141600499Y-44549992D01*
X141589999Y-44447203D01*
X141534814Y-44280666D01*
X141442712Y-44131344D01*
X141318656Y-44007288D01*
X141177149Y-43920006D01*
X141169336Y-43915187D01*
X141169335Y-43915186D01*
X141169334Y-43915186D01*
X141107043Y-43894544D01*
X141029699Y-43868915D01*
X140998119Y-43853159D01*
X140985267Y-43844261D01*
X140941360Y-43789930D01*
X140940664Y-43788256D01*
X140931851Y-43727541D01*
X140932668Y-43719846D01*
X140938266Y-43693950D01*
X140965174Y-43612753D01*
X140975500Y-43511677D01*
X140975499Y-42938324D01*
X140965174Y-42837247D01*
X140910908Y-42673484D01*
X140820340Y-42526650D01*
X140698350Y-42404660D01*
X140698349Y-42404659D01*
X140698346Y-42404657D01*
X140597164Y-42342246D01*
X140597161Y-42342246D01*
X140551518Y-42314093D01*
X140551513Y-42314091D01*
X140550069Y-42313612D01*
X140550053Y-42313606D01*
X140396221Y-42262632D01*
X140393401Y-42261466D01*
X140387748Y-42259824D01*
X140286687Y-42249500D01*
X140286678Y-42249500D01*
X139588330Y-42249500D01*
X139588312Y-42249501D01*
X139588290Y-42249503D01*
X139588280Y-42249504D01*
X139487250Y-42259824D01*
X139323477Y-42314094D01*
X139176651Y-42404658D01*
X139176647Y-42404661D01*
X139054662Y-42526646D01*
X139054661Y-42526648D01*
X138986443Y-42637247D01*
X138964092Y-42673483D01*
X138964083Y-42673509D01*
X138952946Y-42707120D01*
X138952946Y-42707121D01*
X138945263Y-42730306D01*
X138920125Y-42806167D01*
X138911677Y-42819113D01*
X138910190Y-42833673D01*
X138909367Y-42839919D01*
X138909184Y-42843521D01*
X138899500Y-42938305D01*
X138899500Y-42938312D01*
X138899500Y-42938315D01*
X138899500Y-43511669D01*
X138899500Y-43511677D01*
X138899503Y-43511713D01*
X138904520Y-43560826D01*
X138909825Y-43612752D01*
X138909826Y-43612755D01*
X138909826Y-43612757D01*
X138931178Y-43677194D01*
X138937398Y-43711926D01*
X138937876Y-43725796D01*
X138920513Y-43793474D01*
X138869316Y-43841020D01*
X138869306Y-43841025D01*
X138860290Y-43845523D01*
X138817540Y-43857923D01*
X138814029Y-43858281D01*
X138803482Y-43859359D01*
X138800116Y-43859530D01*
X138797197Y-43860001D01*
X138630676Y-43915182D01*
X138630667Y-43915185D01*
X138630665Y-43915186D01*
X138630663Y-43915187D01*
X138541246Y-43970340D01*
X138481340Y-44007290D01*
X138357290Y-44131340D01*
X138357289Y-44131342D01*
X138268989Y-44274500D01*
X138265186Y-44280665D01*
X138265177Y-44280690D01*
X138255834Y-44308888D01*
X138255833Y-44308890D01*
X138220298Y-44416123D01*
X138211852Y-44429066D01*
X138210365Y-44443630D01*
X138209542Y-44449881D01*
X138209387Y-44452913D01*
X138209396Y-44453104D01*
X138209355Y-44453514D01*
X138199500Y-44549983D01*
X136300500Y-44549983D01*
X136300500Y-44381989D01*
X136269693Y-44147986D01*
X136208606Y-43920007D01*
X136118481Y-43702427D01*
X136118189Y-43701710D01*
X136117374Y-43700241D01*
X136116294Y-43698503D01*
X136057317Y-43596353D01*
X136057316Y-43596352D01*
X136008423Y-43511666D01*
X136000272Y-43497548D01*
X135856595Y-43310305D01*
X135856589Y-43310297D01*
X135856574Y-43310281D01*
X135689712Y-43143420D01*
X135689704Y-43143412D01*
X135689697Y-43143406D01*
X135689694Y-43143403D01*
X135689689Y-43143399D01*
X135504040Y-43000947D01*
X135502776Y-42999944D01*
X135502447Y-42999725D01*
X135502445Y-42999723D01*
X135420957Y-42952677D01*
X135420955Y-42952675D01*
X135298065Y-42881724D01*
X135298048Y-42881715D01*
X135079997Y-42791395D01*
X134881956Y-42738330D01*
X134852010Y-42730306D01*
X134852009Y-42730305D01*
X134852006Y-42730305D01*
X134619889Y-42699747D01*
X134618208Y-42699500D01*
X134618017Y-42699500D01*
X134618011Y-42699500D01*
X134381989Y-42699500D01*
X134381983Y-42699500D01*
X134381981Y-42699500D01*
X134375861Y-42700253D01*
X134374955Y-42700425D01*
X134147992Y-42730305D01*
X133920001Y-42791395D01*
X133701950Y-42881715D01*
X133701942Y-42881719D01*
X133497545Y-42999730D01*
X133497536Y-42999736D01*
X133310309Y-43143399D01*
X133310294Y-43143413D01*
X133310286Y-43143420D01*
X133143420Y-43310286D01*
X133143413Y-43310294D01*
X133143399Y-43310309D01*
X132999736Y-43497536D01*
X132999730Y-43497545D01*
X132881723Y-43701936D01*
X132881715Y-43701950D01*
X132791395Y-43920001D01*
X132730305Y-44147992D01*
X132699503Y-44381963D01*
X132699500Y-44381987D01*
X129300500Y-44381987D01*
X129300500Y-41006642D01*
X129300579Y-41002219D01*
X129300737Y-40997792D01*
X129300974Y-40993369D01*
X129302049Y-40978346D01*
X129303513Y-40957870D01*
X129316849Y-40771385D01*
X129317795Y-40762590D01*
X129319053Y-40753844D01*
X129320624Y-40745140D01*
X129320626Y-40745134D01*
X129366515Y-40534180D01*
X129368700Y-40525619D01*
X129369248Y-40523752D01*
X129371187Y-40517146D01*
X129373973Y-40508772D01*
X129449446Y-40306421D01*
X129452818Y-40298283D01*
X129456499Y-40290223D01*
X129460435Y-40282360D01*
X129563925Y-40092833D01*
X129568426Y-40085246D01*
X129573218Y-40077790D01*
X129578259Y-40070532D01*
X129707647Y-39897690D01*
X129713188Y-39890815D01*
X129718972Y-39884140D01*
X129724989Y-39877676D01*
X129877676Y-39724989D01*
X129884140Y-39718972D01*
X129890815Y-39713188D01*
X129897690Y-39707647D01*
X130070541Y-39578252D01*
X130077790Y-39573218D01*
X130085246Y-39568426D01*
X130092833Y-39563925D01*
X130282360Y-39460435D01*
X130290223Y-39456499D01*
X130298288Y-39452815D01*
X130306421Y-39449446D01*
X130508772Y-39373973D01*
X130517146Y-39371187D01*
X130525619Y-39368700D01*
X130534180Y-39366515D01*
X130745146Y-39320622D01*
X130753844Y-39319053D01*
X130756307Y-39318698D01*
X130762597Y-39317794D01*
X130771385Y-39316849D01*
X130993383Y-39300973D01*
X130997791Y-39300737D01*
X130998162Y-39300723D01*
X131002222Y-39300579D01*
X131006643Y-39300500D01*
X134178618Y-39300500D01*
X134213545Y-39305521D01*
G37*
%TD.AperFunction*%
%TA.AperFunction,Conductor*%
G36*
X166566034Y-68832382D02*
G01*
X166596122Y-68838365D01*
X166624257Y-68843961D01*
X166628521Y-68844888D01*
X166748450Y-68873228D01*
X166818042Y-68879455D01*
X166961710Y-68871754D01*
X167033959Y-68857383D01*
X167058150Y-68855000D01*
X167091848Y-68855000D01*
X167116039Y-68857383D01*
X167214691Y-68877006D01*
X167313309Y-68886719D01*
X167361689Y-68886719D01*
X167361691Y-68886719D01*
X167460309Y-68877006D01*
X167558961Y-68857383D01*
X167560677Y-68857536D01*
X167562225Y-68856779D01*
X167583152Y-68855000D01*
X167616845Y-68855000D01*
X167641027Y-68857381D01*
X167674080Y-68863955D01*
X167697332Y-68871009D01*
X167728449Y-68883899D01*
X167749883Y-68895354D01*
X167777904Y-68914077D01*
X167796691Y-68929496D01*
X167820499Y-68953304D01*
X167835921Y-68972095D01*
X167854639Y-69000109D01*
X167866097Y-69021546D01*
X167878987Y-69052665D01*
X167886042Y-69075922D01*
X167892616Y-69108965D01*
X167895000Y-69133161D01*
X167895000Y-69166840D01*
X167892617Y-69191032D01*
X167881094Y-69248960D01*
X167878457Y-69259693D01*
X167874520Y-69273104D01*
X167862081Y-69325749D01*
X167862080Y-69325759D01*
X167856950Y-69469545D01*
X167865557Y-69549568D01*
X167866367Y-69552001D01*
X167892617Y-69683965D01*
X167895000Y-69708157D01*
X167895000Y-69739871D01*
X167914177Y-69877781D01*
X167932637Y-69942876D01*
X167957939Y-70000383D01*
X167962145Y-70011315D01*
X167988469Y-70090753D01*
X167994120Y-70117144D01*
X167994356Y-70119452D01*
X167994999Y-70132066D01*
X167994999Y-73167933D01*
X167994356Y-73180542D01*
X167994121Y-73182841D01*
X167988470Y-73209236D01*
X167978113Y-73240491D01*
X167965946Y-73266583D01*
X167951096Y-73290659D01*
X167933238Y-73313244D01*
X167913244Y-73333238D01*
X167890659Y-73351096D01*
X167866583Y-73365946D01*
X167840491Y-73378113D01*
X167809236Y-73388470D01*
X167782858Y-73394120D01*
X167781878Y-73394220D01*
X167780557Y-73394355D01*
X167767936Y-73394999D01*
X166738387Y-73394999D01*
X166687379Y-73397583D01*
X166687355Y-73397584D01*
X166662431Y-73400115D01*
X166622807Y-73406175D01*
X166611951Y-73407836D01*
X166611949Y-73407836D01*
X166606023Y-73408743D01*
X166605821Y-73407423D01*
X166542761Y-73405073D01*
X166485430Y-73365136D01*
X166468374Y-73336894D01*
X166458098Y-73313244D01*
X166446817Y-73287279D01*
X166439313Y-73275113D01*
X166434051Y-73266582D01*
X166421885Y-73240491D01*
X166411528Y-73209237D01*
X166405871Y-73182792D01*
X166405636Y-73180492D01*
X166405000Y-73167942D01*
X166405000Y-72517431D01*
X166405000Y-72517350D01*
X166404979Y-72512782D01*
X166404959Y-72510569D01*
X166404899Y-72506116D01*
X166404898Y-72506110D01*
X166404898Y-72506106D01*
X166381885Y-72364091D01*
X166381885Y-72364088D01*
X166361007Y-72297410D01*
X166361006Y-72297407D01*
X166298909Y-72167617D01*
X166270358Y-72124888D01*
X166258898Y-72103447D01*
X166246009Y-72072328D01*
X166238955Y-72049075D01*
X166232381Y-72016027D01*
X166230000Y-71991842D01*
X166230000Y-71958151D01*
X166232383Y-71933959D01*
X166252006Y-71835309D01*
X166261719Y-71736691D01*
X166261719Y-71688309D01*
X166252006Y-71589691D01*
X166232383Y-71491038D01*
X166230000Y-71466847D01*
X166230000Y-71433152D01*
X166232382Y-71408964D01*
X166237012Y-71385683D01*
X166243905Y-71351027D01*
X166246543Y-71340293D01*
X166250462Y-71326954D01*
X166262908Y-71274296D01*
X166268049Y-71130508D01*
X166261293Y-71067644D01*
X166261203Y-71065982D01*
X166260586Y-71061068D01*
X166260583Y-71061038D01*
X166260583Y-71061035D01*
X166260581Y-71061027D01*
X166259616Y-71053338D01*
X166259691Y-71053328D01*
X166232383Y-70916040D01*
X166230000Y-70891849D01*
X166230000Y-70858154D01*
X166232382Y-70833964D01*
X166241743Y-70786900D01*
X166246429Y-70769825D01*
X166248167Y-70764898D01*
X166248176Y-70764873D01*
X166255643Y-70739445D01*
X166268090Y-70686775D01*
X166273227Y-70542987D01*
X166266469Y-70480122D01*
X166266380Y-70478461D01*
X166265763Y-70473559D01*
X166265759Y-70473519D01*
X166265759Y-70473515D01*
X166257273Y-70440269D01*
X166255813Y-70433831D01*
X166232383Y-70316038D01*
X166230000Y-70291847D01*
X166230000Y-70258152D01*
X166232382Y-70233964D01*
X166237012Y-70210683D01*
X166243905Y-70176027D01*
X166246543Y-70165293D01*
X166250462Y-70151954D01*
X166262908Y-70099296D01*
X166268049Y-69955508D01*
X166261293Y-69892644D01*
X166261203Y-69890982D01*
X166260586Y-69886068D01*
X166260583Y-69886038D01*
X166260583Y-69886035D01*
X166260581Y-69886027D01*
X166259616Y-69878338D01*
X166259691Y-69878328D01*
X166232383Y-69741040D01*
X166230000Y-69716849D01*
X166230000Y-69683152D01*
X166232382Y-69658964D01*
X166237012Y-69635683D01*
X166243905Y-69601027D01*
X166246543Y-69590293D01*
X166250462Y-69576954D01*
X166262908Y-69524296D01*
X166268049Y-69380508D01*
X166261293Y-69317644D01*
X166261203Y-69315982D01*
X166260586Y-69311068D01*
X166260583Y-69311038D01*
X166260583Y-69311035D01*
X166260581Y-69311027D01*
X166259616Y-69303338D01*
X166259691Y-69303328D01*
X166232383Y-69166040D01*
X166232536Y-69164325D01*
X166231779Y-69162778D01*
X166230000Y-69141849D01*
X166230000Y-69108157D01*
X166232382Y-69083969D01*
X166238954Y-69050925D01*
X166246008Y-69027667D01*
X166258900Y-68996543D01*
X166259370Y-68995960D01*
X166270354Y-68975115D01*
X166289080Y-68947089D01*
X166304491Y-68928311D01*
X166328311Y-68904491D01*
X166347088Y-68889081D01*
X166375118Y-68870351D01*
X166396539Y-68858902D01*
X166427667Y-68846008D01*
X166450920Y-68838955D01*
X166483968Y-68832381D01*
X166508158Y-68830000D01*
X166541847Y-68830000D01*
X166566034Y-68832382D01*
G37*
%TD.AperFunction*%
%TA.AperFunction,Conductor*%
G36*
X170631844Y-58504157D02*
G01*
X170681933Y-58552823D01*
X170683457Y-58555522D01*
X170699500Y-58616523D01*
X170699500Y-60500140D01*
X170679815Y-60567179D01*
X170627011Y-60612934D01*
X170566656Y-60623824D01*
X170510704Y-60619823D01*
X170510700Y-60619823D01*
X170367189Y-60630087D01*
X170232385Y-60680367D01*
X170232382Y-60680368D01*
X170232381Y-60680369D01*
X170222042Y-60686014D01*
X170171060Y-60713852D01*
X170055882Y-60800074D01*
X170055869Y-60800085D01*
X169967318Y-60888635D01*
X169952523Y-60901271D01*
X169888083Y-60948089D01*
X169871494Y-60958255D01*
X169800533Y-60994412D01*
X169782554Y-61001859D01*
X169706803Y-61026471D01*
X169687886Y-61031013D01*
X169630872Y-61040044D01*
X169609223Y-61043473D01*
X169589826Y-61045000D01*
X169510173Y-61045000D01*
X169490777Y-61043473D01*
X169460849Y-61038733D01*
X169412117Y-61031014D01*
X169393200Y-61026472D01*
X169317441Y-61001857D01*
X169299464Y-60994411D01*
X169228508Y-60958258D01*
X169211916Y-60948090D01*
X169147471Y-60901267D01*
X169132676Y-60888631D01*
X169076367Y-60832322D01*
X169063730Y-60817527D01*
X169051058Y-60800085D01*
X169016908Y-60753083D01*
X169006742Y-60736493D01*
X168978418Y-60680904D01*
X168970580Y-60665521D01*
X168963139Y-60647557D01*
X168938524Y-60571800D01*
X168933986Y-60552898D01*
X168921526Y-60474217D01*
X168920000Y-60454822D01*
X168920000Y-60375175D01*
X168921526Y-60355780D01*
X168932048Y-60289340D01*
X168933987Y-60277096D01*
X168938523Y-60258200D01*
X168963141Y-60182433D01*
X168970577Y-60164482D01*
X169006745Y-60093497D01*
X169016900Y-60076925D01*
X169067393Y-60007429D01*
X169075449Y-59997472D01*
X169085544Y-59986235D01*
X169163331Y-59865195D01*
X169192178Y-59802028D01*
X169192353Y-59801648D01*
X169192356Y-59801639D01*
X169192358Y-59801636D01*
X169232892Y-59663583D01*
X169232891Y-59519703D01*
X169222947Y-59450545D01*
X169182412Y-59312496D01*
X169104624Y-59191457D01*
X169074230Y-59156380D01*
X169045206Y-59092824D01*
X169055150Y-59023665D01*
X169100906Y-58970862D01*
X169167945Y-58951178D01*
X169206254Y-58957245D01*
X169272670Y-58978825D01*
X169284103Y-58982540D01*
X169460634Y-59010500D01*
X169460635Y-59010500D01*
X169639365Y-59010500D01*
X169639366Y-59010500D01*
X169815897Y-58982540D01*
X169815900Y-58982539D01*
X169815901Y-58982539D01*
X169815905Y-58982537D01*
X169815909Y-58982537D01*
X169816174Y-58982450D01*
X169981250Y-58928813D01*
X169990625Y-58926170D01*
X169990641Y-58926166D01*
X169995165Y-58924292D01*
X170003150Y-58921697D01*
X170012399Y-58913797D01*
X170145132Y-58846167D01*
X170289728Y-58741111D01*
X170416111Y-58614728D01*
X170464703Y-58547845D01*
X170489297Y-58522538D01*
X170498257Y-58515629D01*
X170563366Y-58490281D01*
X170631844Y-58504157D01*
G37*
%TD.AperFunction*%
%TD*%
M02*
