%TF.GenerationSoftware,KiCad,Pcbnew,10.0.6-10.0.6~ubuntu24.04.1*%
%TF.CreationDate,2026-09-06T22:30:28+07:00*%
%TF.ProjectId,Stm32f072,53746d33-3266-4303-9732-2e6b69636164,rev?*%
%TF.SameCoordinates,Original*%
%TF.FileFunction,Soldermask,Bot*%
%TF.FilePolarity,Negative*%
%FSLAX46Y46*%
G04 Gerber Fmt 4.6, Leading zero omitted, Abs format (unit mm)*
G04 Created by KiCad (PCBNEW 10.0.6-10.0.6~ubuntu24.04.1) date 2026-09-06 22:30:28*
%MOMM*%
%LPD*%
G01*
G04 APERTURE LIST*
G04 Aperture macros list*
%AMRoundRect*
0 Rectangle with rounded corners*
0 $1 Rounding radius*
0 $2 $3 $4 $5 $6 $7 $8 $9 X,Y pos of 4 corners*
0 Add a 4 corners polygon primitive as box body*
4,1,4,$2,$3,$4,$5,$6,$7,$8,$9,$2,$3,0*
0 Add four circle primitives for the rounded corners*
1,1,$1+$1,$2,$3*
1,1,$1+$1,$4,$5*
1,1,$1+$1,$6,$7*
1,1,$1+$1,$8,$9*
0 Add four rect primitives between the rounded corners*
20,1,$1+$1,$2,$3,$4,$5,0*
20,1,$1+$1,$4,$5,$6,$7,0*
20,1,$1+$1,$6,$7,$8,$9,0*
20,1,$1+$1,$8,$9,$2,$3,0*%
G04 Aperture macros list end*
%ADD10RoundRect,0.250000X-0.600000X-0.725000X0.600000X-0.725000X0.600000X0.725000X-0.600000X0.725000X0*%
%ADD11O,1.700000X1.950000*%
%ADD12RoundRect,0.250000X0.725000X-0.600000X0.725000X0.600000X-0.725000X0.600000X-0.725000X-0.600000X0*%
%ADD13O,1.950000X1.700000*%
%ADD14RoundRect,0.760000X1.140000X1.140000X-1.140000X1.140000X-1.140000X-1.140000X1.140000X-1.140000X0*%
%ADD15C,3.800000*%
%ADD16RoundRect,0.190500X0.444500X0.444500X-0.444500X0.444500X-0.444500X-0.444500X0.444500X-0.444500X0*%
%ADD17C,1.270000*%
%ADD18RoundRect,0.237500X-0.300000X-0.237500X0.300000X-0.237500X0.300000X0.237500X-0.300000X0.237500X0*%
%ADD19R,1.700000X1.700000*%
%ADD20C,1.700000*%
%ADD21RoundRect,0.100000X-0.100000X0.637500X-0.100000X-0.637500X0.100000X-0.637500X0.100000X0.637500X0*%
G04 APERTURE END LIST*
D10*
%TO.C,CAN1*%
X90125000Y-48370000D03*
D11*
X92625000Y-48370000D03*
X95125000Y-48370000D03*
X97625000Y-48370000D03*
%TD*%
D10*
%TO.C,CAN2*%
X104725000Y-48550000D03*
D11*
X107225000Y-48550000D03*
X109725000Y-48550000D03*
X112225000Y-48550000D03*
%TD*%
D12*
%TO.C,Debug1*%
X137440000Y-32200000D03*
D13*
X137440000Y-29700000D03*
X137440000Y-27200000D03*
X137440000Y-24700000D03*
%TD*%
D14*
%TO.C,24VIN1*%
X159200000Y-77575000D03*
D15*
X154200000Y-77575000D03*
%TD*%
D16*
%TO.C,U2*%
X156850000Y-62955000D03*
D17*
X156850000Y-60415000D03*
X156850000Y-57875000D03*
X156850000Y-55335000D03*
X156850000Y-52795000D03*
X156850000Y-50255000D03*
X156850000Y-47715000D03*
X156850000Y-45175000D03*
X169550000Y-62955000D03*
X169550000Y-60415000D03*
X169550000Y-57875000D03*
X169550000Y-55335000D03*
X169550000Y-52795000D03*
X169550000Y-50255000D03*
X169550000Y-47715000D03*
X169550000Y-45175000D03*
%TD*%
D18*
%TO.C,C10*%
X144605000Y-60000000D03*
X146330000Y-60000000D03*
%TD*%
%TO.C,C9*%
X144612500Y-61710000D03*
X146337500Y-61710000D03*
%TD*%
D19*
%TO.C,J1*%
X161900000Y-41025000D03*
D20*
X159360000Y-41025000D03*
X156820000Y-41025000D03*
X154280000Y-41025000D03*
%TD*%
D21*
%TO.C,U3*%
X148050000Y-57137500D03*
X148700000Y-57137500D03*
X149350000Y-57137500D03*
X150000000Y-57137500D03*
X150650000Y-57137500D03*
X151300000Y-57137500D03*
X151950000Y-57137500D03*
X151950000Y-62862500D03*
X151300000Y-62862500D03*
X150650000Y-62862500D03*
X150000000Y-62862500D03*
X149350000Y-62862500D03*
X148700000Y-62862500D03*
X148050000Y-62862500D03*
%TD*%
M02*
