%TF.GenerationSoftware,KiCad,Pcbnew,10.0.6-10.0.6~ubuntu24.04.1*%
%TF.CreationDate,2026-09-06T22:30:28+07:00*%
%TF.ProjectId,Stm32f072,53746d33-3266-4303-9732-2e6b69636164,rev?*%
%TF.SameCoordinates,Original*%
%TF.FileFunction,Soldermask,Top*%
%TF.FilePolarity,Negative*%
%FSLAX46Y46*%
G04 Gerber Fmt 4.6, Leading zero omitted, Abs format (unit mm)*
G04 Created by KiCad (PCBNEW 10.0.6-10.0.6~ubuntu24.04.1) date 2026-09-06 22:30:28*
%MOMM*%
%LPD*%
G01*
G04 APERTURE LIST*
G04 Aperture macros list*
%AMRoundRect*
0 Rectangle with rounded corners*
0 $1 Rounding radius*
0 $2 $3 $4 $5 $6 $7 $8 $9 X,Y pos of 4 corners*
0 Add a 4 corners polygon primitive as box body*
4,1,4,$2,$3,$4,$5,$6,$7,$8,$9,$2,$3,0*
0 Add four circle primitives for the rounded corners*
1,1,$1+$1,$2,$3*
1,1,$1+$1,$4,$5*
1,1,$1+$1,$6,$7*
1,1,$1+$1,$8,$9*
0 Add four rect primitives between the rounded corners*
20,1,$1+$1,$2,$3,$4,$5,0*
20,1,$1+$1,$4,$5,$6,$7,0*
20,1,$1+$1,$6,$7,$8,$9,0*
20,1,$1+$1,$8,$9,$2,$3,0*%
G04 Aperture macros list end*
%ADD10RoundRect,0.237500X-0.300000X-0.237500X0.300000X-0.237500X0.300000X0.237500X-0.300000X0.237500X0*%
%ADD11RoundRect,0.237500X-0.250000X-0.237500X0.250000X-0.237500X0.250000X0.237500X-0.250000X0.237500X0*%
%ADD12RoundRect,0.237500X0.300000X0.237500X-0.300000X0.237500X-0.300000X-0.237500X0.300000X-0.237500X0*%
%ADD13RoundRect,0.237500X-0.237500X0.250000X-0.237500X-0.250000X0.237500X-0.250000X0.237500X0.250000X0*%
%ADD14RoundRect,0.237500X0.250000X0.237500X-0.250000X0.237500X-0.250000X-0.237500X0.250000X-0.237500X0*%
%ADD15R,1.000000X1.500000*%
%ADD16RoundRect,0.250000X0.950000X-0.750000X0.950000X0.750000X-0.950000X0.750000X-0.950000X-0.750000X0*%
%ADD17RoundRect,0.075000X-0.662500X-0.075000X0.662500X-0.075000X0.662500X0.075000X-0.662500X0.075000X0*%
%ADD18RoundRect,0.075000X-0.075000X-0.662500X0.075000X-0.662500X0.075000X0.662500X-0.075000X0.662500X0*%
%ADD19RoundRect,0.162500X0.617500X0.162500X-0.617500X0.162500X-0.617500X-0.162500X0.617500X-0.162500X0*%
%ADD20RoundRect,0.250000X-0.325000X-0.450000X0.325000X-0.450000X0.325000X0.450000X-0.325000X0.450000X0*%
%ADD21RoundRect,0.250000X-0.600000X-0.725000X0.600000X-0.725000X0.600000X0.725000X-0.600000X0.725000X0*%
%ADD22O,1.700000X1.950000*%
%ADD23RoundRect,0.250000X0.400000X1.450000X-0.400000X1.450000X-0.400000X-1.450000X0.400000X-1.450000X0*%
%ADD24RoundRect,0.250000X0.725000X-0.600000X0.725000X0.600000X-0.725000X0.600000X-0.725000X-0.600000X0*%
%ADD25O,1.950000X1.700000*%
%ADD26RoundRect,0.760000X1.140000X1.140000X-1.140000X1.140000X-1.140000X-1.140000X1.140000X-1.140000X0*%
%ADD27C,3.800000*%
%ADD28RoundRect,0.190500X0.444500X0.444500X-0.444500X0.444500X-0.444500X-0.444500X0.444500X-0.444500X0*%
%ADD29C,1.270000*%
%ADD30RoundRect,0.250000X-0.450000X0.350000X-0.450000X-0.350000X0.450000X-0.350000X0.450000X0.350000X0*%
%ADD31RoundRect,0.250000X1.000000X0.650000X-1.000000X0.650000X-1.000000X-0.650000X1.000000X-0.650000X0*%
%ADD32RoundRect,0.150000X-0.825000X-0.150000X0.825000X-0.150000X0.825000X0.150000X-0.825000X0.150000X0*%
%ADD33RoundRect,0.250000X1.500000X0.900000X-1.500000X0.900000X-1.500000X-0.900000X1.500000X-0.900000X0*%
%ADD34RoundRect,0.237500X-0.237500X0.300000X-0.237500X-0.300000X0.237500X-0.300000X0.237500X0.300000X0*%
%ADD35R,2.800000X0.850000*%
%ADD36RoundRect,0.237500X0.237500X-0.300000X0.237500X0.300000X-0.237500X0.300000X-0.237500X-0.300000X0*%
%ADD37RoundRect,0.250000X-0.550000X1.500000X-0.550000X-1.500000X0.550000X-1.500000X0.550000X1.500000X0*%
%ADD38R,1.700000X1.700000*%
%ADD39C,1.700000*%
G04 APERTURE END LIST*
%TO.C,JP2*%
G36*
X113015000Y-84170000D02*
G01*
X114615000Y-84170000D01*
X114615000Y-85670000D01*
X113015000Y-85670000D01*
X113015000Y-84170000D01*
G37*
%TO.C,JP3*%
G36*
X117925000Y-84150000D02*
G01*
X119525000Y-84150000D01*
X119525000Y-85650000D01*
X117925000Y-85650000D01*
X117925000Y-84150000D01*
G37*
%TO.C,JP1*%
G36*
X143245000Y-40080000D02*
G01*
X143545000Y-40080000D01*
X143545000Y-41580000D01*
X143245000Y-41580000D01*
X143245000Y-40080000D01*
G37*
%TD*%
D10*
%TO.C,C12*%
X138162500Y-51200000D03*
X139887500Y-51200000D03*
%TD*%
D11*
%TO.C,R2*%
X122470000Y-96800000D03*
X124295000Y-96800000D03*
%TD*%
D12*
%TO.C,C6*%
X111675000Y-96940000D03*
X109950000Y-96940000D03*
%TD*%
%TO.C,C4*%
X124227500Y-98390000D03*
X122502500Y-98390000D03*
%TD*%
D13*
%TO.C,R1*%
X120667500Y-96825000D03*
X120667500Y-98650000D03*
%TD*%
D11*
%TO.C,R10*%
X93682500Y-60340000D03*
X95507500Y-60340000D03*
%TD*%
D12*
%TO.C,C5*%
X116967500Y-100900000D03*
X115242500Y-100900000D03*
%TD*%
D14*
%TO.C,R5*%
X147875000Y-40310000D03*
X146050000Y-40310000D03*
%TD*%
D11*
%TO.C,R9*%
X93682500Y-57830000D03*
X95507500Y-57830000D03*
%TD*%
D15*
%TO.C,JP2*%
X112515000Y-84920000D03*
X113815000Y-84920000D03*
X115115000Y-84920000D03*
%TD*%
D14*
%TO.C,R3*%
X115080000Y-94650000D03*
X113255000Y-94650000D03*
%TD*%
D16*
%TO.C,Y1*%
X139900000Y-49050000D03*
X139900000Y-45350000D03*
%TD*%
D17*
%TO.C,U4*%
X143212500Y-44925000D03*
X143212500Y-45425000D03*
X143212500Y-45925000D03*
X143212500Y-46425000D03*
X143212500Y-46925000D03*
X143212500Y-47425000D03*
X143212500Y-47925000D03*
X143212500Y-48425000D03*
X143212500Y-48925000D03*
X143212500Y-49425000D03*
X143212500Y-49925000D03*
X143212500Y-50425000D03*
D18*
X144625000Y-51837500D03*
X145125000Y-51837500D03*
X145625000Y-51837500D03*
X146125000Y-51837500D03*
X146625000Y-51837500D03*
X147125000Y-51837500D03*
X147625000Y-51837500D03*
X148125000Y-51837500D03*
X148625000Y-51837500D03*
X149125000Y-51837500D03*
X149625000Y-51837500D03*
X150125000Y-51837500D03*
D17*
X151537500Y-50425000D03*
X151537500Y-49925000D03*
X151537500Y-49425000D03*
X151537500Y-48925000D03*
X151537500Y-48425000D03*
X151537500Y-47925000D03*
X151537500Y-47425000D03*
X151537500Y-46925000D03*
X151537500Y-46425000D03*
X151537500Y-45925000D03*
X151537500Y-45425000D03*
X151537500Y-44925000D03*
D18*
X150125000Y-43512500D03*
X149625000Y-43512500D03*
X149125000Y-43512500D03*
X148625000Y-43512500D03*
X148125000Y-43512500D03*
X147625000Y-43512500D03*
X147125000Y-43512500D03*
X146625000Y-43512500D03*
X146125000Y-43512500D03*
X145625000Y-43512500D03*
X145125000Y-43512500D03*
X144625000Y-43512500D03*
%TD*%
D19*
%TO.C,U1*%
X118415000Y-98710000D03*
X118415000Y-97760000D03*
X118415000Y-96810000D03*
X115715000Y-96810000D03*
X115715000Y-97760000D03*
X115715000Y-98710000D03*
%TD*%
D20*
%TO.C,D3*%
X138642500Y-40520000D03*
X140692500Y-40520000D03*
%TD*%
D21*
%TO.C,CAN1*%
X90125000Y-48370000D03*
D22*
X92625000Y-48370000D03*
X95125000Y-48370000D03*
X97625000Y-48370000D03*
%TD*%
D10*
%TO.C,C11*%
X138212500Y-43225000D03*
X139937500Y-43225000D03*
%TD*%
D23*
%TO.C,PTC1*%
X162125000Y-72050000D03*
X157675000Y-72050000D03*
%TD*%
D21*
%TO.C,CAN2*%
X104725000Y-48550000D03*
D22*
X107225000Y-48550000D03*
X109725000Y-48550000D03*
X112225000Y-48550000D03*
%TD*%
D15*
%TO.C,JP3*%
X120025000Y-84900000D03*
X118725000Y-84900000D03*
X117425000Y-84900000D03*
%TD*%
D24*
%TO.C,Debug1*%
X137440000Y-32200000D03*
D25*
X137440000Y-29700000D03*
X137440000Y-27200000D03*
X137440000Y-24700000D03*
%TD*%
D26*
%TO.C,24VIN1*%
X159200000Y-77575000D03*
D27*
X154200000Y-77575000D03*
%TD*%
D28*
%TO.C,U2*%
X156850000Y-62955000D03*
D29*
X156850000Y-60415000D03*
X156850000Y-57875000D03*
X156850000Y-55335000D03*
X156850000Y-52795000D03*
X156850000Y-50255000D03*
X156850000Y-47715000D03*
X156850000Y-45175000D03*
X169550000Y-62955000D03*
X169550000Y-60415000D03*
X169550000Y-57875000D03*
X169550000Y-55335000D03*
X169550000Y-52795000D03*
X169550000Y-50255000D03*
X169550000Y-47715000D03*
X169550000Y-45175000D03*
%TD*%
D30*
%TO.C,R6*%
X163820000Y-31955000D03*
X163820000Y-33955000D03*
%TD*%
D31*
%TO.C,D1*%
X112575000Y-99750000D03*
X108575000Y-99750000D03*
%TD*%
D32*
%TO.C,U5*%
X152800000Y-30695000D03*
X152800000Y-31965000D03*
X152800000Y-33235000D03*
X152800000Y-34505000D03*
X157750000Y-34505000D03*
X157750000Y-33235000D03*
X157750000Y-31965000D03*
X157750000Y-30695000D03*
%TD*%
D20*
%TO.C,D2*%
X106815000Y-103260000D03*
X108865000Y-103260000D03*
%TD*%
D14*
%TO.C,R8*%
X136872500Y-40280000D03*
X135047500Y-40280000D03*
%TD*%
D11*
%TO.C,R7*%
X106800000Y-105090000D03*
X108625000Y-105090000D03*
%TD*%
D10*
%TO.C,C13*%
X154495000Y-29075000D03*
X156220000Y-29075000D03*
%TD*%
D33*
%TO.C,D_TVS1*%
X161025000Y-67450000D03*
X155625000Y-67450000D03*
%TD*%
D34*
%TO.C,C8*%
X111135000Y-102480000D03*
X111135000Y-104205000D03*
%TD*%
D35*
%TO.C,L1*%
X113735000Y-102380000D03*
X113735000Y-104730000D03*
%TD*%
D15*
%TO.C,JP1*%
X144045000Y-40830000D03*
X142745000Y-40830000D03*
%TD*%
D36*
%TO.C,C15*%
X151925000Y-43087500D03*
X151925000Y-41362500D03*
%TD*%
D34*
%TO.C,C14*%
X151925000Y-52262500D03*
X151925000Y-53987500D03*
%TD*%
D37*
%TO.C,C3*%
X167200000Y-66250000D03*
X167200000Y-71650000D03*
%TD*%
D38*
%TO.C,J1*%
X161900000Y-41025000D03*
D39*
X159360000Y-41025000D03*
X156820000Y-41025000D03*
X154280000Y-41025000D03*
%TD*%
M02*
