M48
; DRILL file KiCad 10.0.6-10.0.6~ubuntu24.04.1 date 2026-09-06T22:30:28
; FORMAT={-:-/ absolute / metric / decimal}
; #@! TF.CreationDate,2026-09-06T22:30:28+07:00
; #@! TF.GenerationSoftware,Kicad,Pcbnew,10.0.6-10.0.6~ubuntu24.04.1
; #@! TF.FileFunction,MixedPlating,1,2
FMAT,2
METRIC
; #@! TA.AperFunction,Plated,PTH,ViaDrill
T1C0.300
; #@! TA.AperFunction,Plated,PTH,ComponentDrill
T2C0.800
; #@! TA.AperFunction,Plated,PTH,ComponentDrill
T3C0.950
; #@! TA.AperFunction,Plated,PTH,ComponentDrill
T4C1.000
; #@! TA.AperFunction,Plated,PTH,ComponentDrill
T5C2.700
%
G90
G05
T1
X166.525Y-69.125
X166.525Y-69.7
X166.525Y-70.275
X166.525Y-70.875
X166.525Y-71.45
X166.525Y-71.975
X167.075Y-69.15
X167.075Y-69.725
X167.075Y-70.3
X167.075Y-70.9
X167.075Y-71.475
X167.075Y-72.0
X167.6Y-69.15
X167.6Y-69.725
X167.6Y-70.3
X167.6Y-70.9
X167.6Y-71.475
X167.6Y-72.0
T2
X156.85Y-45.175
X156.85Y-47.715
X156.85Y-50.255
X156.85Y-52.795
X156.85Y-55.335
X156.85Y-57.875
X156.85Y-60.415
X156.85Y-62.955
X169.55Y-45.175
X169.55Y-47.715
X169.55Y-50.255
X169.55Y-52.795
X169.55Y-55.335
X169.55Y-57.875
X169.55Y-60.415
X169.55Y-62.955
T3
X90.125Y-48.37
X92.625Y-48.37
X95.125Y-48.37
X97.625Y-48.37
X104.725Y-48.55
X107.225Y-48.55
X109.725Y-48.55
X112.225Y-48.55
X137.44Y-24.7
X137.44Y-27.2
X137.44Y-29.7
X137.44Y-32.2
T4
X154.28Y-41.025
X156.82Y-41.025
X159.36Y-41.025
X161.9Y-41.025
T5
X154.2Y-77.575
X159.2Y-77.575
M30
