%TF.GenerationSoftware,KiCad,Pcbnew,10.0.6-10.0.6~ubuntu24.04.1*%
%TF.CreationDate,2026-09-06T22:30:28+07:00*%
%TF.ProjectId,Stm32f072,53746d33-3266-4303-9732-2e6b69636164,rev?*%
%TF.SameCoordinates,Original*%
%TF.FileFunction,Legend,Top*%
%TF.FilePolarity,Positive*%
%FSLAX46Y46*%
G04 Gerber Fmt 4.6, Leading zero omitted, Abs format (unit mm)*
G04 Created by KiCad (PCBNEW 10.0.6-10.0.6~ubuntu24.04.1) date 2026-09-06 22:30:28*
%MOMM*%
%LPD*%
G01*
G04 APERTURE LIST*
%ADD10C,0.100000*%
%ADD11C,0.150000*%
%ADD12C,0.120000*%
%ADD13C,0.116289*%
G04 APERTURE END LIST*
D10*
X137200000Y-44500000D02*
G75*
G02*
X131800000Y-44500000I-2700000J0D01*
G01*
X131800000Y-44500000D02*
G75*
G02*
X137200000Y-44500000I2700000J0D01*
G01*
X137200000Y-75500000D02*
G75*
G02*
X131800000Y-75500000I-2700000J0D01*
G01*
X131800000Y-75500000D02*
G75*
G02*
X137200000Y-75500000I2700000J0D01*
G01*
X168200000Y-44500000D02*
G75*
G02*
X162800000Y-44500000I-2700000J0D01*
G01*
X162800000Y-44500000D02*
G75*
G02*
X168200000Y-44500000I2700000J0D01*
G01*
X168200000Y-75500000D02*
G75*
G02*
X162800000Y-75500000I-2700000J0D01*
G01*
X162800000Y-75500000D02*
G75*
G02*
X168200000Y-75500000I2700000J0D01*
G01*
X144837217Y-41883609D02*
X145146741Y-41883609D01*
X145146741Y-41883609D02*
X144980074Y-42074085D01*
X144980074Y-42074085D02*
X145051503Y-42074085D01*
X145051503Y-42074085D02*
X145099122Y-42097895D01*
X145099122Y-42097895D02*
X145122931Y-42121704D01*
X145122931Y-42121704D02*
X145146741Y-42169323D01*
X145146741Y-42169323D02*
X145146741Y-42288371D01*
X145146741Y-42288371D02*
X145122931Y-42335990D01*
X145122931Y-42335990D02*
X145099122Y-42359800D01*
X145099122Y-42359800D02*
X145051503Y-42383609D01*
X145051503Y-42383609D02*
X144908646Y-42383609D01*
X144908646Y-42383609D02*
X144861027Y-42359800D01*
X144861027Y-42359800D02*
X144837217Y-42335990D01*
X145289598Y-41883609D02*
X145456264Y-42383609D01*
X145456264Y-42383609D02*
X145622931Y-41883609D01*
X145741978Y-41883609D02*
X146051502Y-41883609D01*
X146051502Y-41883609D02*
X145884835Y-42074085D01*
X145884835Y-42074085D02*
X145956264Y-42074085D01*
X145956264Y-42074085D02*
X146003883Y-42097895D01*
X146003883Y-42097895D02*
X146027692Y-42121704D01*
X146027692Y-42121704D02*
X146051502Y-42169323D01*
X146051502Y-42169323D02*
X146051502Y-42288371D01*
X146051502Y-42288371D02*
X146027692Y-42335990D01*
X146027692Y-42335990D02*
X146003883Y-42359800D01*
X146003883Y-42359800D02*
X145956264Y-42383609D01*
X145956264Y-42383609D02*
X145813407Y-42383609D01*
X145813407Y-42383609D02*
X145765788Y-42359800D01*
X145765788Y-42359800D02*
X145741978Y-42335990D01*
X168943884Y-45992419D02*
X168943884Y-44992419D01*
X168943884Y-45468609D02*
X169515312Y-45468609D01*
X169515312Y-45992419D02*
X169515312Y-44992419D01*
X169470074Y-52492419D02*
X168993884Y-52492419D01*
X168993884Y-52492419D02*
X168993884Y-51492419D01*
D11*
X136767080Y-51452857D02*
X136814700Y-51500476D01*
X136814700Y-51500476D02*
X136862319Y-51643333D01*
X136862319Y-51643333D02*
X136862319Y-51738571D01*
X136862319Y-51738571D02*
X136814700Y-51881428D01*
X136814700Y-51881428D02*
X136719461Y-51976666D01*
X136719461Y-51976666D02*
X136624223Y-52024285D01*
X136624223Y-52024285D02*
X136433747Y-52071904D01*
X136433747Y-52071904D02*
X136290890Y-52071904D01*
X136290890Y-52071904D02*
X136100414Y-52024285D01*
X136100414Y-52024285D02*
X136005176Y-51976666D01*
X136005176Y-51976666D02*
X135909938Y-51881428D01*
X135909938Y-51881428D02*
X135862319Y-51738571D01*
X135862319Y-51738571D02*
X135862319Y-51643333D01*
X135862319Y-51643333D02*
X135909938Y-51500476D01*
X135909938Y-51500476D02*
X135957557Y-51452857D01*
X136862319Y-50500476D02*
X136862319Y-51071904D01*
X136862319Y-50786190D02*
X135862319Y-50786190D01*
X135862319Y-50786190D02*
X136005176Y-50881428D01*
X136005176Y-50881428D02*
X136100414Y-50976666D01*
X136100414Y-50976666D02*
X136148033Y-51071904D01*
X135957557Y-50119523D02*
X135909938Y-50071904D01*
X135909938Y-50071904D02*
X135862319Y-49976666D01*
X135862319Y-49976666D02*
X135862319Y-49738571D01*
X135862319Y-49738571D02*
X135909938Y-49643333D01*
X135909938Y-49643333D02*
X135957557Y-49595714D01*
X135957557Y-49595714D02*
X136052795Y-49548095D01*
X136052795Y-49548095D02*
X136148033Y-49548095D01*
X136148033Y-49548095D02*
X136290890Y-49595714D01*
X136290890Y-49595714D02*
X136862319Y-50167142D01*
X136862319Y-50167142D02*
X136862319Y-49548095D01*
X122328333Y-95824819D02*
X121995000Y-95348628D01*
X121756905Y-95824819D02*
X121756905Y-94824819D01*
X121756905Y-94824819D02*
X122137857Y-94824819D01*
X122137857Y-94824819D02*
X122233095Y-94872438D01*
X122233095Y-94872438D02*
X122280714Y-94920057D01*
X122280714Y-94920057D02*
X122328333Y-95015295D01*
X122328333Y-95015295D02*
X122328333Y-95158152D01*
X122328333Y-95158152D02*
X122280714Y-95253390D01*
X122280714Y-95253390D02*
X122233095Y-95301009D01*
X122233095Y-95301009D02*
X122137857Y-95348628D01*
X122137857Y-95348628D02*
X121756905Y-95348628D01*
X122709286Y-94920057D02*
X122756905Y-94872438D01*
X122756905Y-94872438D02*
X122852143Y-94824819D01*
X122852143Y-94824819D02*
X123090238Y-94824819D01*
X123090238Y-94824819D02*
X123185476Y-94872438D01*
X123185476Y-94872438D02*
X123233095Y-94920057D01*
X123233095Y-94920057D02*
X123280714Y-95015295D01*
X123280714Y-95015295D02*
X123280714Y-95110533D01*
X123280714Y-95110533D02*
X123233095Y-95253390D01*
X123233095Y-95253390D02*
X122661667Y-95824819D01*
X122661667Y-95824819D02*
X123280714Y-95824819D01*
X109828333Y-95769580D02*
X109780714Y-95817200D01*
X109780714Y-95817200D02*
X109637857Y-95864819D01*
X109637857Y-95864819D02*
X109542619Y-95864819D01*
X109542619Y-95864819D02*
X109399762Y-95817200D01*
X109399762Y-95817200D02*
X109304524Y-95721961D01*
X109304524Y-95721961D02*
X109256905Y-95626723D01*
X109256905Y-95626723D02*
X109209286Y-95436247D01*
X109209286Y-95436247D02*
X109209286Y-95293390D01*
X109209286Y-95293390D02*
X109256905Y-95102914D01*
X109256905Y-95102914D02*
X109304524Y-95007676D01*
X109304524Y-95007676D02*
X109399762Y-94912438D01*
X109399762Y-94912438D02*
X109542619Y-94864819D01*
X109542619Y-94864819D02*
X109637857Y-94864819D01*
X109637857Y-94864819D02*
X109780714Y-94912438D01*
X109780714Y-94912438D02*
X109828333Y-94960057D01*
X110685476Y-94864819D02*
X110495000Y-94864819D01*
X110495000Y-94864819D02*
X110399762Y-94912438D01*
X110399762Y-94912438D02*
X110352143Y-94960057D01*
X110352143Y-94960057D02*
X110256905Y-95102914D01*
X110256905Y-95102914D02*
X110209286Y-95293390D01*
X110209286Y-95293390D02*
X110209286Y-95674342D01*
X110209286Y-95674342D02*
X110256905Y-95769580D01*
X110256905Y-95769580D02*
X110304524Y-95817200D01*
X110304524Y-95817200D02*
X110399762Y-95864819D01*
X110399762Y-95864819D02*
X110590238Y-95864819D01*
X110590238Y-95864819D02*
X110685476Y-95817200D01*
X110685476Y-95817200D02*
X110733095Y-95769580D01*
X110733095Y-95769580D02*
X110780714Y-95674342D01*
X110780714Y-95674342D02*
X110780714Y-95436247D01*
X110780714Y-95436247D02*
X110733095Y-95341009D01*
X110733095Y-95341009D02*
X110685476Y-95293390D01*
X110685476Y-95293390D02*
X110590238Y-95245771D01*
X110590238Y-95245771D02*
X110399762Y-95245771D01*
X110399762Y-95245771D02*
X110304524Y-95293390D01*
X110304524Y-95293390D02*
X110256905Y-95341009D01*
X110256905Y-95341009D02*
X110209286Y-95436247D01*
X122418333Y-100209580D02*
X122370714Y-100257200D01*
X122370714Y-100257200D02*
X122227857Y-100304819D01*
X122227857Y-100304819D02*
X122132619Y-100304819D01*
X122132619Y-100304819D02*
X121989762Y-100257200D01*
X121989762Y-100257200D02*
X121894524Y-100161961D01*
X121894524Y-100161961D02*
X121846905Y-100066723D01*
X121846905Y-100066723D02*
X121799286Y-99876247D01*
X121799286Y-99876247D02*
X121799286Y-99733390D01*
X121799286Y-99733390D02*
X121846905Y-99542914D01*
X121846905Y-99542914D02*
X121894524Y-99447676D01*
X121894524Y-99447676D02*
X121989762Y-99352438D01*
X121989762Y-99352438D02*
X122132619Y-99304819D01*
X122132619Y-99304819D02*
X122227857Y-99304819D01*
X122227857Y-99304819D02*
X122370714Y-99352438D01*
X122370714Y-99352438D02*
X122418333Y-99400057D01*
X123275476Y-99638152D02*
X123275476Y-100304819D01*
X123037381Y-99257200D02*
X122799286Y-99971485D01*
X122799286Y-99971485D02*
X123418333Y-99971485D01*
X120455833Y-100519819D02*
X120122500Y-100043628D01*
X119884405Y-100519819D02*
X119884405Y-99519819D01*
X119884405Y-99519819D02*
X120265357Y-99519819D01*
X120265357Y-99519819D02*
X120360595Y-99567438D01*
X120360595Y-99567438D02*
X120408214Y-99615057D01*
X120408214Y-99615057D02*
X120455833Y-99710295D01*
X120455833Y-99710295D02*
X120455833Y-99853152D01*
X120455833Y-99853152D02*
X120408214Y-99948390D01*
X120408214Y-99948390D02*
X120360595Y-99996009D01*
X120360595Y-99996009D02*
X120265357Y-100043628D01*
X120265357Y-100043628D02*
X119884405Y-100043628D01*
X121408214Y-100519819D02*
X120836786Y-100519819D01*
X121122500Y-100519819D02*
X121122500Y-99519819D01*
X121122500Y-99519819D02*
X121027262Y-99662676D01*
X121027262Y-99662676D02*
X120932024Y-99757914D01*
X120932024Y-99757914D02*
X120836786Y-99805533D01*
X93952142Y-59364819D02*
X93618809Y-58888628D01*
X93380714Y-59364819D02*
X93380714Y-58364819D01*
X93380714Y-58364819D02*
X93761666Y-58364819D01*
X93761666Y-58364819D02*
X93856904Y-58412438D01*
X93856904Y-58412438D02*
X93904523Y-58460057D01*
X93904523Y-58460057D02*
X93952142Y-58555295D01*
X93952142Y-58555295D02*
X93952142Y-58698152D01*
X93952142Y-58698152D02*
X93904523Y-58793390D01*
X93904523Y-58793390D02*
X93856904Y-58841009D01*
X93856904Y-58841009D02*
X93761666Y-58888628D01*
X93761666Y-58888628D02*
X93380714Y-58888628D01*
X94904523Y-59364819D02*
X94333095Y-59364819D01*
X94618809Y-59364819D02*
X94618809Y-58364819D01*
X94618809Y-58364819D02*
X94523571Y-58507676D01*
X94523571Y-58507676D02*
X94428333Y-58602914D01*
X94428333Y-58602914D02*
X94333095Y-58650533D01*
X95523571Y-58364819D02*
X95618809Y-58364819D01*
X95618809Y-58364819D02*
X95714047Y-58412438D01*
X95714047Y-58412438D02*
X95761666Y-58460057D01*
X95761666Y-58460057D02*
X95809285Y-58555295D01*
X95809285Y-58555295D02*
X95856904Y-58745771D01*
X95856904Y-58745771D02*
X95856904Y-58983866D01*
X95856904Y-58983866D02*
X95809285Y-59174342D01*
X95809285Y-59174342D02*
X95761666Y-59269580D01*
X95761666Y-59269580D02*
X95714047Y-59317200D01*
X95714047Y-59317200D02*
X95618809Y-59364819D01*
X95618809Y-59364819D02*
X95523571Y-59364819D01*
X95523571Y-59364819D02*
X95428333Y-59317200D01*
X95428333Y-59317200D02*
X95380714Y-59269580D01*
X95380714Y-59269580D02*
X95333095Y-59174342D01*
X95333095Y-59174342D02*
X95285476Y-58983866D01*
X95285476Y-58983866D02*
X95285476Y-58745771D01*
X95285476Y-58745771D02*
X95333095Y-58555295D01*
X95333095Y-58555295D02*
X95380714Y-58460057D01*
X95380714Y-58460057D02*
X95428333Y-58412438D01*
X95428333Y-58412438D02*
X95523571Y-58364819D01*
X118794580Y-101006666D02*
X118842200Y-101054285D01*
X118842200Y-101054285D02*
X118889819Y-101197142D01*
X118889819Y-101197142D02*
X118889819Y-101292380D01*
X118889819Y-101292380D02*
X118842200Y-101435237D01*
X118842200Y-101435237D02*
X118746961Y-101530475D01*
X118746961Y-101530475D02*
X118651723Y-101578094D01*
X118651723Y-101578094D02*
X118461247Y-101625713D01*
X118461247Y-101625713D02*
X118318390Y-101625713D01*
X118318390Y-101625713D02*
X118127914Y-101578094D01*
X118127914Y-101578094D02*
X118032676Y-101530475D01*
X118032676Y-101530475D02*
X117937438Y-101435237D01*
X117937438Y-101435237D02*
X117889819Y-101292380D01*
X117889819Y-101292380D02*
X117889819Y-101197142D01*
X117889819Y-101197142D02*
X117937438Y-101054285D01*
X117937438Y-101054285D02*
X117985057Y-101006666D01*
X117889819Y-100101904D02*
X117889819Y-100578094D01*
X117889819Y-100578094D02*
X118366009Y-100625713D01*
X118366009Y-100625713D02*
X118318390Y-100578094D01*
X118318390Y-100578094D02*
X118270771Y-100482856D01*
X118270771Y-100482856D02*
X118270771Y-100244761D01*
X118270771Y-100244761D02*
X118318390Y-100149523D01*
X118318390Y-100149523D02*
X118366009Y-100101904D01*
X118366009Y-100101904D02*
X118461247Y-100054285D01*
X118461247Y-100054285D02*
X118699342Y-100054285D01*
X118699342Y-100054285D02*
X118794580Y-100101904D01*
X118794580Y-100101904D02*
X118842200Y-100149523D01*
X118842200Y-100149523D02*
X118889819Y-100244761D01*
X118889819Y-100244761D02*
X118889819Y-100482856D01*
X118889819Y-100482856D02*
X118842200Y-100578094D01*
X118842200Y-100578094D02*
X118794580Y-100625713D01*
X147528333Y-42434819D02*
X147195000Y-41958628D01*
X146956905Y-42434819D02*
X146956905Y-41434819D01*
X146956905Y-41434819D02*
X147337857Y-41434819D01*
X147337857Y-41434819D02*
X147433095Y-41482438D01*
X147433095Y-41482438D02*
X147480714Y-41530057D01*
X147480714Y-41530057D02*
X147528333Y-41625295D01*
X147528333Y-41625295D02*
X147528333Y-41768152D01*
X147528333Y-41768152D02*
X147480714Y-41863390D01*
X147480714Y-41863390D02*
X147433095Y-41911009D01*
X147433095Y-41911009D02*
X147337857Y-41958628D01*
X147337857Y-41958628D02*
X146956905Y-41958628D01*
X148433095Y-41434819D02*
X147956905Y-41434819D01*
X147956905Y-41434819D02*
X147909286Y-41911009D01*
X147909286Y-41911009D02*
X147956905Y-41863390D01*
X147956905Y-41863390D02*
X148052143Y-41815771D01*
X148052143Y-41815771D02*
X148290238Y-41815771D01*
X148290238Y-41815771D02*
X148385476Y-41863390D01*
X148385476Y-41863390D02*
X148433095Y-41911009D01*
X148433095Y-41911009D02*
X148480714Y-42006247D01*
X148480714Y-42006247D02*
X148480714Y-42244342D01*
X148480714Y-42244342D02*
X148433095Y-42339580D01*
X148433095Y-42339580D02*
X148385476Y-42387200D01*
X148385476Y-42387200D02*
X148290238Y-42434819D01*
X148290238Y-42434819D02*
X148052143Y-42434819D01*
X148052143Y-42434819D02*
X147956905Y-42387200D01*
X147956905Y-42387200D02*
X147909286Y-42339580D01*
X94428333Y-56854819D02*
X94095000Y-56378628D01*
X93856905Y-56854819D02*
X93856905Y-55854819D01*
X93856905Y-55854819D02*
X94237857Y-55854819D01*
X94237857Y-55854819D02*
X94333095Y-55902438D01*
X94333095Y-55902438D02*
X94380714Y-55950057D01*
X94380714Y-55950057D02*
X94428333Y-56045295D01*
X94428333Y-56045295D02*
X94428333Y-56188152D01*
X94428333Y-56188152D02*
X94380714Y-56283390D01*
X94380714Y-56283390D02*
X94333095Y-56331009D01*
X94333095Y-56331009D02*
X94237857Y-56378628D01*
X94237857Y-56378628D02*
X93856905Y-56378628D01*
X94904524Y-56854819D02*
X95095000Y-56854819D01*
X95095000Y-56854819D02*
X95190238Y-56807200D01*
X95190238Y-56807200D02*
X95237857Y-56759580D01*
X95237857Y-56759580D02*
X95333095Y-56616723D01*
X95333095Y-56616723D02*
X95380714Y-56426247D01*
X95380714Y-56426247D02*
X95380714Y-56045295D01*
X95380714Y-56045295D02*
X95333095Y-55950057D01*
X95333095Y-55950057D02*
X95285476Y-55902438D01*
X95285476Y-55902438D02*
X95190238Y-55854819D01*
X95190238Y-55854819D02*
X94999762Y-55854819D01*
X94999762Y-55854819D02*
X94904524Y-55902438D01*
X94904524Y-55902438D02*
X94856905Y-55950057D01*
X94856905Y-55950057D02*
X94809286Y-56045295D01*
X94809286Y-56045295D02*
X94809286Y-56283390D01*
X94809286Y-56283390D02*
X94856905Y-56378628D01*
X94856905Y-56378628D02*
X94904524Y-56426247D01*
X94904524Y-56426247D02*
X94999762Y-56473866D01*
X94999762Y-56473866D02*
X95190238Y-56473866D01*
X95190238Y-56473866D02*
X95285476Y-56426247D01*
X95285476Y-56426247D02*
X95333095Y-56378628D01*
X95333095Y-56378628D02*
X95380714Y-56283390D01*
X109531666Y-84564819D02*
X109531666Y-85279104D01*
X109531666Y-85279104D02*
X109484047Y-85421961D01*
X109484047Y-85421961D02*
X109388809Y-85517200D01*
X109388809Y-85517200D02*
X109245952Y-85564819D01*
X109245952Y-85564819D02*
X109150714Y-85564819D01*
X110007857Y-85564819D02*
X110007857Y-84564819D01*
X110007857Y-84564819D02*
X110388809Y-84564819D01*
X110388809Y-84564819D02*
X110484047Y-84612438D01*
X110484047Y-84612438D02*
X110531666Y-84660057D01*
X110531666Y-84660057D02*
X110579285Y-84755295D01*
X110579285Y-84755295D02*
X110579285Y-84898152D01*
X110579285Y-84898152D02*
X110531666Y-84993390D01*
X110531666Y-84993390D02*
X110484047Y-85041009D01*
X110484047Y-85041009D02*
X110388809Y-85088628D01*
X110388809Y-85088628D02*
X110007857Y-85088628D01*
X110960238Y-84660057D02*
X111007857Y-84612438D01*
X111007857Y-84612438D02*
X111103095Y-84564819D01*
X111103095Y-84564819D02*
X111341190Y-84564819D01*
X111341190Y-84564819D02*
X111436428Y-84612438D01*
X111436428Y-84612438D02*
X111484047Y-84660057D01*
X111484047Y-84660057D02*
X111531666Y-84755295D01*
X111531666Y-84755295D02*
X111531666Y-84850533D01*
X111531666Y-84850533D02*
X111484047Y-84993390D01*
X111484047Y-84993390D02*
X110912619Y-85564819D01*
X110912619Y-85564819D02*
X111531666Y-85564819D01*
X112480714Y-83264819D02*
X111909286Y-83264819D01*
X112195000Y-83264819D02*
X112195000Y-82264819D01*
X112195000Y-82264819D02*
X112099762Y-82407676D01*
X112099762Y-82407676D02*
X112004524Y-82502914D01*
X112004524Y-82502914D02*
X111909286Y-82550533D01*
X114881667Y-82544819D02*
X115500714Y-82544819D01*
X115500714Y-82544819D02*
X115167381Y-82925771D01*
X115167381Y-82925771D02*
X115310238Y-82925771D01*
X115310238Y-82925771D02*
X115405476Y-82973390D01*
X115405476Y-82973390D02*
X115453095Y-83021009D01*
X115453095Y-83021009D02*
X115500714Y-83116247D01*
X115500714Y-83116247D02*
X115500714Y-83354342D01*
X115500714Y-83354342D02*
X115453095Y-83449580D01*
X115453095Y-83449580D02*
X115405476Y-83497200D01*
X115405476Y-83497200D02*
X115310238Y-83544819D01*
X115310238Y-83544819D02*
X115024524Y-83544819D01*
X115024524Y-83544819D02*
X114929286Y-83497200D01*
X114929286Y-83497200D02*
X114881667Y-83449580D01*
X114060833Y-93664819D02*
X113727500Y-93188628D01*
X113489405Y-93664819D02*
X113489405Y-92664819D01*
X113489405Y-92664819D02*
X113870357Y-92664819D01*
X113870357Y-92664819D02*
X113965595Y-92712438D01*
X113965595Y-92712438D02*
X114013214Y-92760057D01*
X114013214Y-92760057D02*
X114060833Y-92855295D01*
X114060833Y-92855295D02*
X114060833Y-92998152D01*
X114060833Y-92998152D02*
X114013214Y-93093390D01*
X114013214Y-93093390D02*
X113965595Y-93141009D01*
X113965595Y-93141009D02*
X113870357Y-93188628D01*
X113870357Y-93188628D02*
X113489405Y-93188628D01*
X114394167Y-92664819D02*
X115013214Y-92664819D01*
X115013214Y-92664819D02*
X114679881Y-93045771D01*
X114679881Y-93045771D02*
X114822738Y-93045771D01*
X114822738Y-93045771D02*
X114917976Y-93093390D01*
X114917976Y-93093390D02*
X114965595Y-93141009D01*
X114965595Y-93141009D02*
X115013214Y-93236247D01*
X115013214Y-93236247D02*
X115013214Y-93474342D01*
X115013214Y-93474342D02*
X114965595Y-93569580D01*
X114965595Y-93569580D02*
X114917976Y-93617200D01*
X114917976Y-93617200D02*
X114822738Y-93664819D01*
X114822738Y-93664819D02*
X114537024Y-93664819D01*
X114537024Y-93664819D02*
X114441786Y-93617200D01*
X114441786Y-93617200D02*
X114394167Y-93569580D01*
X137078628Y-47676190D02*
X137554819Y-47676190D01*
X136554819Y-48009523D02*
X137078628Y-47676190D01*
X137078628Y-47676190D02*
X136554819Y-47342857D01*
X137554819Y-46485714D02*
X137554819Y-47057142D01*
X137554819Y-46771428D02*
X136554819Y-46771428D01*
X136554819Y-46771428D02*
X136697676Y-46866666D01*
X136697676Y-46866666D02*
X136792914Y-46961904D01*
X136792914Y-46961904D02*
X136840533Y-47057142D01*
X142443095Y-51789819D02*
X142443095Y-52599342D01*
X142443095Y-52599342D02*
X142490714Y-52694580D01*
X142490714Y-52694580D02*
X142538333Y-52742200D01*
X142538333Y-52742200D02*
X142633571Y-52789819D01*
X142633571Y-52789819D02*
X142824047Y-52789819D01*
X142824047Y-52789819D02*
X142919285Y-52742200D01*
X142919285Y-52742200D02*
X142966904Y-52694580D01*
X142966904Y-52694580D02*
X143014523Y-52599342D01*
X143014523Y-52599342D02*
X143014523Y-51789819D01*
X143919285Y-52123152D02*
X143919285Y-52789819D01*
X143681190Y-51742200D02*
X143443095Y-52456485D01*
X143443095Y-52456485D02*
X144062142Y-52456485D01*
X116303095Y-100114819D02*
X116303095Y-100924342D01*
X116303095Y-100924342D02*
X116350714Y-101019580D01*
X116350714Y-101019580D02*
X116398333Y-101067200D01*
X116398333Y-101067200D02*
X116493571Y-101114819D01*
X116493571Y-101114819D02*
X116684047Y-101114819D01*
X116684047Y-101114819D02*
X116779285Y-101067200D01*
X116779285Y-101067200D02*
X116826904Y-101019580D01*
X116826904Y-101019580D02*
X116874523Y-100924342D01*
X116874523Y-100924342D02*
X116874523Y-100114819D01*
X117874523Y-101114819D02*
X117303095Y-101114819D01*
X117588809Y-101114819D02*
X117588809Y-100114819D01*
X117588809Y-100114819D02*
X117493571Y-100257676D01*
X117493571Y-100257676D02*
X117398333Y-100352914D01*
X117398333Y-100352914D02*
X117303095Y-100400533D01*
X139126905Y-42694819D02*
X139126905Y-41694819D01*
X139126905Y-41694819D02*
X139365000Y-41694819D01*
X139365000Y-41694819D02*
X139507857Y-41742438D01*
X139507857Y-41742438D02*
X139603095Y-41837676D01*
X139603095Y-41837676D02*
X139650714Y-41932914D01*
X139650714Y-41932914D02*
X139698333Y-42123390D01*
X139698333Y-42123390D02*
X139698333Y-42266247D01*
X139698333Y-42266247D02*
X139650714Y-42456723D01*
X139650714Y-42456723D02*
X139603095Y-42551961D01*
X139603095Y-42551961D02*
X139507857Y-42647200D01*
X139507857Y-42647200D02*
X139365000Y-42694819D01*
X139365000Y-42694819D02*
X139126905Y-42694819D01*
X140031667Y-41694819D02*
X140650714Y-41694819D01*
X140650714Y-41694819D02*
X140317381Y-42075771D01*
X140317381Y-42075771D02*
X140460238Y-42075771D01*
X140460238Y-42075771D02*
X140555476Y-42123390D01*
X140555476Y-42123390D02*
X140603095Y-42171009D01*
X140603095Y-42171009D02*
X140650714Y-42266247D01*
X140650714Y-42266247D02*
X140650714Y-42504342D01*
X140650714Y-42504342D02*
X140603095Y-42599580D01*
X140603095Y-42599580D02*
X140555476Y-42647200D01*
X140555476Y-42647200D02*
X140460238Y-42694819D01*
X140460238Y-42694819D02*
X140174524Y-42694819D01*
X140174524Y-42694819D02*
X140079286Y-42647200D01*
X140079286Y-42647200D02*
X140031667Y-42599580D01*
X92755952Y-45179580D02*
X92708333Y-45227200D01*
X92708333Y-45227200D02*
X92565476Y-45274819D01*
X92565476Y-45274819D02*
X92470238Y-45274819D01*
X92470238Y-45274819D02*
X92327381Y-45227200D01*
X92327381Y-45227200D02*
X92232143Y-45131961D01*
X92232143Y-45131961D02*
X92184524Y-45036723D01*
X92184524Y-45036723D02*
X92136905Y-44846247D01*
X92136905Y-44846247D02*
X92136905Y-44703390D01*
X92136905Y-44703390D02*
X92184524Y-44512914D01*
X92184524Y-44512914D02*
X92232143Y-44417676D01*
X92232143Y-44417676D02*
X92327381Y-44322438D01*
X92327381Y-44322438D02*
X92470238Y-44274819D01*
X92470238Y-44274819D02*
X92565476Y-44274819D01*
X92565476Y-44274819D02*
X92708333Y-44322438D01*
X92708333Y-44322438D02*
X92755952Y-44370057D01*
X93136905Y-44989104D02*
X93613095Y-44989104D01*
X93041667Y-45274819D02*
X93375000Y-44274819D01*
X93375000Y-44274819D02*
X93708333Y-45274819D01*
X94041667Y-45274819D02*
X94041667Y-44274819D01*
X94041667Y-44274819D02*
X94613095Y-45274819D01*
X94613095Y-45274819D02*
X94613095Y-44274819D01*
X95613095Y-45274819D02*
X95041667Y-45274819D01*
X95327381Y-45274819D02*
X95327381Y-44274819D01*
X95327381Y-44274819D02*
X95232143Y-44417676D01*
X95232143Y-44417676D02*
X95136905Y-44512914D01*
X95136905Y-44512914D02*
X95041667Y-44560533D01*
X141462142Y-43544580D02*
X141414523Y-43592200D01*
X141414523Y-43592200D02*
X141271666Y-43639819D01*
X141271666Y-43639819D02*
X141176428Y-43639819D01*
X141176428Y-43639819D02*
X141033571Y-43592200D01*
X141033571Y-43592200D02*
X140938333Y-43496961D01*
X140938333Y-43496961D02*
X140890714Y-43401723D01*
X140890714Y-43401723D02*
X140843095Y-43211247D01*
X140843095Y-43211247D02*
X140843095Y-43068390D01*
X140843095Y-43068390D02*
X140890714Y-42877914D01*
X140890714Y-42877914D02*
X140938333Y-42782676D01*
X140938333Y-42782676D02*
X141033571Y-42687438D01*
X141033571Y-42687438D02*
X141176428Y-42639819D01*
X141176428Y-42639819D02*
X141271666Y-42639819D01*
X141271666Y-42639819D02*
X141414523Y-42687438D01*
X141414523Y-42687438D02*
X141462142Y-42735057D01*
X142414523Y-43639819D02*
X141843095Y-43639819D01*
X142128809Y-43639819D02*
X142128809Y-42639819D01*
X142128809Y-42639819D02*
X142033571Y-42782676D01*
X142033571Y-42782676D02*
X141938333Y-42877914D01*
X141938333Y-42877914D02*
X141843095Y-42925533D01*
X143366904Y-43639819D02*
X142795476Y-43639819D01*
X143081190Y-43639819D02*
X143081190Y-42639819D01*
X143081190Y-42639819D02*
X142985952Y-42782676D01*
X142985952Y-42782676D02*
X142890714Y-42877914D01*
X142890714Y-42877914D02*
X142795476Y-42925533D01*
X158280952Y-75154819D02*
X158280952Y-74154819D01*
X158280952Y-74154819D02*
X158661904Y-74154819D01*
X158661904Y-74154819D02*
X158757142Y-74202438D01*
X158757142Y-74202438D02*
X158804761Y-74250057D01*
X158804761Y-74250057D02*
X158852380Y-74345295D01*
X158852380Y-74345295D02*
X158852380Y-74488152D01*
X158852380Y-74488152D02*
X158804761Y-74583390D01*
X158804761Y-74583390D02*
X158757142Y-74631009D01*
X158757142Y-74631009D02*
X158661904Y-74678628D01*
X158661904Y-74678628D02*
X158280952Y-74678628D01*
X159138095Y-74154819D02*
X159709523Y-74154819D01*
X159423809Y-75154819D02*
X159423809Y-74154819D01*
X160614285Y-75059580D02*
X160566666Y-75107200D01*
X160566666Y-75107200D02*
X160423809Y-75154819D01*
X160423809Y-75154819D02*
X160328571Y-75154819D01*
X160328571Y-75154819D02*
X160185714Y-75107200D01*
X160185714Y-75107200D02*
X160090476Y-75011961D01*
X160090476Y-75011961D02*
X160042857Y-74916723D01*
X160042857Y-74916723D02*
X159995238Y-74726247D01*
X159995238Y-74726247D02*
X159995238Y-74583390D01*
X159995238Y-74583390D02*
X160042857Y-74392914D01*
X160042857Y-74392914D02*
X160090476Y-74297676D01*
X160090476Y-74297676D02*
X160185714Y-74202438D01*
X160185714Y-74202438D02*
X160328571Y-74154819D01*
X160328571Y-74154819D02*
X160423809Y-74154819D01*
X160423809Y-74154819D02*
X160566666Y-74202438D01*
X160566666Y-74202438D02*
X160614285Y-74250057D01*
X161566666Y-75154819D02*
X160995238Y-75154819D01*
X161280952Y-75154819D02*
X161280952Y-74154819D01*
X161280952Y-74154819D02*
X161185714Y-74297676D01*
X161185714Y-74297676D02*
X161090476Y-74392914D01*
X161090476Y-74392914D02*
X160995238Y-74440533D01*
X107355952Y-45359580D02*
X107308333Y-45407200D01*
X107308333Y-45407200D02*
X107165476Y-45454819D01*
X107165476Y-45454819D02*
X107070238Y-45454819D01*
X107070238Y-45454819D02*
X106927381Y-45407200D01*
X106927381Y-45407200D02*
X106832143Y-45311961D01*
X106832143Y-45311961D02*
X106784524Y-45216723D01*
X106784524Y-45216723D02*
X106736905Y-45026247D01*
X106736905Y-45026247D02*
X106736905Y-44883390D01*
X106736905Y-44883390D02*
X106784524Y-44692914D01*
X106784524Y-44692914D02*
X106832143Y-44597676D01*
X106832143Y-44597676D02*
X106927381Y-44502438D01*
X106927381Y-44502438D02*
X107070238Y-44454819D01*
X107070238Y-44454819D02*
X107165476Y-44454819D01*
X107165476Y-44454819D02*
X107308333Y-44502438D01*
X107308333Y-44502438D02*
X107355952Y-44550057D01*
X107736905Y-45169104D02*
X108213095Y-45169104D01*
X107641667Y-45454819D02*
X107975000Y-44454819D01*
X107975000Y-44454819D02*
X108308333Y-45454819D01*
X108641667Y-45454819D02*
X108641667Y-44454819D01*
X108641667Y-44454819D02*
X109213095Y-45454819D01*
X109213095Y-45454819D02*
X109213095Y-44454819D01*
X109641667Y-44550057D02*
X109689286Y-44502438D01*
X109689286Y-44502438D02*
X109784524Y-44454819D01*
X109784524Y-44454819D02*
X110022619Y-44454819D01*
X110022619Y-44454819D02*
X110117857Y-44502438D01*
X110117857Y-44502438D02*
X110165476Y-44550057D01*
X110165476Y-44550057D02*
X110213095Y-44645295D01*
X110213095Y-44645295D02*
X110213095Y-44740533D01*
X110213095Y-44740533D02*
X110165476Y-44883390D01*
X110165476Y-44883390D02*
X109594048Y-45454819D01*
X109594048Y-45454819D02*
X110213095Y-45454819D01*
X121811666Y-84244819D02*
X121811666Y-84959104D01*
X121811666Y-84959104D02*
X121764047Y-85101961D01*
X121764047Y-85101961D02*
X121668809Y-85197200D01*
X121668809Y-85197200D02*
X121525952Y-85244819D01*
X121525952Y-85244819D02*
X121430714Y-85244819D01*
X122287857Y-85244819D02*
X122287857Y-84244819D01*
X122287857Y-84244819D02*
X122668809Y-84244819D01*
X122668809Y-84244819D02*
X122764047Y-84292438D01*
X122764047Y-84292438D02*
X122811666Y-84340057D01*
X122811666Y-84340057D02*
X122859285Y-84435295D01*
X122859285Y-84435295D02*
X122859285Y-84578152D01*
X122859285Y-84578152D02*
X122811666Y-84673390D01*
X122811666Y-84673390D02*
X122764047Y-84721009D01*
X122764047Y-84721009D02*
X122668809Y-84768628D01*
X122668809Y-84768628D02*
X122287857Y-84768628D01*
X123192619Y-84244819D02*
X123811666Y-84244819D01*
X123811666Y-84244819D02*
X123478333Y-84625771D01*
X123478333Y-84625771D02*
X123621190Y-84625771D01*
X123621190Y-84625771D02*
X123716428Y-84673390D01*
X123716428Y-84673390D02*
X123764047Y-84721009D01*
X123764047Y-84721009D02*
X123811666Y-84816247D01*
X123811666Y-84816247D02*
X123811666Y-85054342D01*
X123811666Y-85054342D02*
X123764047Y-85149580D01*
X123764047Y-85149580D02*
X123716428Y-85197200D01*
X123716428Y-85197200D02*
X123621190Y-85244819D01*
X123621190Y-85244819D02*
X123335476Y-85244819D01*
X123335476Y-85244819D02*
X123240238Y-85197200D01*
X123240238Y-85197200D02*
X123192619Y-85149580D01*
X117061667Y-82494819D02*
X117680714Y-82494819D01*
X117680714Y-82494819D02*
X117347381Y-82875771D01*
X117347381Y-82875771D02*
X117490238Y-82875771D01*
X117490238Y-82875771D02*
X117585476Y-82923390D01*
X117585476Y-82923390D02*
X117633095Y-82971009D01*
X117633095Y-82971009D02*
X117680714Y-83066247D01*
X117680714Y-83066247D02*
X117680714Y-83304342D01*
X117680714Y-83304342D02*
X117633095Y-83399580D01*
X117633095Y-83399580D02*
X117585476Y-83447200D01*
X117585476Y-83447200D02*
X117490238Y-83494819D01*
X117490238Y-83494819D02*
X117204524Y-83494819D01*
X117204524Y-83494819D02*
X117109286Y-83447200D01*
X117109286Y-83447200D02*
X117061667Y-83399580D01*
X120540714Y-83464819D02*
X119969286Y-83464819D01*
X120255000Y-83464819D02*
X120255000Y-82464819D01*
X120255000Y-82464819D02*
X120159762Y-82607676D01*
X120159762Y-82607676D02*
X120064524Y-82702914D01*
X120064524Y-82702914D02*
X119969286Y-82750533D01*
X134344819Y-30973809D02*
X133344819Y-30973809D01*
X133344819Y-30973809D02*
X133344819Y-30735714D01*
X133344819Y-30735714D02*
X133392438Y-30592857D01*
X133392438Y-30592857D02*
X133487676Y-30497619D01*
X133487676Y-30497619D02*
X133582914Y-30450000D01*
X133582914Y-30450000D02*
X133773390Y-30402381D01*
X133773390Y-30402381D02*
X133916247Y-30402381D01*
X133916247Y-30402381D02*
X134106723Y-30450000D01*
X134106723Y-30450000D02*
X134201961Y-30497619D01*
X134201961Y-30497619D02*
X134297200Y-30592857D01*
X134297200Y-30592857D02*
X134344819Y-30735714D01*
X134344819Y-30735714D02*
X134344819Y-30973809D01*
X134297200Y-29592857D02*
X134344819Y-29688095D01*
X134344819Y-29688095D02*
X134344819Y-29878571D01*
X134344819Y-29878571D02*
X134297200Y-29973809D01*
X134297200Y-29973809D02*
X134201961Y-30021428D01*
X134201961Y-30021428D02*
X133821009Y-30021428D01*
X133821009Y-30021428D02*
X133725771Y-29973809D01*
X133725771Y-29973809D02*
X133678152Y-29878571D01*
X133678152Y-29878571D02*
X133678152Y-29688095D01*
X133678152Y-29688095D02*
X133725771Y-29592857D01*
X133725771Y-29592857D02*
X133821009Y-29545238D01*
X133821009Y-29545238D02*
X133916247Y-29545238D01*
X133916247Y-29545238D02*
X134011485Y-30021428D01*
X134344819Y-29116666D02*
X133344819Y-29116666D01*
X133725771Y-29116666D02*
X133678152Y-29021428D01*
X133678152Y-29021428D02*
X133678152Y-28830952D01*
X133678152Y-28830952D02*
X133725771Y-28735714D01*
X133725771Y-28735714D02*
X133773390Y-28688095D01*
X133773390Y-28688095D02*
X133868628Y-28640476D01*
X133868628Y-28640476D02*
X134154342Y-28640476D01*
X134154342Y-28640476D02*
X134249580Y-28688095D01*
X134249580Y-28688095D02*
X134297200Y-28735714D01*
X134297200Y-28735714D02*
X134344819Y-28830952D01*
X134344819Y-28830952D02*
X134344819Y-29021428D01*
X134344819Y-29021428D02*
X134297200Y-29116666D01*
X133678152Y-27783333D02*
X134344819Y-27783333D01*
X133678152Y-28211904D02*
X134201961Y-28211904D01*
X134201961Y-28211904D02*
X134297200Y-28164285D01*
X134297200Y-28164285D02*
X134344819Y-28069047D01*
X134344819Y-28069047D02*
X134344819Y-27926190D01*
X134344819Y-27926190D02*
X134297200Y-27830952D01*
X134297200Y-27830952D02*
X134249580Y-27783333D01*
X133678152Y-26878571D02*
X134487676Y-26878571D01*
X134487676Y-26878571D02*
X134582914Y-26926190D01*
X134582914Y-26926190D02*
X134630533Y-26973809D01*
X134630533Y-26973809D02*
X134678152Y-27069047D01*
X134678152Y-27069047D02*
X134678152Y-27211904D01*
X134678152Y-27211904D02*
X134630533Y-27307142D01*
X134297200Y-26878571D02*
X134344819Y-26973809D01*
X134344819Y-26973809D02*
X134344819Y-27164285D01*
X134344819Y-27164285D02*
X134297200Y-27259523D01*
X134297200Y-27259523D02*
X134249580Y-27307142D01*
X134249580Y-27307142D02*
X134154342Y-27354761D01*
X134154342Y-27354761D02*
X133868628Y-27354761D01*
X133868628Y-27354761D02*
X133773390Y-27307142D01*
X133773390Y-27307142D02*
X133725771Y-27259523D01*
X133725771Y-27259523D02*
X133678152Y-27164285D01*
X133678152Y-27164285D02*
X133678152Y-26973809D01*
X133678152Y-26973809D02*
X133725771Y-26878571D01*
X134344819Y-25878571D02*
X134344819Y-26449999D01*
X134344819Y-26164285D02*
X133344819Y-26164285D01*
X133344819Y-26164285D02*
X133487676Y-26259523D01*
X133487676Y-26259523D02*
X133582914Y-26354761D01*
X133582914Y-26354761D02*
X133630533Y-26449999D01*
X154271429Y-81125057D02*
X154319048Y-81077438D01*
X154319048Y-81077438D02*
X154414286Y-81029819D01*
X154414286Y-81029819D02*
X154652381Y-81029819D01*
X154652381Y-81029819D02*
X154747619Y-81077438D01*
X154747619Y-81077438D02*
X154795238Y-81125057D01*
X154795238Y-81125057D02*
X154842857Y-81220295D01*
X154842857Y-81220295D02*
X154842857Y-81315533D01*
X154842857Y-81315533D02*
X154795238Y-81458390D01*
X154795238Y-81458390D02*
X154223810Y-82029819D01*
X154223810Y-82029819D02*
X154842857Y-82029819D01*
X155700000Y-81363152D02*
X155700000Y-82029819D01*
X155461905Y-80982200D02*
X155223810Y-81696485D01*
X155223810Y-81696485D02*
X155842857Y-81696485D01*
X156080953Y-81029819D02*
X156414286Y-82029819D01*
X156414286Y-82029819D02*
X156747619Y-81029819D01*
X157080953Y-82029819D02*
X157080953Y-81029819D01*
X157557143Y-82029819D02*
X157557143Y-81029819D01*
X157557143Y-81029819D02*
X158128571Y-82029819D01*
X158128571Y-82029819D02*
X158128571Y-81029819D01*
X159128571Y-82029819D02*
X158557143Y-82029819D01*
X158842857Y-82029819D02*
X158842857Y-81029819D01*
X158842857Y-81029819D02*
X158747619Y-81172676D01*
X158747619Y-81172676D02*
X158652381Y-81267914D01*
X158652381Y-81267914D02*
X158557143Y-81315533D01*
X149628571Y-77689700D02*
X150771429Y-77689700D01*
X150200000Y-78261128D02*
X150200000Y-77118271D01*
X162628571Y-77689700D02*
X163771429Y-77689700D01*
D10*
X159968095Y-64472419D02*
X159968095Y-65281942D01*
X159968095Y-65281942D02*
X160015714Y-65377180D01*
X160015714Y-65377180D02*
X160063333Y-65424800D01*
X160063333Y-65424800D02*
X160158571Y-65472419D01*
X160158571Y-65472419D02*
X160349047Y-65472419D01*
X160349047Y-65472419D02*
X160444285Y-65424800D01*
X160444285Y-65424800D02*
X160491904Y-65377180D01*
X160491904Y-65377180D02*
X160539523Y-65281942D01*
X160539523Y-65281942D02*
X160539523Y-64472419D01*
X160968095Y-64567657D02*
X161015714Y-64520038D01*
X161015714Y-64520038D02*
X161110952Y-64472419D01*
X161110952Y-64472419D02*
X161349047Y-64472419D01*
X161349047Y-64472419D02*
X161444285Y-64520038D01*
X161444285Y-64520038D02*
X161491904Y-64567657D01*
X161491904Y-64567657D02*
X161539523Y-64662895D01*
X161539523Y-64662895D02*
X161539523Y-64758133D01*
X161539523Y-64758133D02*
X161491904Y-64900990D01*
X161491904Y-64900990D02*
X160920476Y-65472419D01*
X160920476Y-65472419D02*
X161539523Y-65472419D01*
D11*
X163673333Y-30874819D02*
X163340000Y-30398628D01*
X163101905Y-30874819D02*
X163101905Y-29874819D01*
X163101905Y-29874819D02*
X163482857Y-29874819D01*
X163482857Y-29874819D02*
X163578095Y-29922438D01*
X163578095Y-29922438D02*
X163625714Y-29970057D01*
X163625714Y-29970057D02*
X163673333Y-30065295D01*
X163673333Y-30065295D02*
X163673333Y-30208152D01*
X163673333Y-30208152D02*
X163625714Y-30303390D01*
X163625714Y-30303390D02*
X163578095Y-30351009D01*
X163578095Y-30351009D02*
X163482857Y-30398628D01*
X163482857Y-30398628D02*
X163101905Y-30398628D01*
X164530476Y-29874819D02*
X164340000Y-29874819D01*
X164340000Y-29874819D02*
X164244762Y-29922438D01*
X164244762Y-29922438D02*
X164197143Y-29970057D01*
X164197143Y-29970057D02*
X164101905Y-30112914D01*
X164101905Y-30112914D02*
X164054286Y-30303390D01*
X164054286Y-30303390D02*
X164054286Y-30684342D01*
X164054286Y-30684342D02*
X164101905Y-30779580D01*
X164101905Y-30779580D02*
X164149524Y-30827200D01*
X164149524Y-30827200D02*
X164244762Y-30874819D01*
X164244762Y-30874819D02*
X164435238Y-30874819D01*
X164435238Y-30874819D02*
X164530476Y-30827200D01*
X164530476Y-30827200D02*
X164578095Y-30779580D01*
X164578095Y-30779580D02*
X164625714Y-30684342D01*
X164625714Y-30684342D02*
X164625714Y-30446247D01*
X164625714Y-30446247D02*
X164578095Y-30351009D01*
X164578095Y-30351009D02*
X164530476Y-30303390D01*
X164530476Y-30303390D02*
X164435238Y-30255771D01*
X164435238Y-30255771D02*
X164244762Y-30255771D01*
X164244762Y-30255771D02*
X164149524Y-30303390D01*
X164149524Y-30303390D02*
X164101905Y-30351009D01*
X164101905Y-30351009D02*
X164054286Y-30446247D01*
X107346905Y-97724819D02*
X107346905Y-96724819D01*
X107346905Y-96724819D02*
X107585000Y-96724819D01*
X107585000Y-96724819D02*
X107727857Y-96772438D01*
X107727857Y-96772438D02*
X107823095Y-96867676D01*
X107823095Y-96867676D02*
X107870714Y-96962914D01*
X107870714Y-96962914D02*
X107918333Y-97153390D01*
X107918333Y-97153390D02*
X107918333Y-97296247D01*
X107918333Y-97296247D02*
X107870714Y-97486723D01*
X107870714Y-97486723D02*
X107823095Y-97581961D01*
X107823095Y-97581961D02*
X107727857Y-97677200D01*
X107727857Y-97677200D02*
X107585000Y-97724819D01*
X107585000Y-97724819D02*
X107346905Y-97724819D01*
X108870714Y-97724819D02*
X108299286Y-97724819D01*
X108585000Y-97724819D02*
X108585000Y-96724819D01*
X108585000Y-96724819D02*
X108489762Y-96867676D01*
X108489762Y-96867676D02*
X108394524Y-96962914D01*
X108394524Y-96962914D02*
X108299286Y-97010533D01*
X151838095Y-28509819D02*
X151838095Y-29319342D01*
X151838095Y-29319342D02*
X151885714Y-29414580D01*
X151885714Y-29414580D02*
X151933333Y-29462200D01*
X151933333Y-29462200D02*
X152028571Y-29509819D01*
X152028571Y-29509819D02*
X152219047Y-29509819D01*
X152219047Y-29509819D02*
X152314285Y-29462200D01*
X152314285Y-29462200D02*
X152361904Y-29414580D01*
X152361904Y-29414580D02*
X152409523Y-29319342D01*
X152409523Y-29319342D02*
X152409523Y-28509819D01*
X153361904Y-28509819D02*
X152885714Y-28509819D01*
X152885714Y-28509819D02*
X152838095Y-28986009D01*
X152838095Y-28986009D02*
X152885714Y-28938390D01*
X152885714Y-28938390D02*
X152980952Y-28890771D01*
X152980952Y-28890771D02*
X153219047Y-28890771D01*
X153219047Y-28890771D02*
X153314285Y-28938390D01*
X153314285Y-28938390D02*
X153361904Y-28986009D01*
X153361904Y-28986009D02*
X153409523Y-29081247D01*
X153409523Y-29081247D02*
X153409523Y-29319342D01*
X153409523Y-29319342D02*
X153361904Y-29414580D01*
X153361904Y-29414580D02*
X153314285Y-29462200D01*
X153314285Y-29462200D02*
X153219047Y-29509819D01*
X153219047Y-29509819D02*
X152980952Y-29509819D01*
X152980952Y-29509819D02*
X152885714Y-29462200D01*
X152885714Y-29462200D02*
X152838095Y-29414580D01*
X104126905Y-104064819D02*
X104126905Y-103064819D01*
X104126905Y-103064819D02*
X104365000Y-103064819D01*
X104365000Y-103064819D02*
X104507857Y-103112438D01*
X104507857Y-103112438D02*
X104603095Y-103207676D01*
X104603095Y-103207676D02*
X104650714Y-103302914D01*
X104650714Y-103302914D02*
X104698333Y-103493390D01*
X104698333Y-103493390D02*
X104698333Y-103636247D01*
X104698333Y-103636247D02*
X104650714Y-103826723D01*
X104650714Y-103826723D02*
X104603095Y-103921961D01*
X104603095Y-103921961D02*
X104507857Y-104017200D01*
X104507857Y-104017200D02*
X104365000Y-104064819D01*
X104365000Y-104064819D02*
X104126905Y-104064819D01*
X105079286Y-103160057D02*
X105126905Y-103112438D01*
X105126905Y-103112438D02*
X105222143Y-103064819D01*
X105222143Y-103064819D02*
X105460238Y-103064819D01*
X105460238Y-103064819D02*
X105555476Y-103112438D01*
X105555476Y-103112438D02*
X105603095Y-103160057D01*
X105603095Y-103160057D02*
X105650714Y-103255295D01*
X105650714Y-103255295D02*
X105650714Y-103350533D01*
X105650714Y-103350533D02*
X105603095Y-103493390D01*
X105603095Y-103493390D02*
X105031667Y-104064819D01*
X105031667Y-104064819D02*
X105650714Y-104064819D01*
X135793333Y-42164819D02*
X135460000Y-41688628D01*
X135221905Y-42164819D02*
X135221905Y-41164819D01*
X135221905Y-41164819D02*
X135602857Y-41164819D01*
X135602857Y-41164819D02*
X135698095Y-41212438D01*
X135698095Y-41212438D02*
X135745714Y-41260057D01*
X135745714Y-41260057D02*
X135793333Y-41355295D01*
X135793333Y-41355295D02*
X135793333Y-41498152D01*
X135793333Y-41498152D02*
X135745714Y-41593390D01*
X135745714Y-41593390D02*
X135698095Y-41641009D01*
X135698095Y-41641009D02*
X135602857Y-41688628D01*
X135602857Y-41688628D02*
X135221905Y-41688628D01*
X136364762Y-41593390D02*
X136269524Y-41545771D01*
X136269524Y-41545771D02*
X136221905Y-41498152D01*
X136221905Y-41498152D02*
X136174286Y-41402914D01*
X136174286Y-41402914D02*
X136174286Y-41355295D01*
X136174286Y-41355295D02*
X136221905Y-41260057D01*
X136221905Y-41260057D02*
X136269524Y-41212438D01*
X136269524Y-41212438D02*
X136364762Y-41164819D01*
X136364762Y-41164819D02*
X136555238Y-41164819D01*
X136555238Y-41164819D02*
X136650476Y-41212438D01*
X136650476Y-41212438D02*
X136698095Y-41260057D01*
X136698095Y-41260057D02*
X136745714Y-41355295D01*
X136745714Y-41355295D02*
X136745714Y-41402914D01*
X136745714Y-41402914D02*
X136698095Y-41498152D01*
X136698095Y-41498152D02*
X136650476Y-41545771D01*
X136650476Y-41545771D02*
X136555238Y-41593390D01*
X136555238Y-41593390D02*
X136364762Y-41593390D01*
X136364762Y-41593390D02*
X136269524Y-41641009D01*
X136269524Y-41641009D02*
X136221905Y-41688628D01*
X136221905Y-41688628D02*
X136174286Y-41783866D01*
X136174286Y-41783866D02*
X136174286Y-41974342D01*
X136174286Y-41974342D02*
X136221905Y-42069580D01*
X136221905Y-42069580D02*
X136269524Y-42117200D01*
X136269524Y-42117200D02*
X136364762Y-42164819D01*
X136364762Y-42164819D02*
X136555238Y-42164819D01*
X136555238Y-42164819D02*
X136650476Y-42117200D01*
X136650476Y-42117200D02*
X136698095Y-42069580D01*
X136698095Y-42069580D02*
X136745714Y-41974342D01*
X136745714Y-41974342D02*
X136745714Y-41783866D01*
X136745714Y-41783866D02*
X136698095Y-41688628D01*
X136698095Y-41688628D02*
X136650476Y-41641009D01*
X136650476Y-41641009D02*
X136555238Y-41593390D01*
X104838333Y-105604819D02*
X104505000Y-105128628D01*
X104266905Y-105604819D02*
X104266905Y-104604819D01*
X104266905Y-104604819D02*
X104647857Y-104604819D01*
X104647857Y-104604819D02*
X104743095Y-104652438D01*
X104743095Y-104652438D02*
X104790714Y-104700057D01*
X104790714Y-104700057D02*
X104838333Y-104795295D01*
X104838333Y-104795295D02*
X104838333Y-104938152D01*
X104838333Y-104938152D02*
X104790714Y-105033390D01*
X104790714Y-105033390D02*
X104743095Y-105081009D01*
X104743095Y-105081009D02*
X104647857Y-105128628D01*
X104647857Y-105128628D02*
X104266905Y-105128628D01*
X105171667Y-104604819D02*
X105838333Y-104604819D01*
X105838333Y-104604819D02*
X105409762Y-105604819D01*
X154557142Y-27844580D02*
X154509523Y-27892200D01*
X154509523Y-27892200D02*
X154366666Y-27939819D01*
X154366666Y-27939819D02*
X154271428Y-27939819D01*
X154271428Y-27939819D02*
X154128571Y-27892200D01*
X154128571Y-27892200D02*
X154033333Y-27796961D01*
X154033333Y-27796961D02*
X153985714Y-27701723D01*
X153985714Y-27701723D02*
X153938095Y-27511247D01*
X153938095Y-27511247D02*
X153938095Y-27368390D01*
X153938095Y-27368390D02*
X153985714Y-27177914D01*
X153985714Y-27177914D02*
X154033333Y-27082676D01*
X154033333Y-27082676D02*
X154128571Y-26987438D01*
X154128571Y-26987438D02*
X154271428Y-26939819D01*
X154271428Y-26939819D02*
X154366666Y-26939819D01*
X154366666Y-26939819D02*
X154509523Y-26987438D01*
X154509523Y-26987438D02*
X154557142Y-27035057D01*
X155509523Y-27939819D02*
X154938095Y-27939819D01*
X155223809Y-27939819D02*
X155223809Y-26939819D01*
X155223809Y-26939819D02*
X155128571Y-27082676D01*
X155128571Y-27082676D02*
X155033333Y-27177914D01*
X155033333Y-27177914D02*
X154938095Y-27225533D01*
X155842857Y-26939819D02*
X156461904Y-26939819D01*
X156461904Y-26939819D02*
X156128571Y-27320771D01*
X156128571Y-27320771D02*
X156271428Y-27320771D01*
X156271428Y-27320771D02*
X156366666Y-27368390D01*
X156366666Y-27368390D02*
X156414285Y-27416009D01*
X156414285Y-27416009D02*
X156461904Y-27511247D01*
X156461904Y-27511247D02*
X156461904Y-27749342D01*
X156461904Y-27749342D02*
X156414285Y-27844580D01*
X156414285Y-27844580D02*
X156366666Y-27892200D01*
X156366666Y-27892200D02*
X156271428Y-27939819D01*
X156271428Y-27939819D02*
X155985714Y-27939819D01*
X155985714Y-27939819D02*
X155890476Y-27892200D01*
X155890476Y-27892200D02*
X155842857Y-27844580D01*
X155920238Y-70904819D02*
X155920238Y-69904819D01*
X155920238Y-69904819D02*
X156158333Y-69904819D01*
X156158333Y-69904819D02*
X156301190Y-69952438D01*
X156301190Y-69952438D02*
X156396428Y-70047676D01*
X156396428Y-70047676D02*
X156444047Y-70142914D01*
X156444047Y-70142914D02*
X156491666Y-70333390D01*
X156491666Y-70333390D02*
X156491666Y-70476247D01*
X156491666Y-70476247D02*
X156444047Y-70666723D01*
X156444047Y-70666723D02*
X156396428Y-70761961D01*
X156396428Y-70761961D02*
X156301190Y-70857200D01*
X156301190Y-70857200D02*
X156158333Y-70904819D01*
X156158333Y-70904819D02*
X155920238Y-70904819D01*
X156682143Y-71000057D02*
X157444047Y-71000057D01*
X157539286Y-69904819D02*
X158110714Y-69904819D01*
X157825000Y-70904819D02*
X157825000Y-69904819D01*
X158301191Y-69904819D02*
X158634524Y-70904819D01*
X158634524Y-70904819D02*
X158967857Y-69904819D01*
X159253572Y-70857200D02*
X159396429Y-70904819D01*
X159396429Y-70904819D02*
X159634524Y-70904819D01*
X159634524Y-70904819D02*
X159729762Y-70857200D01*
X159729762Y-70857200D02*
X159777381Y-70809580D01*
X159777381Y-70809580D02*
X159825000Y-70714342D01*
X159825000Y-70714342D02*
X159825000Y-70619104D01*
X159825000Y-70619104D02*
X159777381Y-70523866D01*
X159777381Y-70523866D02*
X159729762Y-70476247D01*
X159729762Y-70476247D02*
X159634524Y-70428628D01*
X159634524Y-70428628D02*
X159444048Y-70381009D01*
X159444048Y-70381009D02*
X159348810Y-70333390D01*
X159348810Y-70333390D02*
X159301191Y-70285771D01*
X159301191Y-70285771D02*
X159253572Y-70190533D01*
X159253572Y-70190533D02*
X159253572Y-70095295D01*
X159253572Y-70095295D02*
X159301191Y-70000057D01*
X159301191Y-70000057D02*
X159348810Y-69952438D01*
X159348810Y-69952438D02*
X159444048Y-69904819D01*
X159444048Y-69904819D02*
X159682143Y-69904819D01*
X159682143Y-69904819D02*
X159825000Y-69952438D01*
X160777381Y-70904819D02*
X160205953Y-70904819D01*
X160491667Y-70904819D02*
X160491667Y-69904819D01*
X160491667Y-69904819D02*
X160396429Y-70047676D01*
X160396429Y-70047676D02*
X160301191Y-70142914D01*
X160301191Y-70142914D02*
X160205953Y-70190533D01*
X110474580Y-103646666D02*
X110522200Y-103694285D01*
X110522200Y-103694285D02*
X110569819Y-103837142D01*
X110569819Y-103837142D02*
X110569819Y-103932380D01*
X110569819Y-103932380D02*
X110522200Y-104075237D01*
X110522200Y-104075237D02*
X110426961Y-104170475D01*
X110426961Y-104170475D02*
X110331723Y-104218094D01*
X110331723Y-104218094D02*
X110141247Y-104265713D01*
X110141247Y-104265713D02*
X109998390Y-104265713D01*
X109998390Y-104265713D02*
X109807914Y-104218094D01*
X109807914Y-104218094D02*
X109712676Y-104170475D01*
X109712676Y-104170475D02*
X109617438Y-104075237D01*
X109617438Y-104075237D02*
X109569819Y-103932380D01*
X109569819Y-103932380D02*
X109569819Y-103837142D01*
X109569819Y-103837142D02*
X109617438Y-103694285D01*
X109617438Y-103694285D02*
X109665057Y-103646666D01*
X109998390Y-103075237D02*
X109950771Y-103170475D01*
X109950771Y-103170475D02*
X109903152Y-103218094D01*
X109903152Y-103218094D02*
X109807914Y-103265713D01*
X109807914Y-103265713D02*
X109760295Y-103265713D01*
X109760295Y-103265713D02*
X109665057Y-103218094D01*
X109665057Y-103218094D02*
X109617438Y-103170475D01*
X109617438Y-103170475D02*
X109569819Y-103075237D01*
X109569819Y-103075237D02*
X109569819Y-102884761D01*
X109569819Y-102884761D02*
X109617438Y-102789523D01*
X109617438Y-102789523D02*
X109665057Y-102741904D01*
X109665057Y-102741904D02*
X109760295Y-102694285D01*
X109760295Y-102694285D02*
X109807914Y-102694285D01*
X109807914Y-102694285D02*
X109903152Y-102741904D01*
X109903152Y-102741904D02*
X109950771Y-102789523D01*
X109950771Y-102789523D02*
X109998390Y-102884761D01*
X109998390Y-102884761D02*
X109998390Y-103075237D01*
X109998390Y-103075237D02*
X110046009Y-103170475D01*
X110046009Y-103170475D02*
X110093628Y-103218094D01*
X110093628Y-103218094D02*
X110188866Y-103265713D01*
X110188866Y-103265713D02*
X110379342Y-103265713D01*
X110379342Y-103265713D02*
X110474580Y-103218094D01*
X110474580Y-103218094D02*
X110522200Y-103170475D01*
X110522200Y-103170475D02*
X110569819Y-103075237D01*
X110569819Y-103075237D02*
X110569819Y-102884761D01*
X110569819Y-102884761D02*
X110522200Y-102789523D01*
X110522200Y-102789523D02*
X110474580Y-102741904D01*
X110474580Y-102741904D02*
X110379342Y-102694285D01*
X110379342Y-102694285D02*
X110188866Y-102694285D01*
X110188866Y-102694285D02*
X110093628Y-102741904D01*
X110093628Y-102741904D02*
X110046009Y-102789523D01*
X110046009Y-102789523D02*
X109998390Y-102884761D01*
X115780180Y-103388333D02*
X115780180Y-102912143D01*
X115780180Y-102912143D02*
X116780180Y-102912143D01*
X115780180Y-104245476D02*
X115780180Y-103674048D01*
X115780180Y-103959762D02*
X116780180Y-103959762D01*
X116780180Y-103959762D02*
X116637323Y-103864524D01*
X116637323Y-103864524D02*
X116542085Y-103769286D01*
X116542085Y-103769286D02*
X116494466Y-103674048D01*
X144871666Y-42204819D02*
X144871666Y-42919104D01*
X144871666Y-42919104D02*
X144824047Y-43061961D01*
X144824047Y-43061961D02*
X144728809Y-43157200D01*
X144728809Y-43157200D02*
X144585952Y-43204819D01*
X144585952Y-43204819D02*
X144490714Y-43204819D01*
X145347857Y-43204819D02*
X145347857Y-42204819D01*
X145347857Y-42204819D02*
X145728809Y-42204819D01*
X145728809Y-42204819D02*
X145824047Y-42252438D01*
X145824047Y-42252438D02*
X145871666Y-42300057D01*
X145871666Y-42300057D02*
X145919285Y-42395295D01*
X145919285Y-42395295D02*
X145919285Y-42538152D01*
X145919285Y-42538152D02*
X145871666Y-42633390D01*
X145871666Y-42633390D02*
X145824047Y-42681009D01*
X145824047Y-42681009D02*
X145728809Y-42728628D01*
X145728809Y-42728628D02*
X145347857Y-42728628D01*
X146871666Y-43204819D02*
X146300238Y-43204819D01*
X146585952Y-43204819D02*
X146585952Y-42204819D01*
X146585952Y-42204819D02*
X146490714Y-42347676D01*
X146490714Y-42347676D02*
X146395476Y-42442914D01*
X146395476Y-42442914D02*
X146300238Y-42490533D01*
X150854580Y-42867857D02*
X150902200Y-42915476D01*
X150902200Y-42915476D02*
X150949819Y-43058333D01*
X150949819Y-43058333D02*
X150949819Y-43153571D01*
X150949819Y-43153571D02*
X150902200Y-43296428D01*
X150902200Y-43296428D02*
X150806961Y-43391666D01*
X150806961Y-43391666D02*
X150711723Y-43439285D01*
X150711723Y-43439285D02*
X150521247Y-43486904D01*
X150521247Y-43486904D02*
X150378390Y-43486904D01*
X150378390Y-43486904D02*
X150187914Y-43439285D01*
X150187914Y-43439285D02*
X150092676Y-43391666D01*
X150092676Y-43391666D02*
X149997438Y-43296428D01*
X149997438Y-43296428D02*
X149949819Y-43153571D01*
X149949819Y-43153571D02*
X149949819Y-43058333D01*
X149949819Y-43058333D02*
X149997438Y-42915476D01*
X149997438Y-42915476D02*
X150045057Y-42867857D01*
X150949819Y-41915476D02*
X150949819Y-42486904D01*
X150949819Y-42201190D02*
X149949819Y-42201190D01*
X149949819Y-42201190D02*
X150092676Y-42296428D01*
X150092676Y-42296428D02*
X150187914Y-42391666D01*
X150187914Y-42391666D02*
X150235533Y-42486904D01*
X149949819Y-41010714D02*
X149949819Y-41486904D01*
X149949819Y-41486904D02*
X150426009Y-41534523D01*
X150426009Y-41534523D02*
X150378390Y-41486904D01*
X150378390Y-41486904D02*
X150330771Y-41391666D01*
X150330771Y-41391666D02*
X150330771Y-41153571D01*
X150330771Y-41153571D02*
X150378390Y-41058333D01*
X150378390Y-41058333D02*
X150426009Y-41010714D01*
X150426009Y-41010714D02*
X150521247Y-40963095D01*
X150521247Y-40963095D02*
X150759342Y-40963095D01*
X150759342Y-40963095D02*
X150854580Y-41010714D01*
X150854580Y-41010714D02*
X150902200Y-41058333D01*
X150902200Y-41058333D02*
X150949819Y-41153571D01*
X150949819Y-41153571D02*
X150949819Y-41391666D01*
X150949819Y-41391666D02*
X150902200Y-41486904D01*
X150902200Y-41486904D02*
X150854580Y-41534523D01*
X151874580Y-56955357D02*
X151922200Y-57002976D01*
X151922200Y-57002976D02*
X151969819Y-57145833D01*
X151969819Y-57145833D02*
X151969819Y-57241071D01*
X151969819Y-57241071D02*
X151922200Y-57383928D01*
X151922200Y-57383928D02*
X151826961Y-57479166D01*
X151826961Y-57479166D02*
X151731723Y-57526785D01*
X151731723Y-57526785D02*
X151541247Y-57574404D01*
X151541247Y-57574404D02*
X151398390Y-57574404D01*
X151398390Y-57574404D02*
X151207914Y-57526785D01*
X151207914Y-57526785D02*
X151112676Y-57479166D01*
X151112676Y-57479166D02*
X151017438Y-57383928D01*
X151017438Y-57383928D02*
X150969819Y-57241071D01*
X150969819Y-57241071D02*
X150969819Y-57145833D01*
X150969819Y-57145833D02*
X151017438Y-57002976D01*
X151017438Y-57002976D02*
X151065057Y-56955357D01*
X151969819Y-56002976D02*
X151969819Y-56574404D01*
X151969819Y-56288690D02*
X150969819Y-56288690D01*
X150969819Y-56288690D02*
X151112676Y-56383928D01*
X151112676Y-56383928D02*
X151207914Y-56479166D01*
X151207914Y-56479166D02*
X151255533Y-56574404D01*
X151303152Y-55145833D02*
X151969819Y-55145833D01*
X150922200Y-55383928D02*
X151636485Y-55622023D01*
X151636485Y-55622023D02*
X151636485Y-55002976D01*
X163219580Y-68916666D02*
X163267200Y-68964285D01*
X163267200Y-68964285D02*
X163314819Y-69107142D01*
X163314819Y-69107142D02*
X163314819Y-69202380D01*
X163314819Y-69202380D02*
X163267200Y-69345237D01*
X163267200Y-69345237D02*
X163171961Y-69440475D01*
X163171961Y-69440475D02*
X163076723Y-69488094D01*
X163076723Y-69488094D02*
X162886247Y-69535713D01*
X162886247Y-69535713D02*
X162743390Y-69535713D01*
X162743390Y-69535713D02*
X162552914Y-69488094D01*
X162552914Y-69488094D02*
X162457676Y-69440475D01*
X162457676Y-69440475D02*
X162362438Y-69345237D01*
X162362438Y-69345237D02*
X162314819Y-69202380D01*
X162314819Y-69202380D02*
X162314819Y-69107142D01*
X162314819Y-69107142D02*
X162362438Y-68964285D01*
X162362438Y-68964285D02*
X162410057Y-68916666D01*
X162314819Y-68583332D02*
X162314819Y-67964285D01*
X162314819Y-67964285D02*
X162695771Y-68297618D01*
X162695771Y-68297618D02*
X162695771Y-68154761D01*
X162695771Y-68154761D02*
X162743390Y-68059523D01*
X162743390Y-68059523D02*
X162791009Y-68011904D01*
X162791009Y-68011904D02*
X162886247Y-67964285D01*
X162886247Y-67964285D02*
X163124342Y-67964285D01*
X163124342Y-67964285D02*
X163219580Y-68011904D01*
X163219580Y-68011904D02*
X163267200Y-68059523D01*
X163267200Y-68059523D02*
X163314819Y-68154761D01*
X163314819Y-68154761D02*
X163314819Y-68440475D01*
X163314819Y-68440475D02*
X163267200Y-68535713D01*
X163267200Y-68535713D02*
X163219580Y-68583332D01*
%TO.C,C12*%
D12*
X138878733Y-50690000D02*
X139171267Y-50690000D01*
X138878733Y-51710000D02*
X139171267Y-51710000D01*
%TO.C,R2*%
X123127776Y-96277500D02*
X123637224Y-96277500D01*
X123127776Y-97322500D02*
X123637224Y-97322500D01*
%TO.C,C6*%
X110958767Y-96430000D02*
X110666233Y-96430000D01*
X110958767Y-97450000D02*
X110666233Y-97450000D01*
%TO.C,C4*%
X123511267Y-97880000D02*
X123218733Y-97880000D01*
X123511267Y-98900000D02*
X123218733Y-98900000D01*
%TO.C,R1*%
X120145000Y-97482776D02*
X120145000Y-97992224D01*
X121190000Y-97482776D02*
X121190000Y-97992224D01*
%TO.C,R10*%
X94340276Y-59817500D02*
X94849724Y-59817500D01*
X94340276Y-60862500D02*
X94849724Y-60862500D01*
%TO.C,C5*%
X116251267Y-100390000D02*
X115958733Y-100390000D01*
X116251267Y-101410000D02*
X115958733Y-101410000D01*
%TO.C,R5*%
X147217224Y-39787500D02*
X146707776Y-39787500D01*
X147217224Y-40832500D02*
X146707776Y-40832500D01*
%TO.C,R9*%
X94340276Y-57307500D02*
X94849724Y-57307500D01*
X94340276Y-58352500D02*
X94849724Y-58352500D01*
%TO.C,JP2*%
X111765000Y-83920000D02*
X115865000Y-83920000D01*
X111765000Y-85920000D02*
X111765000Y-83920000D01*
X115865000Y-83920000D02*
X115865000Y-85920000D01*
X115865000Y-85920000D02*
X111765000Y-85920000D01*
%TO.C,R3*%
X114422224Y-94127500D02*
X113912776Y-94127500D01*
X114422224Y-95172500D02*
X113912776Y-95172500D01*
%TO.C,Y1*%
X138040000Y-44440000D02*
X138040000Y-50310000D01*
X138040000Y-50310000D02*
X141760000Y-50310000D01*
X141760000Y-50310000D02*
X141760000Y-44440000D01*
%TO.C,U4*%
X143765000Y-44065000D02*
X144215000Y-44065000D01*
X143765000Y-44515000D02*
X143765000Y-44065000D01*
X143765000Y-51285000D02*
X143765000Y-50835000D01*
X144215000Y-51285000D02*
X143765000Y-51285000D01*
X150535000Y-44065000D02*
X150985000Y-44065000D01*
X150985000Y-44065000D02*
X150985000Y-44515000D01*
X150985000Y-50835000D02*
X150985000Y-51285000D01*
X150985000Y-51285000D02*
X150535000Y-51285000D01*
X143125000Y-44515000D02*
X142785000Y-44045000D01*
X143465000Y-44045000D01*
X143125000Y-44515000D01*
G36*
X143125000Y-44515000D02*
G01*
X142785000Y-44045000D01*
X143465000Y-44045000D01*
X143125000Y-44515000D01*
G37*
%TO.C,U1*%
X116965000Y-99370000D02*
X116165000Y-99370000D01*
X116965000Y-99370000D02*
X117765000Y-99370000D01*
X117965000Y-96150000D02*
X116165000Y-96150000D01*
X118265000Y-99320000D02*
X118505000Y-99650000D01*
X118025000Y-99650000D01*
X118265000Y-99320000D01*
G36*
X118505000Y-99650000D02*
G01*
X118025000Y-99650000D01*
X118265000Y-99320000D01*
X118505000Y-99650000D01*
G37*
%TO.C,D3*%
X137807500Y-39560000D02*
X137807500Y-41480000D01*
X137807500Y-41480000D02*
X140667500Y-41480000D01*
X140667500Y-39560000D02*
X137807500Y-39560000D01*
%TO.C,CAN1*%
X87275000Y-45620000D02*
X87275000Y-46870000D01*
X87575000Y-48170000D02*
X88325000Y-48170000D01*
X88325000Y-48170000D02*
X88325000Y-51120000D01*
X88325000Y-51120000D02*
X93875000Y-51120000D01*
X88525000Y-45620000D02*
X87275000Y-45620000D01*
X99425000Y-48170000D02*
X99425000Y-51120000D01*
X99425000Y-51120000D02*
X93875000Y-51120000D01*
X100175000Y-48170000D02*
X99425000Y-48170000D01*
X87565000Y-45910000D02*
X100185000Y-45910000D01*
X100185000Y-51880000D01*
X87565000Y-51880000D01*
X87565000Y-45910000D01*
X87575000Y-45920000D02*
X89375000Y-45920000D01*
X89375000Y-46670000D01*
X87575000Y-46670000D01*
X87575000Y-45920000D01*
X90875000Y-45920000D02*
X96875000Y-45920000D01*
X96875000Y-46670000D01*
X90875000Y-46670000D01*
X90875000Y-45920000D01*
X98375000Y-45920000D02*
X100175000Y-45920000D01*
X100175000Y-46670000D01*
X98375000Y-46670000D01*
X98375000Y-45920000D01*
%TO.C,C11*%
X138928733Y-42715000D02*
X139221267Y-42715000D01*
X138928733Y-43735000D02*
X139221267Y-43735000D01*
%TO.C,PTC1*%
X161286252Y-70340000D02*
X158513748Y-70340000D01*
X161286252Y-73760000D02*
X158513748Y-73760000D01*
%TO.C,CAN2*%
X101875000Y-45800000D02*
X101875000Y-47050000D01*
X102175000Y-48350000D02*
X102925000Y-48350000D01*
X102925000Y-48350000D02*
X102925000Y-51300000D01*
X102925000Y-51300000D02*
X108475000Y-51300000D01*
X103125000Y-45800000D02*
X101875000Y-45800000D01*
X114025000Y-48350000D02*
X114025000Y-51300000D01*
X114025000Y-51300000D02*
X108475000Y-51300000D01*
X114775000Y-48350000D02*
X114025000Y-48350000D01*
X102165000Y-46090000D02*
X114785000Y-46090000D01*
X114785000Y-52060000D01*
X102165000Y-52060000D01*
X102165000Y-46090000D01*
X102175000Y-46100000D02*
X103975000Y-46100000D01*
X103975000Y-46850000D01*
X102175000Y-46850000D01*
X102175000Y-46100000D01*
X105475000Y-46100000D02*
X111475000Y-46100000D01*
X111475000Y-46850000D01*
X105475000Y-46850000D01*
X105475000Y-46100000D01*
X112975000Y-46100000D02*
X114775000Y-46100000D01*
X114775000Y-46850000D01*
X112975000Y-46850000D01*
X112975000Y-46100000D01*
%TO.C,JP3*%
X116675000Y-83900000D02*
X120775000Y-83900000D01*
X116675000Y-85900000D02*
X116675000Y-83900000D01*
X120775000Y-83900000D02*
X120775000Y-85900000D01*
X120775000Y-85900000D02*
X116675000Y-85900000D01*
%TO.C,Debug1*%
X134690000Y-33800000D02*
X134690000Y-35050000D01*
X134690000Y-35050000D02*
X135940000Y-35050000D01*
X137240000Y-22150000D02*
X137240000Y-22900000D01*
X137240000Y-22900000D02*
X140190000Y-22900000D01*
X137240000Y-34000000D02*
X140190000Y-34000000D01*
X137240000Y-34750000D02*
X137240000Y-34000000D01*
X140190000Y-22900000D02*
X140190000Y-28450000D01*
X140190000Y-34000000D02*
X140190000Y-28450000D01*
X134980000Y-22140000D02*
X140950000Y-22140000D01*
X140950000Y-34760000D01*
X134980000Y-34760000D01*
X134980000Y-22140000D01*
X134990000Y-22150000D02*
X135740000Y-22150000D01*
X135740000Y-23950000D01*
X134990000Y-23950000D01*
X134990000Y-22150000D01*
X134990000Y-25450000D02*
X135740000Y-25450000D01*
X135740000Y-31450000D01*
X134990000Y-31450000D01*
X134990000Y-25450000D01*
X134990000Y-32950000D02*
X135740000Y-32950000D01*
X135740000Y-34750000D01*
X134990000Y-34750000D01*
X134990000Y-32950000D01*
%TO.C,24VIN1*%
X151490000Y-80285000D02*
X151490000Y-74865000D01*
X160210000Y-74865000D02*
X151490000Y-74865000D01*
X160210000Y-80285000D02*
X151490000Y-80285000D01*
X161910000Y-76165000D02*
X160210000Y-74865000D01*
X161910000Y-78985000D02*
X160210000Y-80285000D01*
X161910000Y-78985000D02*
X161910000Y-76165000D01*
%TO.C,U2*%
D10*
X155550000Y-44175000D02*
X170540000Y-44175000D01*
X170540000Y-64175000D01*
X155550000Y-64175000D01*
X155550000Y-44175000D01*
D13*
X158227678Y-63298072D02*
G75*
G02*
X157707620Y-63298072I-260029J0D01*
G01*
X157707620Y-63298072D02*
G75*
G02*
X158227678Y-63298072I260029J0D01*
G01*
X158530030Y-62705000D02*
G75*
G02*
X158009970Y-62705000I-260030J0D01*
G01*
X158009970Y-62705000D02*
G75*
G02*
X158530030Y-62705000I260030J0D01*
G01*
X158878900Y-63228300D02*
G75*
G02*
X158358838Y-63228300I-260031J0D01*
G01*
X158358838Y-63228300D02*
G75*
G02*
X158878900Y-63228300I260031J0D01*
G01*
%TO.C,R6*%
D12*
X163085000Y-32727936D02*
X163085000Y-33182064D01*
X164555000Y-32727936D02*
X164555000Y-33182064D01*
%TO.C,D1*%
X114085000Y-98100000D02*
X108575000Y-98100000D01*
X114085000Y-101400000D02*
X108575000Y-101400000D01*
X114085000Y-101400000D02*
X114085000Y-98100000D01*
%TO.C,U5*%
X153215000Y-30040000D02*
X157335000Y-30040000D01*
X153215000Y-30135000D02*
X153215000Y-30040000D01*
X153215000Y-35160000D02*
X153215000Y-35065000D01*
X157335000Y-30040000D02*
X157335000Y-30135000D01*
X157335000Y-35065000D02*
X157335000Y-35160000D01*
X157335000Y-35160000D02*
X153215000Y-35160000D01*
X152675000Y-30130000D02*
X152435000Y-29800000D01*
X152915000Y-29800000D01*
X152675000Y-30130000D01*
G36*
X152675000Y-30130000D02*
G01*
X152435000Y-29800000D01*
X152915000Y-29800000D01*
X152675000Y-30130000D01*
G37*
%TO.C,D2*%
X105980000Y-102300000D02*
X105980000Y-104220000D01*
X105980000Y-104220000D02*
X108840000Y-104220000D01*
X108840000Y-102300000D02*
X105980000Y-102300000D01*
%TO.C,R8*%
X136214724Y-39757500D02*
X135705276Y-39757500D01*
X136214724Y-40802500D02*
X135705276Y-40802500D01*
%TO.C,R7*%
X107457776Y-104567500D02*
X107967224Y-104567500D01*
X107457776Y-105612500D02*
X107967224Y-105612500D01*
%TO.C,C13*%
X155211233Y-28565000D02*
X155503767Y-28565000D01*
X155211233Y-29585000D02*
X155503767Y-29585000D01*
%TO.C,D_TVS1*%
X163035000Y-65300000D02*
X155625000Y-65300000D01*
X163035000Y-69600000D02*
X155625000Y-69600000D01*
X163035000Y-69600000D02*
X163035000Y-65300000D01*
%TO.C,C8*%
X110625000Y-103196233D02*
X110625000Y-103488767D01*
X111645000Y-103196233D02*
X111645000Y-103488767D01*
%TO.C,L1*%
X112075000Y-102055000D02*
X112075000Y-105055000D01*
X115395000Y-103555000D02*
X115395000Y-105055000D01*
%TO.C,JP1*%
X141995000Y-39830000D02*
X144795000Y-39830000D01*
X141995000Y-41830000D02*
X141995000Y-39830000D01*
X144795000Y-39830000D02*
X144795000Y-41830000D01*
X144795000Y-41830000D02*
X141995000Y-41830000D01*
%TO.C,C15*%
X151415000Y-42371267D02*
X151415000Y-42078733D01*
X152435000Y-42371267D02*
X152435000Y-42078733D01*
%TO.C,C14*%
X151415000Y-52978733D02*
X151415000Y-53271267D01*
X152435000Y-52978733D02*
X152435000Y-53271267D01*
%TO.C,C3*%
X163790000Y-66604437D02*
X163790000Y-72360000D01*
X163790000Y-72360000D02*
X166140000Y-72360000D01*
X164854437Y-65540000D02*
X163790000Y-66604437D01*
X164854437Y-65540000D02*
X166140000Y-65540000D01*
X169047500Y-64512500D02*
X169047500Y-65300000D01*
X169441250Y-64906250D02*
X168653750Y-64906250D01*
X169545563Y-65540000D02*
X168260000Y-65540000D01*
X169545563Y-65540000D02*
X170610000Y-66604437D01*
X170610000Y-66604437D02*
X170610000Y-72360000D01*
X170610000Y-72360000D02*
X168260000Y-72360000D01*
%TD*%
M02*
