%TF.GenerationSoftware,KiCad,Pcbnew,10.0.6-10.0.6~ubuntu24.04.1*%
%TF.CreationDate,2026-09-06T22:30:28+07:00*%
%TF.ProjectId,Stm32f072,53746d33-3266-4303-9732-2e6b69636164,rev?*%
%TF.SameCoordinates,Original*%
%TF.FileFunction,Copper,L2,Bot*%
%TF.FilePolarity,Positive*%
%FSLAX46Y46*%
G04 Gerber Fmt 4.6, Leading zero omitted, Abs format (unit mm)*
G04 Created by KiCad (PCBNEW 10.0.6-10.0.6~ubuntu24.04.1) date 2026-09-06 22:30:28*
%MOMM*%
%LPD*%
G01*
G04 APERTURE LIST*
G04 Aperture macros list*
%AMRoundRect*
0 Rectangle with rounded corners*
0 $1 Rounding radius*
0 $2 $3 $4 $5 $6 $7 $8 $9 X,Y pos of 4 corners*
0 Add a 4 corners polygon primitive as box body*
4,1,4,$2,$3,$4,$5,$6,$7,$8,$9,$2,$3,0*
0 Add four circle primitives for the rounded corners*
1,1,$1+$1,$2,$3*
1,1,$1+$1,$4,$5*
1,1,$1+$1,$6,$7*
1,1,$1+$1,$8,$9*
0 Add four rect primitives between the rounded corners*
20,1,$1+$1,$2,$3,$4,$5,0*
20,1,$1+$1,$4,$5,$6,$7,0*
20,1,$1+$1,$6,$7,$8,$9,0*
20,1,$1+$1,$8,$9,$2,$3,0*%
G04 Aperture macros list end*
%TA.AperFunction,ComponentPad*%
%ADD10RoundRect,0.250000X-0.600000X-0.725000X0.600000X-0.725000X0.600000X0.725000X-0.600000X0.725000X0*%
%TD*%
%TA.AperFunction,ComponentPad*%
%ADD11O,1.700000X1.950000*%
%TD*%
%TA.AperFunction,ComponentPad*%
%ADD12RoundRect,0.250000X0.725000X-0.600000X0.725000X0.600000X-0.725000X0.600000X-0.725000X-0.600000X0*%
%TD*%
%TA.AperFunction,ComponentPad*%
%ADD13O,1.950000X1.700000*%
%TD*%
%TA.AperFunction,ComponentPad*%
%ADD14RoundRect,0.760000X1.140000X1.140000X-1.140000X1.140000X-1.140000X-1.140000X1.140000X-1.140000X0*%
%TD*%
%TA.AperFunction,ComponentPad*%
%ADD15C,3.800000*%
%TD*%
%TA.AperFunction,ComponentPad*%
%ADD16RoundRect,0.190500X0.444500X0.444500X-0.444500X0.444500X-0.444500X-0.444500X0.444500X-0.444500X0*%
%TD*%
%TA.AperFunction,ComponentPad*%
%ADD17C,1.270000*%
%TD*%
%TA.AperFunction,SMDPad,CuDef*%
%ADD18RoundRect,0.237500X-0.300000X-0.237500X0.300000X-0.237500X0.300000X0.237500X-0.300000X0.237500X0*%
%TD*%
%TA.AperFunction,ComponentPad*%
%ADD19R,1.700000X1.700000*%
%TD*%
%TA.AperFunction,ComponentPad*%
%ADD20C,1.700000*%
%TD*%
%TA.AperFunction,SMDPad,CuDef*%
%ADD21RoundRect,0.100000X-0.100000X0.637500X-0.100000X-0.637500X0.100000X-0.637500X0.100000X0.637500X0*%
%TD*%
%TA.AperFunction,ViaPad*%
%ADD22C,0.600000*%
%TD*%
G04 APERTURE END LIST*
D10*
%TO.P,CAN1,1,Pin_1_1*%
%TO.N,GND*%
X90125000Y-48370000D03*
D11*
%TO.P,CAN1,2,Pin_2_2*%
%TO.N,/CANL*%
X92625000Y-48370000D03*
%TO.P,CAN1,3,Pin_3_3*%
%TO.N,/CANH*%
X95125000Y-48370000D03*
%TO.P,CAN1,4,Pin_4_4*%
%TO.N,GND*%
X97625000Y-48370000D03*
%TD*%
D10*
%TO.P,CAN2,1,Pin_1_1*%
%TO.N,GND*%
X104725000Y-48550000D03*
D11*
%TO.P,CAN2,2,Pin_2_2*%
%TO.N,/CANL*%
X107225000Y-48550000D03*
%TO.P,CAN2,3,Pin_3_3*%
%TO.N,/CANH*%
X109725000Y-48550000D03*
%TO.P,CAN2,4,Pin_4_4*%
%TO.N,GND*%
X112225000Y-48550000D03*
%TD*%
D12*
%TO.P,Debug1,1,Pin_1_1*%
%TO.N,3V3*%
X137440000Y-32200000D03*
D13*
%TO.P,Debug1,2,Pin_2_2*%
%TO.N,/SWCLK*%
X137440000Y-29700000D03*
%TO.P,Debug1,3,Pin_3_3*%
%TO.N,/SWDIO*%
X137440000Y-27200000D03*
%TO.P,Debug1,4,Pin_4_4*%
%TO.N,GND*%
X137440000Y-24700000D03*
%TD*%
D14*
%TO.P,24VIN1,1,Pin_1_1*%
%TO.N,Net-(24VIN1-Pin_1)*%
X159200000Y-77575000D03*
D15*
%TO.P,24VIN1,2,Pin_2_2*%
%TO.N,GND*%
X154200000Y-77575000D03*
%TD*%
D16*
%TO.P,U2,1,EN_1*%
%TO.N,/EN*%
X156850000Y-62955000D03*
D17*
%TO.P,U2,2,MS1_2*%
%TO.N,/MS1*%
X156850000Y-60415000D03*
%TO.P,U2,3,MS2_3*%
%TO.N,/MS2*%
X156850000Y-57875000D03*
%TO.P,U2,4,PDN_4*%
%TO.N,unconnected-(U2-PDN-Pad4)*%
X156850000Y-55335000D03*
%TO.P,U2,5,USART_5*%
%TO.N,/PA9*%
X156850000Y-52795000D03*
%TO.P,U2,6,CLK_6*%
%TO.N,unconnected-(U2-CLK-Pad6)*%
X156850000Y-50255000D03*
%TO.P,U2,7,STEP_7*%
%TO.N,/PB13*%
X156850000Y-47715000D03*
%TO.P,U2,8,DIR_8*%
%TO.N,/DIR*%
X156850000Y-45175000D03*
%TO.P,U2,9,VM_9*%
%TO.N,24V*%
X169550000Y-62955000D03*
%TO.P,U2,10,GND_10*%
%TO.N,GND*%
X169550000Y-60415000D03*
%TO.P,U2,11,M1B_11*%
%TO.N,/M1B*%
X169550000Y-57875000D03*
%TO.P,U2,12,M1A_12*%
%TO.N,/M1A*%
X169550000Y-55335000D03*
%TO.P,U2,13,M2A_13*%
%TO.N,/M2A*%
X169550000Y-52795000D03*
%TO.P,U2,14,M2B_14*%
%TO.N,/M2B*%
X169550000Y-50255000D03*
%TO.P,U2,15,VIO_15*%
%TO.N,3V3*%
X169550000Y-47715000D03*
%TO.P,U2,16,GND_16*%
%TO.N,GND*%
X169550000Y-45175000D03*
%TD*%
D18*
%TO.P,C10,1*%
%TO.N,3V3*%
X144605000Y-60000000D03*
%TO.P,C10,2*%
%TO.N,GND*%
X146330000Y-60000000D03*
%TD*%
%TO.P,C9,1*%
%TO.N,3V3*%
X144612500Y-61710000D03*
%TO.P,C9,2*%
%TO.N,GND*%
X146337500Y-61710000D03*
%TD*%
D19*
%TO.P,J1,1,Pin_1_1*%
%TO.N,/M1B*%
X161900000Y-41025000D03*
D20*
%TO.P,J1,2,Pin_2_2*%
%TO.N,/M1A*%
X159360000Y-41025000D03*
%TO.P,J1,3,Pin_3_3*%
%TO.N,/M2A*%
X156820000Y-41025000D03*
%TO.P,J1,4,Pin_4_4*%
%TO.N,/M2B*%
X154280000Y-41025000D03*
%TD*%
D21*
%TO.P,U3,1,~{CS}_1*%
%TO.N,/CS*%
X148050000Y-57137500D03*
%TO.P,U3,2,CLK_2*%
%TO.N,/CLK*%
X148700000Y-57137500D03*
%TO.P,U3,3,MISO_3*%
%TO.N,/MISO*%
X149350000Y-57137500D03*
%TO.P,U3,4,MOSI_4*%
%TO.N,/MOSI*%
X150000000Y-57137500D03*
%TO.P,U3,5,TST_5*%
%TO.N,GND*%
X150650000Y-57137500D03*
%TO.P,U3,6,B_6*%
%TO.N,unconnected-(U3-B-Pad6)*%
X151300000Y-57137500D03*
%TO.P,U3,7,A_7*%
%TO.N,unconnected-(U3-A-Pad7)*%
X151950000Y-57137500D03*
%TO.P,U3,8,W/PWM_8*%
%TO.N,unconnected-(U3-W{slash}PWM-Pad8)*%
X151950000Y-62862500D03*
%TO.P,U3,9,V_9*%
%TO.N,unconnected-(U3-V-Pad9)*%
X151300000Y-62862500D03*
%TO.P,U3,10,U_10*%
%TO.N,unconnected-(U3-U-Pad10)*%
X150650000Y-62862500D03*
%TO.P,U3,11,VDD_11*%
%TO.N,3V3*%
X150000000Y-62862500D03*
%TO.P,U3,12,VDD3V3_12*%
X149350000Y-62862500D03*
%TO.P,U3,13,GND_13*%
%TO.N,GND*%
X148700000Y-62862500D03*
%TO.P,U3,14,I/PWM_14*%
%TO.N,unconnected-(U3-I{slash}PWM-Pad14)*%
X148050000Y-62862500D03*
%TD*%
D22*
%TO.N,GND*%
X167075000Y-69150000D03*
X167600000Y-69725000D03*
X166525000Y-71975000D03*
X166525000Y-71450000D03*
X166525000Y-69125000D03*
X167075000Y-70900000D03*
X167075000Y-72000000D03*
X167600000Y-71475000D03*
X166525000Y-70275000D03*
X166525000Y-70875000D03*
X167075000Y-70300000D03*
X167600000Y-72000000D03*
X167600000Y-70900000D03*
X167075000Y-69725000D03*
X166525000Y-69700000D03*
X167600000Y-69150000D03*
X167600000Y-70300000D03*
X167075000Y-71475000D03*
%TD*%
%TA.AperFunction,Conductor*%
%TO.N,GND*%
G36*
X169004418Y-39300816D02*
G01*
X169233024Y-39317165D01*
X169250525Y-39319682D01*
X169470143Y-39367456D01*
X169487102Y-39372435D01*
X169697698Y-39450984D01*
X169713778Y-39458328D01*
X169911036Y-39566039D01*
X169925919Y-39575604D01*
X170105836Y-39710288D01*
X170119207Y-39721874D01*
X170278125Y-39880792D01*
X170289711Y-39894163D01*
X170424395Y-40074080D01*
X170433960Y-40088963D01*
X170541668Y-40286215D01*
X170549018Y-40302308D01*
X170627561Y-40512889D01*
X170632545Y-40529865D01*
X170680316Y-40749468D01*
X170682834Y-40766980D01*
X170699184Y-40995581D01*
X170699500Y-41004427D01*
X170699500Y-46983690D01*
X170679815Y-47050729D01*
X170627011Y-47096484D01*
X170557853Y-47106428D01*
X170494297Y-47077403D01*
X170475182Y-47056576D01*
X170422227Y-46983690D01*
X170416111Y-46975272D01*
X170289728Y-46848889D01*
X170145132Y-46743833D01*
X169985881Y-46662691D01*
X169985878Y-46662689D01*
X169815899Y-46607460D01*
X169698209Y-46588820D01*
X169639366Y-46579500D01*
X169460634Y-46579500D01*
X169401790Y-46588820D01*
X169284101Y-46607460D01*
X169284098Y-46607460D01*
X169114121Y-46662689D01*
X169114118Y-46662691D01*
X168954867Y-46743833D01*
X168810270Y-46848890D01*
X168683890Y-46975270D01*
X168578833Y-47119867D01*
X168497691Y-47279118D01*
X168497689Y-47279121D01*
X168442460Y-47449098D01*
X168442460Y-47449101D01*
X168414500Y-47625634D01*
X168414500Y-47804365D01*
X168442460Y-47980898D01*
X168442460Y-47980901D01*
X168497689Y-48150878D01*
X168497691Y-48150881D01*
X168578833Y-48310132D01*
X168683889Y-48454728D01*
X168810272Y-48581111D01*
X168954868Y-48686167D01*
X169114119Y-48767309D01*
X169114121Y-48767310D01*
X169272670Y-48818825D01*
X169284103Y-48822540D01*
X169460634Y-48850500D01*
X169460635Y-48850500D01*
X169639365Y-48850500D01*
X169639366Y-48850500D01*
X169815897Y-48822540D01*
X169815900Y-48822539D01*
X169815901Y-48822539D01*
X169985878Y-48767310D01*
X169985878Y-48767309D01*
X169985881Y-48767309D01*
X170145132Y-48686167D01*
X170289728Y-48581111D01*
X170416111Y-48454728D01*
X170475182Y-48373423D01*
X170530512Y-48330758D01*
X170600125Y-48324779D01*
X170661920Y-48357385D01*
X170696278Y-48418224D01*
X170699500Y-48446309D01*
X170699500Y-49523690D01*
X170679815Y-49590729D01*
X170627011Y-49636484D01*
X170557853Y-49646428D01*
X170494297Y-49617403D01*
X170475182Y-49596576D01*
X170422227Y-49523690D01*
X170416111Y-49515272D01*
X170289728Y-49388889D01*
X170145132Y-49283833D01*
X169985881Y-49202691D01*
X169985878Y-49202689D01*
X169815899Y-49147460D01*
X169698209Y-49128820D01*
X169639366Y-49119500D01*
X169460634Y-49119500D01*
X169401790Y-49128820D01*
X169284101Y-49147460D01*
X169284098Y-49147460D01*
X169114121Y-49202689D01*
X169114118Y-49202691D01*
X168954867Y-49283833D01*
X168810270Y-49388890D01*
X168683890Y-49515270D01*
X168578833Y-49659867D01*
X168497691Y-49819118D01*
X168497689Y-49819121D01*
X168442460Y-49989098D01*
X168442460Y-49989101D01*
X168414500Y-50165634D01*
X168414500Y-50344365D01*
X168442460Y-50520898D01*
X168442460Y-50520901D01*
X168497689Y-50690878D01*
X168497691Y-50690881D01*
X168578833Y-50850132D01*
X168683889Y-50994728D01*
X168810272Y-51121111D01*
X168954868Y-51226167D01*
X169114119Y-51307309D01*
X169114121Y-51307310D01*
X169272670Y-51358825D01*
X169284103Y-51362540D01*
X169460634Y-51390500D01*
X169460635Y-51390500D01*
X169639365Y-51390500D01*
X169639366Y-51390500D01*
X169815897Y-51362540D01*
X169815900Y-51362539D01*
X169815901Y-51362539D01*
X169985878Y-51307310D01*
X169985878Y-51307309D01*
X169985881Y-51307309D01*
X170145132Y-51226167D01*
X170289728Y-51121111D01*
X170416111Y-50994728D01*
X170475182Y-50913423D01*
X170530512Y-50870758D01*
X170600125Y-50864779D01*
X170661920Y-50897385D01*
X170696278Y-50958224D01*
X170699500Y-50986309D01*
X170699500Y-52063690D01*
X170679815Y-52130729D01*
X170627011Y-52176484D01*
X170557853Y-52186428D01*
X170494297Y-52157403D01*
X170475182Y-52136576D01*
X170422227Y-52063690D01*
X170416111Y-52055272D01*
X170289728Y-51928889D01*
X170145132Y-51823833D01*
X169985881Y-51742691D01*
X169985878Y-51742689D01*
X169815899Y-51687460D01*
X169698209Y-51668820D01*
X169639366Y-51659500D01*
X169460634Y-51659500D01*
X169401790Y-51668820D01*
X169284101Y-51687460D01*
X169284098Y-51687460D01*
X169114121Y-51742689D01*
X169114118Y-51742691D01*
X168954867Y-51823833D01*
X168810270Y-51928890D01*
X168683890Y-52055270D01*
X168578833Y-52199867D01*
X168497691Y-52359118D01*
X168497689Y-52359121D01*
X168442460Y-52529098D01*
X168442460Y-52529101D01*
X168414500Y-52705634D01*
X168414500Y-52884365D01*
X168442460Y-53060898D01*
X168442460Y-53060901D01*
X168497689Y-53230878D01*
X168497691Y-53230881D01*
X168578833Y-53390132D01*
X168683889Y-53534728D01*
X168810272Y-53661111D01*
X168954868Y-53766167D01*
X169114119Y-53847309D01*
X169114121Y-53847310D01*
X169272670Y-53898825D01*
X169284103Y-53902540D01*
X169460634Y-53930500D01*
X169460635Y-53930500D01*
X169639365Y-53930500D01*
X169639366Y-53930500D01*
X169815897Y-53902540D01*
X169815900Y-53902539D01*
X169815901Y-53902539D01*
X169985878Y-53847310D01*
X169985878Y-53847309D01*
X169985881Y-53847309D01*
X170145132Y-53766167D01*
X170289728Y-53661111D01*
X170416111Y-53534728D01*
X170475182Y-53453423D01*
X170530512Y-53410758D01*
X170600125Y-53404779D01*
X170661920Y-53437385D01*
X170696278Y-53498224D01*
X170699500Y-53526309D01*
X170699500Y-54603690D01*
X170679815Y-54670729D01*
X170627011Y-54716484D01*
X170557853Y-54726428D01*
X170494297Y-54697403D01*
X170475182Y-54676576D01*
X170422227Y-54603690D01*
X170416111Y-54595272D01*
X170289728Y-54468889D01*
X170145132Y-54363833D01*
X169985881Y-54282691D01*
X169985878Y-54282689D01*
X169815899Y-54227460D01*
X169698209Y-54208820D01*
X169639366Y-54199500D01*
X169460634Y-54199500D01*
X169401790Y-54208820D01*
X169284101Y-54227460D01*
X169284098Y-54227460D01*
X169114121Y-54282689D01*
X169114118Y-54282691D01*
X168954867Y-54363833D01*
X168810270Y-54468890D01*
X168683890Y-54595270D01*
X168578833Y-54739867D01*
X168497691Y-54899118D01*
X168497689Y-54899121D01*
X168442460Y-55069098D01*
X168442460Y-55069101D01*
X168414500Y-55245634D01*
X168414500Y-55424365D01*
X168442460Y-55600898D01*
X168442460Y-55600901D01*
X168497689Y-55770878D01*
X168497691Y-55770881D01*
X168578833Y-55930132D01*
X168683889Y-56074728D01*
X168810272Y-56201111D01*
X168954868Y-56306167D01*
X169114119Y-56387309D01*
X169114121Y-56387310D01*
X169272670Y-56438825D01*
X169284103Y-56442540D01*
X169460634Y-56470500D01*
X169460635Y-56470500D01*
X169639365Y-56470500D01*
X169639366Y-56470500D01*
X169815897Y-56442540D01*
X169815900Y-56442539D01*
X169815901Y-56442539D01*
X169985878Y-56387310D01*
X169985878Y-56387309D01*
X169985881Y-56387309D01*
X170145132Y-56306167D01*
X170289728Y-56201111D01*
X170416111Y-56074728D01*
X170475182Y-55993423D01*
X170530512Y-55950758D01*
X170600125Y-55944779D01*
X170661920Y-55977385D01*
X170696278Y-56038224D01*
X170699500Y-56066309D01*
X170699500Y-57143690D01*
X170679815Y-57210729D01*
X170627011Y-57256484D01*
X170557853Y-57266428D01*
X170494297Y-57237403D01*
X170475182Y-57216576D01*
X170422227Y-57143690D01*
X170416111Y-57135272D01*
X170289728Y-57008889D01*
X170145132Y-56903833D01*
X169985881Y-56822691D01*
X169985878Y-56822689D01*
X169815899Y-56767460D01*
X169698209Y-56748820D01*
X169639366Y-56739500D01*
X169460634Y-56739500D01*
X169401790Y-56748820D01*
X169284101Y-56767460D01*
X169284098Y-56767460D01*
X169114121Y-56822689D01*
X169114118Y-56822691D01*
X168954867Y-56903833D01*
X168810270Y-57008890D01*
X168683890Y-57135270D01*
X168578833Y-57279867D01*
X168497691Y-57439118D01*
X168497689Y-57439121D01*
X168442460Y-57609098D01*
X168442460Y-57609101D01*
X168414500Y-57785634D01*
X168414500Y-57964365D01*
X168442460Y-58140898D01*
X168442460Y-58140901D01*
X168497689Y-58310878D01*
X168497691Y-58310881D01*
X168578833Y-58470132D01*
X168683889Y-58614728D01*
X168810272Y-58741111D01*
X168954868Y-58846167D01*
X169114119Y-58927309D01*
X169114121Y-58927310D01*
X169272670Y-58978825D01*
X169284103Y-58982540D01*
X169460634Y-59010500D01*
X169460635Y-59010500D01*
X169639365Y-59010500D01*
X169639366Y-59010500D01*
X169815897Y-58982540D01*
X169815900Y-58982539D01*
X169815901Y-58982539D01*
X169985878Y-58927310D01*
X169985878Y-58927309D01*
X169985881Y-58927309D01*
X170145132Y-58846167D01*
X170289728Y-58741111D01*
X170416111Y-58614728D01*
X170475182Y-58533423D01*
X170530512Y-58490758D01*
X170600125Y-58484779D01*
X170661920Y-58517385D01*
X170696278Y-58578224D01*
X170699500Y-58606309D01*
X170699500Y-62223690D01*
X170679815Y-62290729D01*
X170627011Y-62336484D01*
X170557853Y-62346428D01*
X170494297Y-62317403D01*
X170475182Y-62296576D01*
X170449711Y-62261518D01*
X170416111Y-62215272D01*
X170289728Y-62088889D01*
X170145132Y-61983833D01*
X169985881Y-61902691D01*
X169985878Y-61902689D01*
X169815899Y-61847460D01*
X169679319Y-61825828D01*
X169639366Y-61819500D01*
X169460634Y-61819500D01*
X169420681Y-61825828D01*
X169284101Y-61847460D01*
X169284098Y-61847460D01*
X169114121Y-61902689D01*
X169114118Y-61902691D01*
X168954867Y-61983833D01*
X168810270Y-62088890D01*
X168683890Y-62215270D01*
X168578833Y-62359867D01*
X168497691Y-62519118D01*
X168497689Y-62519121D01*
X168442460Y-62689098D01*
X168442460Y-62689101D01*
X168414500Y-62865634D01*
X168414500Y-63044365D01*
X168442460Y-63220898D01*
X168442460Y-63220901D01*
X168497689Y-63390878D01*
X168497691Y-63390881D01*
X168578833Y-63550132D01*
X168683889Y-63694728D01*
X168810272Y-63821111D01*
X168954868Y-63926167D01*
X169114119Y-64007309D01*
X169114121Y-64007310D01*
X169167138Y-64024536D01*
X169284103Y-64062540D01*
X169460634Y-64090500D01*
X169460635Y-64090500D01*
X169639365Y-64090500D01*
X169639366Y-64090500D01*
X169815897Y-64062540D01*
X169815900Y-64062539D01*
X169815901Y-64062539D01*
X169985878Y-64007310D01*
X169985878Y-64007309D01*
X169985881Y-64007309D01*
X170145132Y-63926167D01*
X170289728Y-63821111D01*
X170416111Y-63694728D01*
X170475182Y-63613423D01*
X170530512Y-63570758D01*
X170600125Y-63564779D01*
X170661920Y-63597385D01*
X170696278Y-63658224D01*
X170699500Y-63686309D01*
X170699500Y-78995572D01*
X170699184Y-79004418D01*
X170682834Y-79233019D01*
X170680316Y-79250531D01*
X170632545Y-79470134D01*
X170627561Y-79487110D01*
X170549018Y-79697691D01*
X170541668Y-79713784D01*
X170433960Y-79911036D01*
X170424395Y-79925919D01*
X170289711Y-80105836D01*
X170278125Y-80119207D01*
X170119207Y-80278125D01*
X170105836Y-80289711D01*
X169925919Y-80424395D01*
X169911036Y-80433960D01*
X169713784Y-80541668D01*
X169697691Y-80549018D01*
X169487110Y-80627561D01*
X169470134Y-80632545D01*
X169250531Y-80680316D01*
X169233019Y-80682834D01*
X169004418Y-80699184D01*
X168995572Y-80699500D01*
X131004428Y-80699500D01*
X130995582Y-80699184D01*
X130766980Y-80682834D01*
X130749468Y-80680316D01*
X130529865Y-80632545D01*
X130512889Y-80627561D01*
X130302308Y-80549018D01*
X130286215Y-80541668D01*
X130088963Y-80433960D01*
X130074080Y-80424395D01*
X129894163Y-80289711D01*
X129880792Y-80278125D01*
X129721874Y-80119207D01*
X129710288Y-80105836D01*
X129575604Y-79925919D01*
X129566039Y-79911036D01*
X129514004Y-79815741D01*
X129458328Y-79713778D01*
X129450984Y-79697698D01*
X129372435Y-79487102D01*
X129367456Y-79470143D01*
X129319682Y-79250525D01*
X129317165Y-79233019D01*
X129300816Y-79004418D01*
X129300500Y-78995572D01*
X129300500Y-75381995D01*
X132699500Y-75381995D01*
X132699500Y-75618004D01*
X132699501Y-75618020D01*
X132730306Y-75852010D01*
X132791394Y-76079993D01*
X132881714Y-76298045D01*
X132881719Y-76298056D01*
X132947567Y-76412107D01*
X132999727Y-76502450D01*
X132999729Y-76502453D01*
X132999730Y-76502454D01*
X133143406Y-76689697D01*
X133143412Y-76689704D01*
X133310295Y-76856587D01*
X133310301Y-76856592D01*
X133497550Y-77000273D01*
X133628918Y-77076118D01*
X133701943Y-77118280D01*
X133701948Y-77118282D01*
X133701951Y-77118284D01*
X133920007Y-77208606D01*
X134147986Y-77269693D01*
X134381989Y-77300500D01*
X134381996Y-77300500D01*
X134618004Y-77300500D01*
X134618011Y-77300500D01*
X134852014Y-77269693D01*
X135079993Y-77208606D01*
X135298049Y-77118284D01*
X135502450Y-77000273D01*
X135689699Y-76856592D01*
X135856592Y-76689699D01*
X136000273Y-76502450D01*
X136076591Y-76370264D01*
X156799500Y-76370264D01*
X156799500Y-78779736D01*
X156809987Y-78912983D01*
X156819921Y-78952406D01*
X156865426Y-79133002D01*
X156959258Y-79339579D01*
X156959263Y-79339589D01*
X157088473Y-79526090D01*
X157248909Y-79686526D01*
X157435410Y-79815736D01*
X157435420Y-79815741D01*
X157641997Y-79909573D01*
X157641998Y-79909573D01*
X157642000Y-79909574D01*
X157862017Y-79965013D01*
X157995264Y-79975500D01*
X157995270Y-79975500D01*
X160404730Y-79975500D01*
X160404736Y-79975500D01*
X160537983Y-79965013D01*
X160758000Y-79909574D01*
X160964582Y-79815740D01*
X160964584Y-79815738D01*
X160964589Y-79815736D01*
X161151090Y-79686526D01*
X161311526Y-79526090D01*
X161440736Y-79339589D01*
X161440741Y-79339579D01*
X161485126Y-79241864D01*
X161534574Y-79133000D01*
X161590013Y-78912983D01*
X161600500Y-78779736D01*
X161600500Y-76370264D01*
X161590013Y-76237017D01*
X161534574Y-76017000D01*
X161508242Y-75959029D01*
X161440741Y-75810420D01*
X161440736Y-75810410D01*
X161311526Y-75623909D01*
X161151090Y-75463473D01*
X161033485Y-75381995D01*
X163699500Y-75381995D01*
X163699500Y-75618004D01*
X163699501Y-75618020D01*
X163730306Y-75852010D01*
X163791394Y-76079993D01*
X163881714Y-76298045D01*
X163881719Y-76298056D01*
X163947567Y-76412107D01*
X163999727Y-76502450D01*
X163999729Y-76502453D01*
X163999730Y-76502454D01*
X164143406Y-76689697D01*
X164143412Y-76689704D01*
X164310295Y-76856587D01*
X164310301Y-76856592D01*
X164497550Y-77000273D01*
X164628918Y-77076118D01*
X164701943Y-77118280D01*
X164701948Y-77118282D01*
X164701951Y-77118284D01*
X164920007Y-77208606D01*
X165147986Y-77269693D01*
X165381989Y-77300500D01*
X165381996Y-77300500D01*
X165618004Y-77300500D01*
X165618011Y-77300500D01*
X165852014Y-77269693D01*
X166079993Y-77208606D01*
X166298049Y-77118284D01*
X166502450Y-77000273D01*
X166689699Y-76856592D01*
X166856592Y-76689699D01*
X167000273Y-76502450D01*
X167118284Y-76298049D01*
X167208606Y-76079993D01*
X167269693Y-75852014D01*
X167300500Y-75618011D01*
X167300500Y-75381989D01*
X167269693Y-75147986D01*
X167208606Y-74920007D01*
X167118284Y-74701951D01*
X167118282Y-74701948D01*
X167118280Y-74701943D01*
X167076118Y-74628918D01*
X167000273Y-74497550D01*
X166856592Y-74310301D01*
X166856587Y-74310295D01*
X166689704Y-74143412D01*
X166689697Y-74143406D01*
X166502454Y-73999730D01*
X166502453Y-73999729D01*
X166502450Y-73999727D01*
X166420957Y-73952677D01*
X166298056Y-73881719D01*
X166298045Y-73881714D01*
X166079993Y-73791394D01*
X165852010Y-73730306D01*
X165618020Y-73699501D01*
X165618017Y-73699500D01*
X165618011Y-73699500D01*
X165381989Y-73699500D01*
X165381983Y-73699500D01*
X165381979Y-73699501D01*
X165147989Y-73730306D01*
X164920006Y-73791394D01*
X164701954Y-73881714D01*
X164701943Y-73881719D01*
X164497545Y-73999730D01*
X164310302Y-74143406D01*
X164310295Y-74143412D01*
X164143412Y-74310295D01*
X164143406Y-74310302D01*
X163999730Y-74497545D01*
X163881719Y-74701943D01*
X163881714Y-74701954D01*
X163791394Y-74920006D01*
X163730306Y-75147989D01*
X163699501Y-75381979D01*
X163699500Y-75381995D01*
X161033485Y-75381995D01*
X160964589Y-75334263D01*
X160964579Y-75334258D01*
X160758002Y-75240426D01*
X160611322Y-75203466D01*
X160537983Y-75184987D01*
X160504671Y-75182365D01*
X160404739Y-75174500D01*
X160404736Y-75174500D01*
X157995264Y-75174500D01*
X157995260Y-75174500D01*
X157862017Y-75184987D01*
X157641997Y-75240426D01*
X157435420Y-75334258D01*
X157435410Y-75334263D01*
X157248909Y-75463473D01*
X157088473Y-75623909D01*
X156959263Y-75810410D01*
X156959258Y-75810420D01*
X156865426Y-76016997D01*
X156809987Y-76237017D01*
X156805184Y-76298049D01*
X156799500Y-76370264D01*
X136076591Y-76370264D01*
X136118284Y-76298049D01*
X136208606Y-76079993D01*
X136269693Y-75852014D01*
X136300500Y-75618011D01*
X136300500Y-75381989D01*
X136269693Y-75147986D01*
X136208606Y-74920007D01*
X136118284Y-74701951D01*
X136118282Y-74701948D01*
X136118280Y-74701943D01*
X136076118Y-74628918D01*
X136000273Y-74497550D01*
X135856592Y-74310301D01*
X135856587Y-74310295D01*
X135689704Y-74143412D01*
X135689697Y-74143406D01*
X135502454Y-73999730D01*
X135502453Y-73999729D01*
X135502450Y-73999727D01*
X135420957Y-73952677D01*
X135298056Y-73881719D01*
X135298045Y-73881714D01*
X135079993Y-73791394D01*
X134852010Y-73730306D01*
X134618020Y-73699501D01*
X134618017Y-73699500D01*
X134618011Y-73699500D01*
X134381989Y-73699500D01*
X134381983Y-73699500D01*
X134381979Y-73699501D01*
X134147989Y-73730306D01*
X133920006Y-73791394D01*
X133701954Y-73881714D01*
X133701943Y-73881719D01*
X133497545Y-73999730D01*
X133310302Y-74143406D01*
X133310295Y-74143412D01*
X133143412Y-74310295D01*
X133143406Y-74310302D01*
X132999730Y-74497545D01*
X132881719Y-74701943D01*
X132881714Y-74701954D01*
X132791394Y-74920006D01*
X132730306Y-75147989D01*
X132699501Y-75381979D01*
X132699500Y-75381995D01*
X129300500Y-75381995D01*
X129300500Y-59713315D01*
X143567000Y-59713315D01*
X143567000Y-60286669D01*
X143567001Y-60286687D01*
X143577325Y-60387752D01*
X143613609Y-60497249D01*
X143631592Y-60551516D01*
X143711397Y-60680901D01*
X143722161Y-60698351D01*
X143794879Y-60771069D01*
X143828364Y-60832392D01*
X143823380Y-60902084D01*
X143794879Y-60946431D01*
X143729661Y-61011648D01*
X143639093Y-61158481D01*
X143639092Y-61158484D01*
X143584826Y-61322247D01*
X143584826Y-61322248D01*
X143584825Y-61322248D01*
X143574500Y-61423315D01*
X143574500Y-61996669D01*
X143574501Y-61996687D01*
X143584825Y-62097752D01*
X143599679Y-62142576D01*
X143639092Y-62261516D01*
X143729660Y-62408350D01*
X143851650Y-62530340D01*
X143998484Y-62620908D01*
X144162247Y-62675174D01*
X144263323Y-62685500D01*
X144961676Y-62685499D01*
X144961684Y-62685498D01*
X144961687Y-62685498D01*
X145017030Y-62679844D01*
X145062753Y-62675174D01*
X145226516Y-62620908D01*
X145373350Y-62530340D01*
X145495340Y-62408350D01*
X145585908Y-62261516D01*
X145611049Y-62185645D01*
X147349500Y-62185645D01*
X147349500Y-63539363D01*
X147364953Y-63656753D01*
X147364956Y-63656762D01*
X147425464Y-63802841D01*
X147521718Y-63928282D01*
X147647159Y-64024536D01*
X147793238Y-64085044D01*
X147910639Y-64100500D01*
X148189360Y-64100499D01*
X148189363Y-64100499D01*
X148306753Y-64085046D01*
X148306757Y-64085044D01*
X148306762Y-64085044D01*
X148452841Y-64024536D01*
X148578282Y-63928282D01*
X148601625Y-63897860D01*
X148658051Y-63856658D01*
X148727797Y-63852503D01*
X148788718Y-63886714D01*
X148798368Y-63897851D01*
X148821718Y-63928282D01*
X148947159Y-64024536D01*
X149093238Y-64085044D01*
X149210639Y-64100500D01*
X149489360Y-64100499D01*
X149489361Y-64100499D01*
X149501594Y-64098888D01*
X149606762Y-64085044D01*
X149627545Y-64076434D01*
X149697014Y-64068965D01*
X149722453Y-64076434D01*
X149743238Y-64085044D01*
X149860639Y-64100500D01*
X150139360Y-64100499D01*
X150139361Y-64100499D01*
X150151594Y-64098888D01*
X150256762Y-64085044D01*
X150277545Y-64076434D01*
X150347014Y-64068965D01*
X150372453Y-64076434D01*
X150393238Y-64085044D01*
X150510639Y-64100500D01*
X150789360Y-64100499D01*
X150789361Y-64100499D01*
X150801594Y-64098888D01*
X150906762Y-64085044D01*
X150927545Y-64076434D01*
X150997014Y-64068965D01*
X151022453Y-64076434D01*
X151043238Y-64085044D01*
X151160639Y-64100500D01*
X151439360Y-64100499D01*
X151439361Y-64100499D01*
X151451594Y-64098888D01*
X151556762Y-64085044D01*
X151577545Y-64076434D01*
X151647014Y-64068965D01*
X151672453Y-64076434D01*
X151693238Y-64085044D01*
X151810639Y-64100500D01*
X152089360Y-64100499D01*
X152089363Y-64100499D01*
X152206753Y-64085046D01*
X152206757Y-64085044D01*
X152206762Y-64085044D01*
X152352841Y-64024536D01*
X152478282Y-63928282D01*
X152574536Y-63802841D01*
X152635044Y-63656762D01*
X152650500Y-63539361D01*
X152650499Y-62454655D01*
X155714500Y-62454655D01*
X155714500Y-63455354D01*
X155720825Y-63524966D01*
X155720828Y-63524977D01*
X155770747Y-63685175D01*
X155770749Y-63685179D01*
X155857556Y-63828777D01*
X155857560Y-63828782D01*
X155976217Y-63947439D01*
X155976222Y-63947443D01*
X156075254Y-64007309D01*
X156119822Y-64034251D01*
X156280029Y-64084173D01*
X156349653Y-64090500D01*
X157350346Y-64090499D01*
X157350353Y-64090499D01*
X157419966Y-64084174D01*
X157419969Y-64084173D01*
X157419971Y-64084173D01*
X157580178Y-64034251D01*
X157654089Y-63989570D01*
X157723777Y-63947443D01*
X157723778Y-63947441D01*
X157723783Y-63947439D01*
X157842439Y-63828783D01*
X157858122Y-63802841D01*
X157895285Y-63741365D01*
X157929251Y-63685178D01*
X157979173Y-63524971D01*
X157985500Y-63455347D01*
X157985499Y-62454654D01*
X157985499Y-62454653D01*
X157985499Y-62454645D01*
X157979174Y-62385033D01*
X157979171Y-62385022D01*
X157929252Y-62224824D01*
X157929250Y-62224820D01*
X157842443Y-62081222D01*
X157842439Y-62081217D01*
X157723782Y-61962560D01*
X157723777Y-61962556D01*
X157580180Y-61875750D01*
X157580179Y-61875749D01*
X157580178Y-61875749D01*
X157419971Y-61825827D01*
X157419969Y-61825826D01*
X157419967Y-61825826D01*
X157371221Y-61821396D01*
X157350347Y-61819500D01*
X157350344Y-61819500D01*
X156349645Y-61819500D01*
X156280033Y-61825825D01*
X156280022Y-61825828D01*
X156119824Y-61875747D01*
X156119820Y-61875749D01*
X155976222Y-61962556D01*
X155976217Y-61962560D01*
X155857560Y-62081217D01*
X155857556Y-62081222D01*
X155770750Y-62224819D01*
X155720826Y-62385032D01*
X155714500Y-62454655D01*
X152650499Y-62454655D01*
X152650499Y-62185640D01*
X152650499Y-62185639D01*
X152650499Y-62185636D01*
X152635046Y-62068246D01*
X152635044Y-62068239D01*
X152635044Y-62068238D01*
X152574536Y-61922159D01*
X152478282Y-61796718D01*
X152352841Y-61700464D01*
X152206762Y-61639956D01*
X152206760Y-61639955D01*
X152089361Y-61624500D01*
X151810636Y-61624500D01*
X151693246Y-61639953D01*
X151693234Y-61639957D01*
X151672450Y-61648566D01*
X151602981Y-61656033D01*
X151577550Y-61648566D01*
X151556765Y-61639957D01*
X151556760Y-61639955D01*
X151439361Y-61624500D01*
X151160636Y-61624500D01*
X151043246Y-61639953D01*
X151043234Y-61639957D01*
X151022450Y-61648566D01*
X150952981Y-61656033D01*
X150927550Y-61648566D01*
X150906765Y-61639957D01*
X150906760Y-61639955D01*
X150789361Y-61624500D01*
X150510636Y-61624500D01*
X150393246Y-61639953D01*
X150393234Y-61639957D01*
X150372450Y-61648566D01*
X150302981Y-61656033D01*
X150277550Y-61648566D01*
X150256765Y-61639957D01*
X150256760Y-61639955D01*
X150139361Y-61624500D01*
X149860636Y-61624500D01*
X149743246Y-61639953D01*
X149743234Y-61639957D01*
X149722450Y-61648566D01*
X149652981Y-61656033D01*
X149627550Y-61648566D01*
X149606765Y-61639957D01*
X149606760Y-61639955D01*
X149489361Y-61624500D01*
X149210636Y-61624500D01*
X149093246Y-61639953D01*
X149093237Y-61639956D01*
X148947160Y-61700463D01*
X148947159Y-61700464D01*
X148821718Y-61796718D01*
X148798374Y-61827140D01*
X148741948Y-61868341D01*
X148672202Y-61872496D01*
X148611281Y-61838283D01*
X148601630Y-61827146D01*
X148578282Y-61796718D01*
X148452841Y-61700464D01*
X148306762Y-61639956D01*
X148306760Y-61639955D01*
X148189361Y-61624500D01*
X147910636Y-61624500D01*
X147793246Y-61639953D01*
X147793237Y-61639956D01*
X147647160Y-61700463D01*
X147521718Y-61796718D01*
X147425463Y-61922160D01*
X147364956Y-62068237D01*
X147364955Y-62068239D01*
X147355169Y-62142575D01*
X147349501Y-62185636D01*
X147349500Y-62185645D01*
X145611049Y-62185645D01*
X145640174Y-62097753D01*
X145650500Y-61996677D01*
X145650499Y-61423324D01*
X145646703Y-61386167D01*
X145640174Y-61322247D01*
X145626542Y-61281109D01*
X145585908Y-61158484D01*
X145495340Y-61011650D01*
X145422620Y-60938930D01*
X145389136Y-60877606D01*
X145394121Y-60807915D01*
X145422617Y-60763572D01*
X145487840Y-60698350D01*
X145578408Y-60551516D01*
X145632674Y-60387753D01*
X145639020Y-60325634D01*
X155714500Y-60325634D01*
X155714500Y-60504365D01*
X155742460Y-60680898D01*
X155742460Y-60680901D01*
X155797689Y-60850878D01*
X155797691Y-60850881D01*
X155878833Y-61010132D01*
X155983889Y-61154728D01*
X156110272Y-61281111D01*
X156254868Y-61386167D01*
X156414119Y-61467309D01*
X156414121Y-61467310D01*
X156572670Y-61518825D01*
X156584103Y-61522540D01*
X156760634Y-61550500D01*
X156760635Y-61550500D01*
X156939365Y-61550500D01*
X156939366Y-61550500D01*
X157115897Y-61522540D01*
X157115900Y-61522539D01*
X157115901Y-61522539D01*
X157285878Y-61467310D01*
X157285878Y-61467309D01*
X157285881Y-61467309D01*
X157445132Y-61386167D01*
X157589728Y-61281111D01*
X157716111Y-61154728D01*
X157821167Y-61010132D01*
X157902309Y-60850881D01*
X157912232Y-60820340D01*
X157957539Y-60680901D01*
X157957539Y-60680900D01*
X157957540Y-60680897D01*
X157985500Y-60504366D01*
X157985500Y-60325634D01*
X157957540Y-60149103D01*
X157957539Y-60149099D01*
X157957539Y-60149098D01*
X157902310Y-59979121D01*
X157902308Y-59979118D01*
X157851882Y-59880149D01*
X157821167Y-59819868D01*
X157716111Y-59675272D01*
X157589728Y-59548889D01*
X157445132Y-59443833D01*
X157285881Y-59362691D01*
X157285878Y-59362689D01*
X157115899Y-59307460D01*
X156998209Y-59288820D01*
X156939366Y-59279500D01*
X156760634Y-59279500D01*
X156701790Y-59288820D01*
X156584101Y-59307460D01*
X156584098Y-59307460D01*
X156414121Y-59362689D01*
X156414118Y-59362691D01*
X156254867Y-59443833D01*
X156110270Y-59548890D01*
X155983890Y-59675270D01*
X155878833Y-59819867D01*
X155797691Y-59979118D01*
X155797689Y-59979121D01*
X155742460Y-60149098D01*
X155742460Y-60149101D01*
X155714500Y-60325634D01*
X145639020Y-60325634D01*
X145643000Y-60286677D01*
X145642999Y-59959122D01*
X149689500Y-59959122D01*
X149689500Y-60040878D01*
X149710660Y-60119848D01*
X149710661Y-60119849D01*
X149710661Y-60119850D01*
X149751535Y-60190647D01*
X149751537Y-60190650D01*
X149751538Y-60190651D01*
X149809349Y-60248462D01*
X149880152Y-60289340D01*
X149959122Y-60310500D01*
X149959124Y-60310500D01*
X150040875Y-60310500D01*
X150040878Y-60310500D01*
X150119848Y-60289340D01*
X150190651Y-60248462D01*
X150248462Y-60190651D01*
X150289340Y-60119848D01*
X150310500Y-60040878D01*
X150310500Y-59959122D01*
X150289340Y-59880152D01*
X150248462Y-59809349D01*
X150190651Y-59751538D01*
X150190650Y-59751537D01*
X150190647Y-59751535D01*
X150119850Y-59710661D01*
X150119849Y-59710660D01*
X150119848Y-59710660D01*
X150040878Y-59689500D01*
X149959122Y-59689500D01*
X149880152Y-59710660D01*
X149880150Y-59710661D01*
X149880149Y-59710661D01*
X149809352Y-59751535D01*
X149809347Y-59751539D01*
X149751539Y-59809347D01*
X149751535Y-59809352D01*
X149710661Y-59880149D01*
X149710661Y-59880150D01*
X149710660Y-59880152D01*
X149689500Y-59959122D01*
X145642999Y-59959122D01*
X145642999Y-59713324D01*
X145640565Y-59689500D01*
X145632674Y-59612247D01*
X145611679Y-59548889D01*
X145578408Y-59448484D01*
X145487840Y-59301650D01*
X145365850Y-59179660D01*
X145219016Y-59089092D01*
X145055253Y-59034826D01*
X145055251Y-59034825D01*
X144954178Y-59024500D01*
X144255830Y-59024500D01*
X144255812Y-59024501D01*
X144154747Y-59034825D01*
X143990984Y-59089092D01*
X143990981Y-59089093D01*
X143844148Y-59179661D01*
X143722161Y-59301648D01*
X143631593Y-59448481D01*
X143631592Y-59448484D01*
X143577326Y-59612247D01*
X143577326Y-59612248D01*
X143577325Y-59612248D01*
X143567000Y-59713315D01*
X129300500Y-59713315D01*
X129300500Y-56460645D01*
X147349500Y-56460645D01*
X147349500Y-57814363D01*
X147364953Y-57931753D01*
X147364956Y-57931762D01*
X147425464Y-58077841D01*
X147521718Y-58203282D01*
X147647159Y-58299536D01*
X147793238Y-58360044D01*
X147910639Y-58375500D01*
X148189360Y-58375499D01*
X148189361Y-58375499D01*
X148201594Y-58373888D01*
X148306762Y-58360044D01*
X148327545Y-58351434D01*
X148397014Y-58343965D01*
X148422453Y-58351434D01*
X148443238Y-58360044D01*
X148560639Y-58375500D01*
X148839360Y-58375499D01*
X148839361Y-58375499D01*
X148851594Y-58373888D01*
X148956762Y-58360044D01*
X148977545Y-58351434D01*
X149047014Y-58343965D01*
X149072453Y-58351434D01*
X149093238Y-58360044D01*
X149210639Y-58375500D01*
X149489360Y-58375499D01*
X149489361Y-58375499D01*
X149501594Y-58373888D01*
X149606762Y-58360044D01*
X149627545Y-58351434D01*
X149697014Y-58343965D01*
X149722453Y-58351434D01*
X149743238Y-58360044D01*
X149860639Y-58375500D01*
X150139360Y-58375499D01*
X150139363Y-58375499D01*
X150256753Y-58360046D01*
X150256757Y-58360044D01*
X150256762Y-58360044D01*
X150402841Y-58299536D01*
X150528282Y-58203282D01*
X150551625Y-58172860D01*
X150608051Y-58131658D01*
X150677797Y-58127503D01*
X150738718Y-58161714D01*
X150748368Y-58172851D01*
X150771718Y-58203282D01*
X150897159Y-58299536D01*
X151043238Y-58360044D01*
X151160639Y-58375500D01*
X151439360Y-58375499D01*
X151439361Y-58375499D01*
X151451594Y-58373888D01*
X151556762Y-58360044D01*
X151577545Y-58351434D01*
X151647014Y-58343965D01*
X151672453Y-58351434D01*
X151693238Y-58360044D01*
X151810639Y-58375500D01*
X152089360Y-58375499D01*
X152089363Y-58375499D01*
X152206753Y-58360046D01*
X152206757Y-58360044D01*
X152206762Y-58360044D01*
X152352841Y-58299536D01*
X152478282Y-58203282D01*
X152574536Y-58077841D01*
X152635044Y-57931762D01*
X152650500Y-57814361D01*
X152650500Y-57785634D01*
X155714500Y-57785634D01*
X155714500Y-57964365D01*
X155742460Y-58140898D01*
X155742460Y-58140901D01*
X155797689Y-58310878D01*
X155797691Y-58310881D01*
X155878833Y-58470132D01*
X155983889Y-58614728D01*
X156110272Y-58741111D01*
X156254868Y-58846167D01*
X156414119Y-58927309D01*
X156414121Y-58927310D01*
X156572670Y-58978825D01*
X156584103Y-58982540D01*
X156760634Y-59010500D01*
X156760635Y-59010500D01*
X156939365Y-59010500D01*
X156939366Y-59010500D01*
X157115897Y-58982540D01*
X157115900Y-58982539D01*
X157115901Y-58982539D01*
X157285878Y-58927310D01*
X157285878Y-58927309D01*
X157285881Y-58927309D01*
X157445132Y-58846167D01*
X157589728Y-58741111D01*
X157716111Y-58614728D01*
X157821167Y-58470132D01*
X157902309Y-58310881D01*
X157957540Y-58140897D01*
X157985500Y-57964366D01*
X157985500Y-57785634D01*
X157957540Y-57609103D01*
X157957539Y-57609099D01*
X157957539Y-57609098D01*
X157902310Y-57439121D01*
X157902308Y-57439118D01*
X157821166Y-57279867D01*
X157722227Y-57143690D01*
X157716111Y-57135272D01*
X157589728Y-57008889D01*
X157445132Y-56903833D01*
X157285881Y-56822691D01*
X157285878Y-56822689D01*
X157115899Y-56767460D01*
X156998209Y-56748820D01*
X156939366Y-56739500D01*
X156760634Y-56739500D01*
X156701790Y-56748820D01*
X156584101Y-56767460D01*
X156584098Y-56767460D01*
X156414121Y-56822689D01*
X156414118Y-56822691D01*
X156254867Y-56903833D01*
X156110270Y-57008890D01*
X155983890Y-57135270D01*
X155878833Y-57279867D01*
X155797691Y-57439118D01*
X155797689Y-57439121D01*
X155742460Y-57609098D01*
X155742460Y-57609101D01*
X155714500Y-57785634D01*
X152650500Y-57785634D01*
X152650499Y-57135272D01*
X152650499Y-56460636D01*
X152635046Y-56343246D01*
X152635044Y-56343239D01*
X152635044Y-56343238D01*
X152574536Y-56197159D01*
X152478282Y-56071718D01*
X152352841Y-55975464D01*
X152206762Y-55914956D01*
X152206760Y-55914955D01*
X152089361Y-55899500D01*
X151810636Y-55899500D01*
X151693246Y-55914953D01*
X151693234Y-55914957D01*
X151672450Y-55923566D01*
X151602981Y-55931033D01*
X151577550Y-55923566D01*
X151556765Y-55914957D01*
X151556760Y-55914955D01*
X151439361Y-55899500D01*
X151160636Y-55899500D01*
X151043246Y-55914953D01*
X151043237Y-55914956D01*
X150897160Y-55975463D01*
X150897159Y-55975464D01*
X150771718Y-56071718D01*
X150748374Y-56102140D01*
X150691948Y-56143341D01*
X150622202Y-56147496D01*
X150561281Y-56113283D01*
X150551630Y-56102146D01*
X150528282Y-56071718D01*
X150402841Y-55975464D01*
X150256762Y-55914956D01*
X150256760Y-55914955D01*
X150139361Y-55899500D01*
X149860636Y-55899500D01*
X149743246Y-55914953D01*
X149743234Y-55914957D01*
X149722450Y-55923566D01*
X149652981Y-55931033D01*
X149627550Y-55923566D01*
X149606765Y-55914957D01*
X149606760Y-55914955D01*
X149489361Y-55899500D01*
X149210636Y-55899500D01*
X149093246Y-55914953D01*
X149093234Y-55914957D01*
X149072450Y-55923566D01*
X149002981Y-55931033D01*
X148977550Y-55923566D01*
X148956765Y-55914957D01*
X148956760Y-55914955D01*
X148839361Y-55899500D01*
X148560636Y-55899500D01*
X148443246Y-55914953D01*
X148443234Y-55914957D01*
X148422450Y-55923566D01*
X148352981Y-55931033D01*
X148327550Y-55923566D01*
X148306765Y-55914957D01*
X148306760Y-55914955D01*
X148189361Y-55899500D01*
X147910636Y-55899500D01*
X147793246Y-55914953D01*
X147793237Y-55914956D01*
X147647160Y-55975463D01*
X147521718Y-56071718D01*
X147425463Y-56197160D01*
X147364956Y-56343237D01*
X147364955Y-56343239D01*
X147349501Y-56460629D01*
X147349501Y-56460636D01*
X147349500Y-56460645D01*
X129300500Y-56460645D01*
X129300500Y-55245634D01*
X155714500Y-55245634D01*
X155714500Y-55424365D01*
X155742460Y-55600898D01*
X155742460Y-55600901D01*
X155797689Y-55770878D01*
X155797691Y-55770881D01*
X155878833Y-55930132D01*
X155983889Y-56074728D01*
X156110272Y-56201111D01*
X156254868Y-56306167D01*
X156414119Y-56387309D01*
X156414121Y-56387310D01*
X156572670Y-56438825D01*
X156584103Y-56442540D01*
X156760634Y-56470500D01*
X156760635Y-56470500D01*
X156939365Y-56470500D01*
X156939366Y-56470500D01*
X157115897Y-56442540D01*
X157115900Y-56442539D01*
X157115901Y-56442539D01*
X157285878Y-56387310D01*
X157285878Y-56387309D01*
X157285881Y-56387309D01*
X157445132Y-56306167D01*
X157589728Y-56201111D01*
X157716111Y-56074728D01*
X157821167Y-55930132D01*
X157902309Y-55770881D01*
X157957540Y-55600897D01*
X157985500Y-55424366D01*
X157985500Y-55245634D01*
X157957540Y-55069103D01*
X157957539Y-55069099D01*
X157957539Y-55069098D01*
X157902310Y-54899121D01*
X157902308Y-54899118D01*
X157821166Y-54739867D01*
X157722227Y-54603690D01*
X157716111Y-54595272D01*
X157589728Y-54468889D01*
X157445132Y-54363833D01*
X157285881Y-54282691D01*
X157285878Y-54282689D01*
X157115899Y-54227460D01*
X156998209Y-54208820D01*
X156939366Y-54199500D01*
X156760634Y-54199500D01*
X156701790Y-54208820D01*
X156584101Y-54227460D01*
X156584098Y-54227460D01*
X156414121Y-54282689D01*
X156414118Y-54282691D01*
X156254867Y-54363833D01*
X156110270Y-54468890D01*
X155983890Y-54595270D01*
X155878833Y-54739867D01*
X155797691Y-54899118D01*
X155797689Y-54899121D01*
X155742460Y-55069098D01*
X155742460Y-55069101D01*
X155714500Y-55245634D01*
X129300500Y-55245634D01*
X129300500Y-52705634D01*
X155714500Y-52705634D01*
X155714500Y-52884365D01*
X155742460Y-53060898D01*
X155742460Y-53060901D01*
X155797689Y-53230878D01*
X155797691Y-53230881D01*
X155878833Y-53390132D01*
X155983889Y-53534728D01*
X156110272Y-53661111D01*
X156254868Y-53766167D01*
X156414119Y-53847309D01*
X156414121Y-53847310D01*
X156572670Y-53898825D01*
X156584103Y-53902540D01*
X156760634Y-53930500D01*
X156760635Y-53930500D01*
X156939365Y-53930500D01*
X156939366Y-53930500D01*
X157115897Y-53902540D01*
X157115900Y-53902539D01*
X157115901Y-53902539D01*
X157285878Y-53847310D01*
X157285878Y-53847309D01*
X157285881Y-53847309D01*
X157445132Y-53766167D01*
X157589728Y-53661111D01*
X157716111Y-53534728D01*
X157821167Y-53390132D01*
X157902309Y-53230881D01*
X157957540Y-53060897D01*
X157985500Y-52884366D01*
X157985500Y-52705634D01*
X157957540Y-52529103D01*
X157957539Y-52529099D01*
X157957539Y-52529098D01*
X157902310Y-52359121D01*
X157902308Y-52359118D01*
X157821166Y-52199867D01*
X157722227Y-52063690D01*
X157716111Y-52055272D01*
X157589728Y-51928889D01*
X157445132Y-51823833D01*
X157285881Y-51742691D01*
X157285878Y-51742689D01*
X157115899Y-51687460D01*
X156998209Y-51668820D01*
X156939366Y-51659500D01*
X156760634Y-51659500D01*
X156701790Y-51668820D01*
X156584101Y-51687460D01*
X156584098Y-51687460D01*
X156414121Y-51742689D01*
X156414118Y-51742691D01*
X156254867Y-51823833D01*
X156110270Y-51928890D01*
X155983890Y-52055270D01*
X155878833Y-52199867D01*
X155797691Y-52359118D01*
X155797689Y-52359121D01*
X155742460Y-52529098D01*
X155742460Y-52529101D01*
X155714500Y-52705634D01*
X129300500Y-52705634D01*
X129300500Y-50165634D01*
X155714500Y-50165634D01*
X155714500Y-50344365D01*
X155742460Y-50520898D01*
X155742460Y-50520901D01*
X155797689Y-50690878D01*
X155797691Y-50690881D01*
X155878833Y-50850132D01*
X155983889Y-50994728D01*
X156110272Y-51121111D01*
X156254868Y-51226167D01*
X156414119Y-51307309D01*
X156414121Y-51307310D01*
X156572670Y-51358825D01*
X156584103Y-51362540D01*
X156760634Y-51390500D01*
X156760635Y-51390500D01*
X156939365Y-51390500D01*
X156939366Y-51390500D01*
X157115897Y-51362540D01*
X157115900Y-51362539D01*
X157115901Y-51362539D01*
X157285878Y-51307310D01*
X157285878Y-51307309D01*
X157285881Y-51307309D01*
X157445132Y-51226167D01*
X157589728Y-51121111D01*
X157716111Y-50994728D01*
X157821167Y-50850132D01*
X157902309Y-50690881D01*
X157957540Y-50520897D01*
X157985500Y-50344366D01*
X157985500Y-50165634D01*
X157957540Y-49989103D01*
X157957539Y-49989099D01*
X157957539Y-49989098D01*
X157902310Y-49819121D01*
X157902308Y-49819118D01*
X157821166Y-49659867D01*
X157722227Y-49523690D01*
X157716111Y-49515272D01*
X157589728Y-49388889D01*
X157445132Y-49283833D01*
X157285881Y-49202691D01*
X157285878Y-49202689D01*
X157115899Y-49147460D01*
X156998209Y-49128820D01*
X156939366Y-49119500D01*
X156760634Y-49119500D01*
X156701790Y-49128820D01*
X156584101Y-49147460D01*
X156584098Y-49147460D01*
X156414121Y-49202689D01*
X156414118Y-49202691D01*
X156254867Y-49283833D01*
X156110270Y-49388890D01*
X155983890Y-49515270D01*
X155878833Y-49659867D01*
X155797691Y-49819118D01*
X155797689Y-49819121D01*
X155742460Y-49989098D01*
X155742460Y-49989101D01*
X155714500Y-50165634D01*
X129300500Y-50165634D01*
X129300500Y-47625634D01*
X155714500Y-47625634D01*
X155714500Y-47804365D01*
X155742460Y-47980898D01*
X155742460Y-47980901D01*
X155797689Y-48150878D01*
X155797691Y-48150881D01*
X155878833Y-48310132D01*
X155983889Y-48454728D01*
X156110272Y-48581111D01*
X156254868Y-48686167D01*
X156414119Y-48767309D01*
X156414121Y-48767310D01*
X156572670Y-48818825D01*
X156584103Y-48822540D01*
X156760634Y-48850500D01*
X156760635Y-48850500D01*
X156939365Y-48850500D01*
X156939366Y-48850500D01*
X157115897Y-48822540D01*
X157115900Y-48822539D01*
X157115901Y-48822539D01*
X157285878Y-48767310D01*
X157285878Y-48767309D01*
X157285881Y-48767309D01*
X157445132Y-48686167D01*
X157589728Y-48581111D01*
X157716111Y-48454728D01*
X157821167Y-48310132D01*
X157902309Y-48150881D01*
X157957540Y-47980897D01*
X157985500Y-47804366D01*
X157985500Y-47625634D01*
X157957540Y-47449103D01*
X157957539Y-47449099D01*
X157957539Y-47449098D01*
X157902310Y-47279121D01*
X157902308Y-47279118D01*
X157821166Y-47119867D01*
X157722227Y-46983690D01*
X157716111Y-46975272D01*
X157589728Y-46848889D01*
X157445132Y-46743833D01*
X157285881Y-46662691D01*
X157285878Y-46662689D01*
X157115899Y-46607460D01*
X156998209Y-46588820D01*
X156939366Y-46579500D01*
X156760634Y-46579500D01*
X156701790Y-46588820D01*
X156584101Y-46607460D01*
X156584098Y-46607460D01*
X156414121Y-46662689D01*
X156414118Y-46662691D01*
X156254867Y-46743833D01*
X156110270Y-46848890D01*
X155983890Y-46975270D01*
X155878833Y-47119867D01*
X155797691Y-47279118D01*
X155797689Y-47279121D01*
X155742460Y-47449098D01*
X155742460Y-47449101D01*
X155714500Y-47625634D01*
X129300500Y-47625634D01*
X129300500Y-44381995D01*
X132699500Y-44381995D01*
X132699500Y-44618004D01*
X132699501Y-44618020D01*
X132720828Y-44780018D01*
X132730307Y-44852014D01*
X132745604Y-44909103D01*
X132791394Y-45079993D01*
X132881714Y-45298045D01*
X132881719Y-45298056D01*
X132947567Y-45412107D01*
X132999727Y-45502450D01*
X132999729Y-45502453D01*
X132999730Y-45502454D01*
X133143406Y-45689697D01*
X133143412Y-45689704D01*
X133310295Y-45856587D01*
X133310301Y-45856592D01*
X133497550Y-46000273D01*
X133628918Y-46076118D01*
X133701943Y-46118280D01*
X133701948Y-46118282D01*
X133701951Y-46118284D01*
X133920007Y-46208606D01*
X134147986Y-46269693D01*
X134381989Y-46300500D01*
X134381996Y-46300500D01*
X134618004Y-46300500D01*
X134618011Y-46300500D01*
X134852014Y-46269693D01*
X135079993Y-46208606D01*
X135298049Y-46118284D01*
X135502450Y-46000273D01*
X135689699Y-45856592D01*
X135856592Y-45689699D01*
X136000273Y-45502450D01*
X136118284Y-45298049D01*
X136206269Y-45085634D01*
X155714500Y-45085634D01*
X155714500Y-45264365D01*
X155742460Y-45440898D01*
X155742460Y-45440901D01*
X155797689Y-45610878D01*
X155797691Y-45610881D01*
X155878833Y-45770132D01*
X155983889Y-45914728D01*
X156110272Y-46041111D01*
X156254868Y-46146167D01*
X156414119Y-46227309D01*
X156414121Y-46227310D01*
X156544564Y-46269693D01*
X156584103Y-46282540D01*
X156760634Y-46310500D01*
X156760635Y-46310500D01*
X156939365Y-46310500D01*
X156939366Y-46310500D01*
X157115897Y-46282540D01*
X157115900Y-46282539D01*
X157115901Y-46282539D01*
X157285878Y-46227310D01*
X157285878Y-46227309D01*
X157285881Y-46227309D01*
X157445132Y-46146167D01*
X157589728Y-46041111D01*
X157716111Y-45914728D01*
X157821167Y-45770132D01*
X157902309Y-45610881D01*
X157957540Y-45440897D01*
X157985500Y-45264366D01*
X157985500Y-45085634D01*
X157957540Y-44909103D01*
X157957539Y-44909099D01*
X157957539Y-44909098D01*
X157902310Y-44739121D01*
X157902308Y-44739118D01*
X157840602Y-44618011D01*
X157821167Y-44579868D01*
X157727403Y-44450814D01*
X157727403Y-44450813D01*
X157716115Y-44435278D01*
X157716111Y-44435272D01*
X157662834Y-44381995D01*
X163699500Y-44381995D01*
X163699500Y-44618004D01*
X163699501Y-44618020D01*
X163720828Y-44780018D01*
X163730307Y-44852014D01*
X163745604Y-44909103D01*
X163791394Y-45079993D01*
X163881714Y-45298045D01*
X163881719Y-45298056D01*
X163947567Y-45412107D01*
X163999727Y-45502450D01*
X163999729Y-45502453D01*
X163999730Y-45502454D01*
X164143406Y-45689697D01*
X164143412Y-45689704D01*
X164310295Y-45856587D01*
X164310301Y-45856592D01*
X164497550Y-46000273D01*
X164628918Y-46076118D01*
X164701943Y-46118280D01*
X164701948Y-46118282D01*
X164701951Y-46118284D01*
X164920007Y-46208606D01*
X165147986Y-46269693D01*
X165381989Y-46300500D01*
X165381996Y-46300500D01*
X165618004Y-46300500D01*
X165618011Y-46300500D01*
X165852014Y-46269693D01*
X166079993Y-46208606D01*
X166298049Y-46118284D01*
X166502450Y-46000273D01*
X166689699Y-45856592D01*
X166856592Y-45689699D01*
X167000273Y-45502450D01*
X167118284Y-45298049D01*
X167208606Y-45079993D01*
X167269693Y-44852014D01*
X167300500Y-44618011D01*
X167300500Y-44381989D01*
X167269693Y-44147986D01*
X167208606Y-43920007D01*
X167118284Y-43701951D01*
X167118282Y-43701948D01*
X167118280Y-43701943D01*
X167076118Y-43628918D01*
X167000273Y-43497550D01*
X166856592Y-43310301D01*
X166856587Y-43310295D01*
X166689704Y-43143412D01*
X166689697Y-43143406D01*
X166502454Y-42999730D01*
X166502453Y-42999729D01*
X166502450Y-42999727D01*
X166420957Y-42952677D01*
X166298056Y-42881719D01*
X166298045Y-42881714D01*
X166079993Y-42791394D01*
X165852010Y-42730306D01*
X165618020Y-42699501D01*
X165618017Y-42699500D01*
X165618011Y-42699500D01*
X165381989Y-42699500D01*
X165381983Y-42699500D01*
X165381979Y-42699501D01*
X165147989Y-42730306D01*
X164920006Y-42791394D01*
X164701954Y-42881714D01*
X164701943Y-42881719D01*
X164497545Y-42999730D01*
X164310302Y-43143406D01*
X164310295Y-43143412D01*
X164143412Y-43310295D01*
X164143406Y-43310302D01*
X163999730Y-43497545D01*
X163881719Y-43701943D01*
X163881714Y-43701954D01*
X163791394Y-43920006D01*
X163730306Y-44147989D01*
X163699501Y-44381979D01*
X163699500Y-44381995D01*
X157662834Y-44381995D01*
X157589728Y-44308889D01*
X157445132Y-44203833D01*
X157285881Y-44122691D01*
X157285878Y-44122689D01*
X157115899Y-44067460D01*
X156948653Y-44040971D01*
X156939366Y-44039500D01*
X156760634Y-44039500D01*
X156751347Y-44040971D01*
X156584101Y-44067460D01*
X156584098Y-44067460D01*
X156414121Y-44122689D01*
X156414118Y-44122691D01*
X156254867Y-44203833D01*
X156110270Y-44308890D01*
X155983890Y-44435270D01*
X155878833Y-44579867D01*
X155797691Y-44739118D01*
X155797689Y-44739121D01*
X155742460Y-44909098D01*
X155742460Y-44909101D01*
X155714500Y-45085634D01*
X136206269Y-45085634D01*
X136208606Y-45079993D01*
X136269693Y-44852014D01*
X136300500Y-44618011D01*
X136300500Y-44381989D01*
X136269693Y-44147986D01*
X136208606Y-43920007D01*
X136118284Y-43701951D01*
X136118282Y-43701948D01*
X136118280Y-43701943D01*
X136076118Y-43628918D01*
X136000273Y-43497550D01*
X135856592Y-43310301D01*
X135856587Y-43310295D01*
X135689704Y-43143412D01*
X135689697Y-43143406D01*
X135502454Y-42999730D01*
X135502453Y-42999729D01*
X135502450Y-42999727D01*
X135420957Y-42952677D01*
X135298056Y-42881719D01*
X135298045Y-42881714D01*
X135079993Y-42791394D01*
X134852010Y-42730306D01*
X134618020Y-42699501D01*
X134618017Y-42699500D01*
X134618011Y-42699500D01*
X134381989Y-42699500D01*
X134381983Y-42699500D01*
X134381979Y-42699501D01*
X134147989Y-42730306D01*
X133920006Y-42791394D01*
X133701954Y-42881714D01*
X133701943Y-42881719D01*
X133497545Y-42999730D01*
X133310302Y-43143406D01*
X133310295Y-43143412D01*
X133143412Y-43310295D01*
X133143406Y-43310302D01*
X132999730Y-43497545D01*
X132881719Y-43701943D01*
X132881714Y-43701954D01*
X132791394Y-43920006D01*
X132730306Y-44147989D01*
X132699501Y-44381979D01*
X132699500Y-44381995D01*
X129300500Y-44381995D01*
X129300500Y-41004427D01*
X129300816Y-40995582D01*
X129303329Y-40960438D01*
X129306313Y-40918713D01*
X152929500Y-40918713D01*
X152929500Y-41131286D01*
X152962753Y-41341239D01*
X153028444Y-41543414D01*
X153124951Y-41732820D01*
X153249890Y-41904786D01*
X153400213Y-42055109D01*
X153572179Y-42180048D01*
X153572181Y-42180049D01*
X153572184Y-42180051D01*
X153761588Y-42276557D01*
X153963757Y-42342246D01*
X154173713Y-42375500D01*
X154173714Y-42375500D01*
X154386286Y-42375500D01*
X154386287Y-42375500D01*
X154596243Y-42342246D01*
X154798412Y-42276557D01*
X154987816Y-42180051D01*
X155074138Y-42117335D01*
X155159786Y-42055109D01*
X155159788Y-42055106D01*
X155159792Y-42055104D01*
X155310104Y-41904792D01*
X155310106Y-41904788D01*
X155310109Y-41904786D01*
X155435048Y-41732820D01*
X155435047Y-41732820D01*
X155435051Y-41732816D01*
X155439514Y-41724054D01*
X155487488Y-41673259D01*
X155555308Y-41656463D01*
X155621444Y-41678999D01*
X155660486Y-41724056D01*
X155664951Y-41732820D01*
X155789890Y-41904786D01*
X155940213Y-42055109D01*
X156112179Y-42180048D01*
X156112181Y-42180049D01*
X156112184Y-42180051D01*
X156301588Y-42276557D01*
X156503757Y-42342246D01*
X156713713Y-42375500D01*
X156713714Y-42375500D01*
X156926286Y-42375500D01*
X156926287Y-42375500D01*
X157136243Y-42342246D01*
X157338412Y-42276557D01*
X157527816Y-42180051D01*
X157614138Y-42117335D01*
X157699786Y-42055109D01*
X157699788Y-42055106D01*
X157699792Y-42055104D01*
X157850104Y-41904792D01*
X157850106Y-41904788D01*
X157850109Y-41904786D01*
X157975048Y-41732820D01*
X157975047Y-41732820D01*
X157975051Y-41732816D01*
X157979514Y-41724054D01*
X158027488Y-41673259D01*
X158095308Y-41656463D01*
X158161444Y-41678999D01*
X158200486Y-41724056D01*
X158204951Y-41732820D01*
X158329890Y-41904786D01*
X158480213Y-42055109D01*
X158652179Y-42180048D01*
X158652181Y-42180049D01*
X158652184Y-42180051D01*
X158841588Y-42276557D01*
X159043757Y-42342246D01*
X159253713Y-42375500D01*
X159253714Y-42375500D01*
X159466286Y-42375500D01*
X159466287Y-42375500D01*
X159676243Y-42342246D01*
X159878412Y-42276557D01*
X160067816Y-42180051D01*
X160239792Y-42055104D01*
X160353329Y-41941566D01*
X160414648Y-41908084D01*
X160484340Y-41913068D01*
X160540274Y-41954939D01*
X160557189Y-41985917D01*
X160606202Y-42117328D01*
X160606206Y-42117335D01*
X160692452Y-42232544D01*
X160692455Y-42232547D01*
X160807664Y-42318793D01*
X160807671Y-42318797D01*
X160942517Y-42369091D01*
X160942516Y-42369091D01*
X160949444Y-42369835D01*
X161002127Y-42375500D01*
X162797872Y-42375499D01*
X162857483Y-42369091D01*
X162992331Y-42318796D01*
X163107546Y-42232546D01*
X163193796Y-42117331D01*
X163244091Y-41982483D01*
X163250500Y-41922873D01*
X163250499Y-40127128D01*
X163244091Y-40067517D01*
X163242810Y-40064083D01*
X163193797Y-39932671D01*
X163193793Y-39932664D01*
X163107547Y-39817455D01*
X163107544Y-39817452D01*
X162992335Y-39731206D01*
X162992328Y-39731202D01*
X162857482Y-39680908D01*
X162857483Y-39680908D01*
X162797883Y-39674501D01*
X162797881Y-39674500D01*
X162797873Y-39674500D01*
X162797864Y-39674500D01*
X161002129Y-39674500D01*
X161002123Y-39674501D01*
X160942516Y-39680908D01*
X160807671Y-39731202D01*
X160807664Y-39731206D01*
X160692455Y-39817452D01*
X160692452Y-39817455D01*
X160606206Y-39932664D01*
X160606203Y-39932669D01*
X160557189Y-40064083D01*
X160515317Y-40120016D01*
X160449853Y-40144433D01*
X160381580Y-40129581D01*
X160353326Y-40108430D01*
X160239786Y-39994890D01*
X160067820Y-39869951D01*
X159878414Y-39773444D01*
X159878413Y-39773443D01*
X159878412Y-39773443D01*
X159676243Y-39707754D01*
X159676241Y-39707753D01*
X159676240Y-39707753D01*
X159514957Y-39682208D01*
X159466287Y-39674500D01*
X159253713Y-39674500D01*
X159205042Y-39682208D01*
X159043760Y-39707753D01*
X158841585Y-39773444D01*
X158652179Y-39869951D01*
X158480213Y-39994890D01*
X158329890Y-40145213D01*
X158204949Y-40317182D01*
X158200484Y-40325946D01*
X158152509Y-40376742D01*
X158084688Y-40393536D01*
X158018553Y-40370998D01*
X157979516Y-40325946D01*
X157975050Y-40317182D01*
X157850109Y-40145213D01*
X157699786Y-39994890D01*
X157527820Y-39869951D01*
X157338414Y-39773444D01*
X157338413Y-39773443D01*
X157338412Y-39773443D01*
X157136243Y-39707754D01*
X157136241Y-39707753D01*
X157136240Y-39707753D01*
X156974957Y-39682208D01*
X156926287Y-39674500D01*
X156713713Y-39674500D01*
X156665042Y-39682208D01*
X156503760Y-39707753D01*
X156301585Y-39773444D01*
X156112179Y-39869951D01*
X155940213Y-39994890D01*
X155789890Y-40145213D01*
X155664949Y-40317182D01*
X155660484Y-40325946D01*
X155612509Y-40376742D01*
X155544688Y-40393536D01*
X155478553Y-40370998D01*
X155439516Y-40325946D01*
X155435050Y-40317182D01*
X155310109Y-40145213D01*
X155159786Y-39994890D01*
X154987820Y-39869951D01*
X154798414Y-39773444D01*
X154798413Y-39773443D01*
X154798412Y-39773443D01*
X154596243Y-39707754D01*
X154596241Y-39707753D01*
X154596240Y-39707753D01*
X154434957Y-39682208D01*
X154386287Y-39674500D01*
X154173713Y-39674500D01*
X154125042Y-39682208D01*
X153963760Y-39707753D01*
X153761585Y-39773444D01*
X153572179Y-39869951D01*
X153400213Y-39994890D01*
X153249890Y-40145213D01*
X153124951Y-40317179D01*
X153028444Y-40506585D01*
X152962753Y-40708760D01*
X152929500Y-40918713D01*
X129306313Y-40918713D01*
X129317165Y-40766973D01*
X129319681Y-40749476D01*
X129367457Y-40529852D01*
X129372434Y-40512901D01*
X129450986Y-40302295D01*
X129458325Y-40286226D01*
X129566043Y-40088955D01*
X129575599Y-40074086D01*
X129710293Y-39894156D01*
X129721867Y-39880799D01*
X129880799Y-39721867D01*
X129894156Y-39710293D01*
X130074086Y-39575599D01*
X130088955Y-39566043D01*
X130286226Y-39458325D01*
X130302295Y-39450986D01*
X130512901Y-39372434D01*
X130529852Y-39367457D01*
X130749476Y-39319681D01*
X130766973Y-39317165D01*
X130995582Y-39300816D01*
X131004428Y-39300500D01*
X131047594Y-39300500D01*
X168952406Y-39300500D01*
X168995572Y-39300500D01*
X169004418Y-39300816D01*
G37*
%TD.AperFunction*%
%TD*%
M02*
